%TF.GenerationSoftware,KiCad,Pcbnew,10.0.0*%
%TF.CreationDate,2026-04-06T01:48:29+10:00*%
%TF.ProjectId,front_rear_panels,66726f6e-745f-4726-9561-725f70616e65,rev?*%
%TF.SameCoordinates,Original*%
%TF.FileFunction,Legend,Top*%
%TF.FilePolarity,Positive*%
%FSLAX46Y46*%
G04 Gerber Fmt 4.6, Leading zero omitted, Abs format (unit mm)*
G04 Created by KiCad (PCBNEW 10.0.0) date 2026-04-06 01:48:29*
%MOMM*%
%LPD*%
G01*
G04 APERTURE LIST*
%ADD10C,0.100000*%
%ADD11C,0.300000*%
%ADD12C,1.000000*%
%ADD13C,0.200000*%
%ADD14C,0.187500*%
G04 APERTURE END LIST*
D10*
X110500000Y-104000000D02*
X124500000Y-104000000D01*
X124500000Y-108500000D01*
X110500000Y-108500000D01*
X110500000Y-104000000D01*
X75500000Y-104000000D02*
X89500000Y-104000000D01*
X89500000Y-109000000D01*
X75500000Y-109000000D01*
X75500000Y-104000000D01*
D11*
G36*
X122703541Y-102222257D02*
G01*
X122405482Y-102222257D01*
X122554511Y-101775169D01*
X122703541Y-102222257D01*
G37*
G36*
X124728320Y-103117495D02*
G01*
X120237843Y-103117495D01*
X120237843Y-101300828D01*
X120404510Y-101300828D01*
X120404510Y-102800828D01*
X120407392Y-102830092D01*
X120429790Y-102884164D01*
X120471174Y-102925548D01*
X120525246Y-102947946D01*
X120583774Y-102947946D01*
X120637846Y-102925548D01*
X120679230Y-102884164D01*
X120701628Y-102830092D01*
X120704510Y-102800828D01*
X120704510Y-101976961D01*
X120918583Y-102435690D01*
X120924929Y-102446403D01*
X120926250Y-102450035D01*
X120928601Y-102452603D01*
X120933570Y-102460990D01*
X120950375Y-102476380D01*
X120965777Y-102493198D01*
X120971820Y-102496018D01*
X120976733Y-102500517D01*
X120998153Y-102508306D01*
X121018815Y-102517948D01*
X121025472Y-102518240D01*
X121031735Y-102520518D01*
X121054514Y-102519517D01*
X121077285Y-102520518D01*
X121083544Y-102518241D01*
X121090206Y-102517949D01*
X121110873Y-102508304D01*
X121132288Y-102500517D01*
X121137201Y-102496017D01*
X121143243Y-102493198D01*
X121158638Y-102476385D01*
X121175451Y-102460990D01*
X121180419Y-102452601D01*
X121182770Y-102450035D01*
X121184089Y-102446405D01*
X121190437Y-102435690D01*
X121404510Y-101976962D01*
X121404510Y-102800828D01*
X121407392Y-102830092D01*
X121429790Y-102884164D01*
X121471174Y-102925548D01*
X121525246Y-102947946D01*
X121583774Y-102947946D01*
X121637846Y-102925548D01*
X121679230Y-102884164D01*
X121701628Y-102830092D01*
X121704510Y-102800828D01*
X121704510Y-102782067D01*
X121905689Y-102782067D01*
X121909838Y-102840448D01*
X121936012Y-102892795D01*
X121980226Y-102931142D01*
X122035750Y-102949650D01*
X122094131Y-102945501D01*
X122146478Y-102919327D01*
X122184825Y-102875113D01*
X122196813Y-102848262D01*
X122305482Y-102522257D01*
X122803541Y-102522257D01*
X122912209Y-102848262D01*
X122924197Y-102875113D01*
X122962544Y-102919328D01*
X123014892Y-102945501D01*
X123073272Y-102949651D01*
X123128796Y-102931142D01*
X123173010Y-102892795D01*
X123199184Y-102840448D01*
X123203334Y-102782068D01*
X123196814Y-102753394D01*
X122712572Y-101300670D01*
X123261653Y-101300670D01*
X123273011Y-101358085D01*
X123286845Y-101384033D01*
X123731375Y-102050828D01*
X123286845Y-102717623D01*
X123273011Y-102743571D01*
X123261653Y-102800986D01*
X123273131Y-102858375D01*
X123305697Y-102907005D01*
X123354396Y-102939470D01*
X123411811Y-102950828D01*
X123469200Y-102939350D01*
X123517830Y-102906784D01*
X123536461Y-102884033D01*
X123911653Y-102321244D01*
X124286846Y-102884033D01*
X124305476Y-102906784D01*
X124354106Y-102939350D01*
X124411496Y-102950828D01*
X124468910Y-102939471D01*
X124517609Y-102907005D01*
X124550175Y-102858375D01*
X124561653Y-102800986D01*
X124550296Y-102743571D01*
X124536461Y-102717623D01*
X124091931Y-102050828D01*
X124536461Y-101384033D01*
X124550296Y-101358085D01*
X124561653Y-101300670D01*
X124550175Y-101243281D01*
X124517609Y-101194651D01*
X124468910Y-101162185D01*
X124411496Y-101150828D01*
X124354106Y-101162306D01*
X124305476Y-101194872D01*
X124286846Y-101217623D01*
X123911653Y-101780411D01*
X123536461Y-101217623D01*
X123517830Y-101194872D01*
X123469200Y-101162306D01*
X123411811Y-101150828D01*
X123354396Y-101162186D01*
X123305697Y-101194651D01*
X123273131Y-101243281D01*
X123261653Y-101300670D01*
X122712572Y-101300670D01*
X122696813Y-101253394D01*
X122684825Y-101226543D01*
X122677802Y-101218446D01*
X122673010Y-101208861D01*
X122658801Y-101196537D01*
X122646478Y-101182329D01*
X122636892Y-101177536D01*
X122628796Y-101170514D01*
X122610952Y-101164565D01*
X122594131Y-101156155D01*
X122583442Y-101155395D01*
X122573272Y-101152005D01*
X122554506Y-101153338D01*
X122535750Y-101152006D01*
X122525582Y-101155395D01*
X122514892Y-101156155D01*
X122498068Y-101164566D01*
X122480226Y-101170514D01*
X122472131Y-101177534D01*
X122462544Y-101182328D01*
X122450218Y-101196539D01*
X122436012Y-101208861D01*
X122431219Y-101218445D01*
X122424197Y-101226543D01*
X122412209Y-101253394D01*
X121912209Y-102753394D01*
X121905689Y-102782067D01*
X121704510Y-102782067D01*
X121704510Y-101300828D01*
X121702615Y-101281590D01*
X121702771Y-101278052D01*
X121702079Y-101276151D01*
X121701628Y-101271564D01*
X121691667Y-101247518D01*
X121682770Y-101223050D01*
X121680510Y-101220582D01*
X121679230Y-101217492D01*
X121660832Y-101199094D01*
X121643243Y-101179887D01*
X121640209Y-101178471D01*
X121637846Y-101176108D01*
X121613815Y-101166154D01*
X121590206Y-101155136D01*
X121586861Y-101154989D01*
X121583774Y-101153710D01*
X121557750Y-101153710D01*
X121531735Y-101152567D01*
X121528592Y-101153710D01*
X121525246Y-101153710D01*
X121501193Y-101163673D01*
X121476733Y-101172568D01*
X121474265Y-101174827D01*
X121471174Y-101176108D01*
X121452765Y-101194516D01*
X121433570Y-101212095D01*
X121431220Y-101216061D01*
X121429790Y-101217492D01*
X121428434Y-101220764D01*
X121418583Y-101237395D01*
X121054510Y-102017551D01*
X120690437Y-101237395D01*
X120680583Y-101220760D01*
X120679230Y-101217492D01*
X120677801Y-101216063D01*
X120675451Y-101212095D01*
X120656243Y-101194505D01*
X120637846Y-101176108D01*
X120634755Y-101174827D01*
X120632288Y-101172568D01*
X120607822Y-101163671D01*
X120583774Y-101153710D01*
X120580428Y-101153710D01*
X120577285Y-101152567D01*
X120551281Y-101153710D01*
X120525246Y-101153710D01*
X120522155Y-101154990D01*
X120518815Y-101155137D01*
X120495219Y-101166147D01*
X120471174Y-101176108D01*
X120468810Y-101178471D01*
X120465777Y-101179887D01*
X120448187Y-101199094D01*
X120429790Y-101217492D01*
X120428509Y-101220582D01*
X120426250Y-101223050D01*
X120417353Y-101247515D01*
X120407392Y-101271564D01*
X120406940Y-101276152D01*
X120406249Y-101278053D01*
X120406404Y-101281591D01*
X120404510Y-101300828D01*
X120237843Y-101300828D01*
X120237843Y-100984161D01*
X124728320Y-100984161D01*
X124728320Y-103117495D01*
G37*
G36*
X79156892Y-103117129D02*
G01*
X75237843Y-103117129D01*
X75237843Y-101300828D01*
X75404510Y-101300828D01*
X75404510Y-102800828D01*
X75407392Y-102830092D01*
X75429790Y-102884164D01*
X75471174Y-102925548D01*
X75525246Y-102947946D01*
X75583774Y-102947946D01*
X75637846Y-102925548D01*
X75679230Y-102884164D01*
X75701628Y-102830092D01*
X75704510Y-102800828D01*
X75704510Y-101976961D01*
X75918583Y-102435690D01*
X75924929Y-102446403D01*
X75926250Y-102450035D01*
X75928601Y-102452603D01*
X75933570Y-102460990D01*
X75950375Y-102476380D01*
X75965777Y-102493198D01*
X75971820Y-102496018D01*
X75976733Y-102500517D01*
X75998153Y-102508306D01*
X76018815Y-102517948D01*
X76025472Y-102518240D01*
X76031735Y-102520518D01*
X76054514Y-102519517D01*
X76077285Y-102520518D01*
X76083544Y-102518241D01*
X76090206Y-102517949D01*
X76110873Y-102508304D01*
X76132288Y-102500517D01*
X76137201Y-102496017D01*
X76143243Y-102493198D01*
X76158638Y-102476385D01*
X76175451Y-102460990D01*
X76180419Y-102452601D01*
X76182770Y-102450035D01*
X76184089Y-102446405D01*
X76190437Y-102435690D01*
X76404510Y-101976962D01*
X76404510Y-102800828D01*
X76407392Y-102830092D01*
X76429790Y-102884164D01*
X76471174Y-102925548D01*
X76525246Y-102947946D01*
X76583774Y-102947946D01*
X76637846Y-102925548D01*
X76679230Y-102884164D01*
X76701628Y-102830092D01*
X76704510Y-102800828D01*
X76704510Y-101300828D01*
X77118796Y-101300828D01*
X77118796Y-102800828D01*
X77121678Y-102830092D01*
X77144076Y-102884164D01*
X77185460Y-102925548D01*
X77239532Y-102947946D01*
X77298060Y-102947946D01*
X77352132Y-102925548D01*
X77393516Y-102884164D01*
X77415914Y-102830092D01*
X77418796Y-102800828D01*
X77418796Y-101300828D01*
X77833082Y-101300828D01*
X77833082Y-102800828D01*
X77835964Y-102830092D01*
X77858362Y-102884164D01*
X77899746Y-102925548D01*
X77953818Y-102947946D01*
X78012346Y-102947946D01*
X78066418Y-102925548D01*
X78107802Y-102884164D01*
X78130200Y-102830092D01*
X78133082Y-102800828D01*
X78133082Y-101865661D01*
X78709989Y-102875249D01*
X78714366Y-102881416D01*
X78715505Y-102884164D01*
X78718304Y-102886963D01*
X78727010Y-102899227D01*
X78742783Y-102911442D01*
X78756889Y-102925548D01*
X78765722Y-102929206D01*
X78773284Y-102935063D01*
X78792532Y-102940312D01*
X78810961Y-102947946D01*
X78820523Y-102947946D01*
X78829748Y-102950462D01*
X78849539Y-102947946D01*
X78869489Y-102947946D01*
X78878322Y-102944286D01*
X78887808Y-102943081D01*
X78905130Y-102933182D01*
X78923561Y-102925548D01*
X78930321Y-102918787D01*
X78938624Y-102914043D01*
X78950837Y-102898271D01*
X78964945Y-102884164D01*
X78968604Y-102875328D01*
X78974459Y-102867769D01*
X78979707Y-102848524D01*
X78987343Y-102830092D01*
X78988816Y-102815127D01*
X78989859Y-102811306D01*
X78989483Y-102808354D01*
X78990225Y-102800828D01*
X78990225Y-101300828D01*
X78987343Y-101271564D01*
X78964945Y-101217492D01*
X78923561Y-101176108D01*
X78869489Y-101153710D01*
X78810961Y-101153710D01*
X78756889Y-101176108D01*
X78715505Y-101217492D01*
X78693107Y-101271564D01*
X78690225Y-101300828D01*
X78690225Y-102235992D01*
X78113318Y-101226407D01*
X78108940Y-101220239D01*
X78107802Y-101217492D01*
X78105002Y-101214692D01*
X78096297Y-101202429D01*
X78080525Y-101190215D01*
X78066418Y-101176108D01*
X78057582Y-101172448D01*
X78050023Y-101166594D01*
X78030778Y-101161345D01*
X78012346Y-101153710D01*
X78002784Y-101153710D01*
X77993559Y-101151194D01*
X77973768Y-101153710D01*
X77953818Y-101153710D01*
X77944984Y-101157369D01*
X77935499Y-101158575D01*
X77918176Y-101168473D01*
X77899746Y-101176108D01*
X77892985Y-101182868D01*
X77884683Y-101187613D01*
X77872469Y-101203384D01*
X77858362Y-101217492D01*
X77854702Y-101226327D01*
X77848848Y-101233887D01*
X77843599Y-101253131D01*
X77835964Y-101271564D01*
X77834490Y-101286530D01*
X77833448Y-101290351D01*
X77833823Y-101293302D01*
X77833082Y-101300828D01*
X77418796Y-101300828D01*
X77415914Y-101271564D01*
X77393516Y-101217492D01*
X77352132Y-101176108D01*
X77298060Y-101153710D01*
X77239532Y-101153710D01*
X77185460Y-101176108D01*
X77144076Y-101217492D01*
X77121678Y-101271564D01*
X77118796Y-101300828D01*
X76704510Y-101300828D01*
X76702615Y-101281590D01*
X76702771Y-101278052D01*
X76702079Y-101276151D01*
X76701628Y-101271564D01*
X76691667Y-101247518D01*
X76682770Y-101223050D01*
X76680510Y-101220582D01*
X76679230Y-101217492D01*
X76660832Y-101199094D01*
X76643243Y-101179887D01*
X76640209Y-101178471D01*
X76637846Y-101176108D01*
X76613815Y-101166154D01*
X76590206Y-101155136D01*
X76586861Y-101154989D01*
X76583774Y-101153710D01*
X76557750Y-101153710D01*
X76531735Y-101152567D01*
X76528592Y-101153710D01*
X76525246Y-101153710D01*
X76501193Y-101163673D01*
X76476733Y-101172568D01*
X76474265Y-101174827D01*
X76471174Y-101176108D01*
X76452765Y-101194516D01*
X76433570Y-101212095D01*
X76431220Y-101216061D01*
X76429790Y-101217492D01*
X76428434Y-101220764D01*
X76418583Y-101237395D01*
X76054510Y-102017551D01*
X75690437Y-101237395D01*
X75680583Y-101220760D01*
X75679230Y-101217492D01*
X75677801Y-101216063D01*
X75675451Y-101212095D01*
X75656243Y-101194505D01*
X75637846Y-101176108D01*
X75634755Y-101174827D01*
X75632288Y-101172568D01*
X75607822Y-101163671D01*
X75583774Y-101153710D01*
X75580428Y-101153710D01*
X75577285Y-101152567D01*
X75551281Y-101153710D01*
X75525246Y-101153710D01*
X75522155Y-101154990D01*
X75518815Y-101155137D01*
X75495219Y-101166147D01*
X75471174Y-101176108D01*
X75468810Y-101178471D01*
X75465777Y-101179887D01*
X75448187Y-101199094D01*
X75429790Y-101217492D01*
X75428509Y-101220582D01*
X75426250Y-101223050D01*
X75417353Y-101247515D01*
X75407392Y-101271564D01*
X75406940Y-101276152D01*
X75406249Y-101278053D01*
X75406404Y-101281591D01*
X75404510Y-101300828D01*
X75237843Y-101300828D01*
X75237843Y-100984527D01*
X79156892Y-100984527D01*
X79156892Y-103117129D01*
G37*
D10*
G36*
X84502510Y-121532335D02*
G01*
X84546343Y-121542437D01*
X84587098Y-121559047D01*
X84641555Y-121592543D01*
X84678323Y-121627496D01*
X84726224Y-121695110D01*
X84760327Y-121765127D01*
X84774849Y-121820672D01*
X84780111Y-121889752D01*
X84780111Y-121969131D01*
X84775818Y-122027189D01*
X84762927Y-122084070D01*
X84741154Y-122140345D01*
X84710487Y-122191819D01*
X84667818Y-122239859D01*
X84611400Y-122284815D01*
X84564514Y-122309689D01*
X84512767Y-122324800D01*
X84454963Y-122330000D01*
X84146179Y-122330000D01*
X84127607Y-122327609D01*
X84116809Y-122321634D01*
X84110187Y-122312259D01*
X84107955Y-122300690D01*
X84110229Y-122288608D01*
X84116809Y-122279441D01*
X84127575Y-122273694D01*
X84146179Y-122271381D01*
X84194661Y-122271381D01*
X84252058Y-122271381D01*
X84460397Y-122271381D01*
X84507171Y-122266258D01*
X84552065Y-122250831D01*
X84596013Y-122224303D01*
X84635161Y-122190284D01*
X84666591Y-122152736D01*
X84690963Y-122111341D01*
X84715033Y-122044839D01*
X84722714Y-121981343D01*
X84722714Y-121877601D01*
X84718258Y-121826261D01*
X84705617Y-121782712D01*
X84676255Y-121724044D01*
X84635947Y-121667369D01*
X84607078Y-121639788D01*
X84563529Y-121612414D01*
X84514004Y-121593769D01*
X84460397Y-121587501D01*
X84252058Y-121587501D01*
X84252058Y-122271381D01*
X84194661Y-122271381D01*
X84194661Y-121587501D01*
X84146179Y-121587501D01*
X84127568Y-121585204D01*
X84116809Y-121579502D01*
X84110227Y-121570286D01*
X84107955Y-121558192D01*
X84110229Y-121546109D01*
X84116809Y-121536943D01*
X84127575Y-121531196D01*
X84146179Y-121528883D01*
X84454963Y-121528883D01*
X84502510Y-121532335D01*
G37*
G36*
X85317290Y-121722545D02*
G01*
X85377887Y-121740082D01*
X85431745Y-121768701D01*
X85479989Y-121808968D01*
X85519153Y-121857859D01*
X85547042Y-121913176D01*
X85564002Y-121976191D01*
X85569443Y-122048632D01*
X84984726Y-122048632D01*
X84996545Y-122102530D01*
X85016016Y-122149607D01*
X85043020Y-122190912D01*
X85077965Y-122227173D01*
X85118833Y-122256441D01*
X85164136Y-122277436D01*
X85214711Y-122290352D01*
X85271650Y-122294829D01*
X85336216Y-122289578D01*
X85406167Y-122273091D01*
X85471949Y-122246829D01*
X85520961Y-122215450D01*
X85533941Y-122207192D01*
X85543492Y-122204947D01*
X85553670Y-122207095D01*
X85562665Y-122213740D01*
X85568804Y-122223272D01*
X85570847Y-122234378D01*
X85568306Y-122245690D01*
X85559918Y-122257459D01*
X85535899Y-122277909D01*
X85498470Y-122299764D01*
X85443414Y-122322978D01*
X85358539Y-122345849D01*
X85271650Y-122353447D01*
X85199440Y-122347116D01*
X85135263Y-122328788D01*
X85077594Y-122298767D01*
X85025331Y-122256421D01*
X84981766Y-122204786D01*
X84951299Y-122149136D01*
X84932937Y-122088520D01*
X84926657Y-122021582D01*
X84929690Y-121990013D01*
X84985397Y-121990013D01*
X85511435Y-121990013D01*
X85493622Y-121929825D01*
X85463876Y-121878621D01*
X85421554Y-121834858D01*
X85370350Y-121801823D01*
X85313198Y-121781926D01*
X85248386Y-121775080D01*
X85183576Y-121781857D01*
X85126547Y-121801527D01*
X85075584Y-121834125D01*
X85033531Y-121877486D01*
X85003638Y-121928898D01*
X84985397Y-121990013D01*
X84929690Y-121990013D01*
X84932498Y-121960793D01*
X84949634Y-121905401D01*
X84978194Y-121854180D01*
X85019225Y-121806282D01*
X85068173Y-121767043D01*
X85121954Y-121739249D01*
X85181568Y-121722305D01*
X85248386Y-121716461D01*
X85317290Y-121722545D01*
G37*
G36*
X86287761Y-121775080D02*
G01*
X86290097Y-121756332D01*
X86295943Y-121745282D01*
X86305209Y-121738314D01*
X86316460Y-121736001D01*
X86328307Y-121738269D01*
X86337587Y-121744916D01*
X86343444Y-121755744D01*
X86345830Y-121775019D01*
X86345830Y-121873510D01*
X86343482Y-121892208D01*
X86337648Y-121903002D01*
X86328364Y-121909598D01*
X86316460Y-121911856D01*
X86305705Y-121909961D01*
X86296981Y-121904406D01*
X86291065Y-121895316D01*
X86287822Y-121880043D01*
X86281425Y-121854885D01*
X86267667Y-121832784D01*
X86245446Y-121812998D01*
X86206351Y-121792787D01*
X86157701Y-121779787D01*
X86097191Y-121775080D01*
X86033999Y-121780054D01*
X85985147Y-121793563D01*
X85947592Y-121814220D01*
X85924048Y-121836040D01*
X85911347Y-121857710D01*
X85907292Y-121880104D01*
X85912160Y-121905009D01*
X85927194Y-121927570D01*
X85955102Y-121948797D01*
X85995636Y-121964035D01*
X86079422Y-121978290D01*
X86189647Y-121993785D01*
X86245446Y-122007721D01*
X86287698Y-122026789D01*
X86320029Y-122048988D01*
X86344120Y-122074155D01*
X86362419Y-122103730D01*
X86373065Y-122134081D01*
X86376605Y-122165868D01*
X86369246Y-122211561D01*
X86346715Y-122254510D01*
X86306202Y-122296294D01*
X86270035Y-122319736D01*
X86224935Y-122337589D01*
X86168999Y-122349222D01*
X86099938Y-122353447D01*
X86032261Y-122348669D01*
X85973484Y-122335052D01*
X85922192Y-122313278D01*
X85877250Y-122283471D01*
X85874502Y-122313574D01*
X85864549Y-122325237D01*
X85848551Y-122330000D01*
X85837215Y-122327799D01*
X85828035Y-122321268D01*
X85822195Y-122310679D01*
X85819853Y-122292386D01*
X85819853Y-122176127D01*
X85822102Y-122157795D01*
X85827669Y-122147245D01*
X85836691Y-122140754D01*
X85848551Y-122138513D01*
X85859928Y-122140618D01*
X85869373Y-122146878D01*
X85875697Y-122156422D01*
X85877922Y-122169227D01*
X85882014Y-122197983D01*
X85893614Y-122220640D01*
X85922956Y-122248809D01*
X85969818Y-122273824D01*
X86025505Y-122289165D01*
X86097862Y-122294829D01*
X86171748Y-122289316D01*
X86225749Y-122274738D01*
X86264558Y-122253124D01*
X86296788Y-122222472D01*
X86313865Y-122193432D01*
X86319207Y-122164769D01*
X86313335Y-122132243D01*
X86295688Y-122104183D01*
X86263886Y-122079223D01*
X86225121Y-122061659D01*
X86172006Y-122046938D01*
X86100915Y-122036175D01*
X86001829Y-122022073D01*
X85947592Y-122007416D01*
X85905702Y-121984735D01*
X85875174Y-121953988D01*
X85855596Y-121916689D01*
X85849223Y-121877356D01*
X85853662Y-121842609D01*
X85866673Y-121812103D01*
X85888761Y-121784717D01*
X85921641Y-121759937D01*
X85971603Y-121736293D01*
X86028711Y-121721602D01*
X86094443Y-121716461D01*
X86171735Y-121723547D01*
X86235251Y-121743422D01*
X86287761Y-121775080D01*
G37*
G36*
X86965779Y-121442909D02*
G01*
X86965779Y-121591409D01*
X86881088Y-121591409D01*
X86881088Y-121442909D01*
X86965779Y-121442909D01*
G37*
G36*
X86967855Y-121736001D02*
G01*
X86967855Y-122271381D01*
X87193230Y-122271381D01*
X87212472Y-122273718D01*
X87223272Y-122279441D01*
X87229899Y-122288613D01*
X87232187Y-122300690D01*
X87229942Y-122312254D01*
X87223272Y-122321634D01*
X87212438Y-122327585D01*
X87193230Y-122330000D01*
X86685022Y-122330000D01*
X86666397Y-122327607D01*
X86655591Y-122321634D01*
X86648969Y-122312259D01*
X86646737Y-122300690D01*
X86649012Y-122288608D01*
X86655591Y-122279441D01*
X86666364Y-122273696D01*
X86685022Y-122271381D01*
X86910458Y-122271381D01*
X86910458Y-121794619D01*
X86743091Y-121794619D01*
X86724404Y-121792270D01*
X86713354Y-121786376D01*
X86706439Y-121777048D01*
X86704134Y-121765676D01*
X86706395Y-121753656D01*
X86712988Y-121744305D01*
X86723867Y-121738398D01*
X86743091Y-121736001D01*
X86967855Y-121736001D01*
G37*
G36*
X87788149Y-121721537D02*
G01*
X87839109Y-121736362D01*
X87885878Y-121760895D01*
X87929241Y-121795830D01*
X87969617Y-121842552D01*
X87969617Y-121736001D01*
X88104195Y-121736001D01*
X88122830Y-121738349D01*
X88133565Y-121744183D01*
X88140212Y-121753463D01*
X88142480Y-121765310D01*
X88140235Y-121776874D01*
X88133565Y-121786254D01*
X88122811Y-121792224D01*
X88104195Y-121794619D01*
X88027015Y-121794619D01*
X88027015Y-122367735D01*
X88020693Y-122422764D01*
X88002407Y-122470256D01*
X87981912Y-122499254D01*
X87947758Y-122532355D01*
X87909498Y-122560991D01*
X87878087Y-122578150D01*
X87843718Y-122588011D01*
X87794068Y-122591828D01*
X87631463Y-122591828D01*
X87612846Y-122589546D01*
X87602093Y-122583890D01*
X87595508Y-122574799D01*
X87593239Y-122562885D01*
X87595498Y-122550854D01*
X87602093Y-122541453D01*
X87612879Y-122535569D01*
X87631463Y-122533210D01*
X87796144Y-122533210D01*
X87844446Y-122526662D01*
X87887308Y-122507320D01*
X87923804Y-122476273D01*
X87954596Y-122431849D01*
X87965549Y-122400832D01*
X87969617Y-122359003D01*
X87969617Y-122187545D01*
X87929203Y-122234576D01*
X87885819Y-122269715D01*
X87839050Y-122294375D01*
X87788112Y-122309270D01*
X87731908Y-122314368D01*
X87674678Y-122308850D01*
X87622309Y-122292628D01*
X87573667Y-122265542D01*
X87527965Y-122226563D01*
X87490208Y-122180038D01*
X87463713Y-122129891D01*
X87447712Y-122075284D01*
X87442236Y-122015048D01*
X87500305Y-122015048D01*
X87504745Y-122064261D01*
X87517675Y-122108526D01*
X87539006Y-122148834D01*
X87569303Y-122185896D01*
X87606024Y-122216812D01*
X87645333Y-122238374D01*
X87687882Y-122251331D01*
X87734595Y-122255750D01*
X87781338Y-122251334D01*
X87823961Y-122238381D01*
X87863384Y-122216818D01*
X87900252Y-122185896D01*
X87930726Y-122148812D01*
X87952166Y-122108497D01*
X87965157Y-122064241D01*
X87969617Y-122015048D01*
X87965153Y-121965884D01*
X87952157Y-121921715D01*
X87930717Y-121881535D01*
X87900252Y-121844628D01*
X87863403Y-121813854D01*
X87823985Y-121792382D01*
X87781354Y-121779480D01*
X87734595Y-121775080D01*
X87687885Y-121779502D01*
X87645338Y-121792469D01*
X87606027Y-121814049D01*
X87569303Y-121844994D01*
X87538971Y-121882035D01*
X87517645Y-121922212D01*
X87504734Y-121966224D01*
X87500305Y-122015048D01*
X87442236Y-122015048D01*
X87447716Y-121954842D01*
X87463722Y-121900321D01*
X87490216Y-121850309D01*
X87527965Y-121803961D01*
X87573649Y-121765131D01*
X87622285Y-121738136D01*
X87674662Y-121721964D01*
X87731908Y-121716461D01*
X87788149Y-121721537D01*
G37*
G36*
X88430382Y-121736001D02*
G01*
X88430382Y-121821974D01*
X88490911Y-121768900D01*
X88539009Y-121739298D01*
X88589720Y-121722351D01*
X88648307Y-121716461D01*
X88711540Y-121723599D01*
X88767864Y-121744488D01*
X88803156Y-121770593D01*
X88837229Y-121812510D01*
X88860787Y-121861348D01*
X88868309Y-121909841D01*
X88868309Y-122271381D01*
X88916791Y-122271381D01*
X88935386Y-122273697D01*
X88946100Y-122279441D01*
X88952727Y-122288613D01*
X88955015Y-122300690D01*
X88952770Y-122312254D01*
X88946100Y-122321634D01*
X88935353Y-122327607D01*
X88916791Y-122330000D01*
X88763101Y-122330000D01*
X88743884Y-122327587D01*
X88732998Y-122321634D01*
X88726377Y-122312259D01*
X88724145Y-122300690D01*
X88726419Y-122288608D01*
X88732998Y-122279441D01*
X88743851Y-122273716D01*
X88763101Y-122271381D01*
X88810912Y-122271381D01*
X88810912Y-121919794D01*
X88805922Y-121881192D01*
X88791298Y-121847378D01*
X88766460Y-121817090D01*
X88734561Y-121794288D01*
X88695607Y-121780123D01*
X88647636Y-121775080D01*
X88593543Y-121780909D01*
X88549206Y-121797367D01*
X88505468Y-121829918D01*
X88430382Y-121907948D01*
X88430382Y-122271381D01*
X88495289Y-122271381D01*
X88513937Y-122273698D01*
X88524659Y-122279441D01*
X88531286Y-122288613D01*
X88533574Y-122300690D01*
X88531329Y-122312254D01*
X88524659Y-122321634D01*
X88513905Y-122327605D01*
X88495289Y-122330000D01*
X88308138Y-122330000D01*
X88289513Y-122327607D01*
X88278707Y-122321634D01*
X88272085Y-122312259D01*
X88269853Y-122300690D01*
X88272127Y-122288608D01*
X88278707Y-122279441D01*
X88289480Y-122273696D01*
X88308138Y-122271381D01*
X88373046Y-122271381D01*
X88373046Y-121794619D01*
X88324502Y-121794619D01*
X88305911Y-121792275D01*
X88295132Y-121786437D01*
X88288533Y-121777162D01*
X88286278Y-121765310D01*
X88288510Y-121753741D01*
X88295132Y-121744366D01*
X88305931Y-121738391D01*
X88324502Y-121736001D01*
X88430382Y-121736001D01*
G37*
G36*
X89513382Y-121722545D02*
G01*
X89573979Y-121740082D01*
X89627838Y-121768701D01*
X89676081Y-121808968D01*
X89715245Y-121857859D01*
X89743134Y-121913176D01*
X89760094Y-121976191D01*
X89765535Y-122048632D01*
X89180818Y-122048632D01*
X89192637Y-122102530D01*
X89212109Y-122149607D01*
X89239112Y-122190912D01*
X89274057Y-122227173D01*
X89314925Y-122256441D01*
X89360228Y-122277436D01*
X89410803Y-122290352D01*
X89467742Y-122294829D01*
X89532308Y-122289578D01*
X89602259Y-122273091D01*
X89668041Y-122246829D01*
X89717053Y-122215450D01*
X89730033Y-122207192D01*
X89739584Y-122204947D01*
X89749762Y-122207095D01*
X89758757Y-122213740D01*
X89764897Y-122223272D01*
X89766939Y-122234378D01*
X89764399Y-122245690D01*
X89756010Y-122257459D01*
X89731991Y-122277909D01*
X89694562Y-122299764D01*
X89639506Y-122322978D01*
X89554631Y-122345849D01*
X89467742Y-122353447D01*
X89395532Y-122347116D01*
X89331355Y-122328788D01*
X89273686Y-122298767D01*
X89221423Y-122256421D01*
X89177859Y-122204786D01*
X89147391Y-122149136D01*
X89129029Y-122088520D01*
X89122749Y-122021582D01*
X89125782Y-121990013D01*
X89181489Y-121990013D01*
X89707527Y-121990013D01*
X89689714Y-121929825D01*
X89659968Y-121878621D01*
X89617646Y-121834858D01*
X89566442Y-121801823D01*
X89509290Y-121781926D01*
X89444478Y-121775080D01*
X89379668Y-121781857D01*
X89322639Y-121801527D01*
X89271676Y-121834125D01*
X89229623Y-121877486D01*
X89199731Y-121928898D01*
X89181489Y-121990013D01*
X89125782Y-121990013D01*
X89128590Y-121960793D01*
X89145726Y-121905401D01*
X89174286Y-121854180D01*
X89215317Y-121806282D01*
X89264265Y-121767043D01*
X89318047Y-121739249D01*
X89377660Y-121722305D01*
X89444478Y-121716461D01*
X89513382Y-121722545D01*
G37*
G36*
X90575383Y-122271381D02*
G01*
X90651892Y-122271381D01*
X90671133Y-122273718D01*
X90681934Y-122279441D01*
X90688561Y-122288613D01*
X90690849Y-122300690D01*
X90688604Y-122312254D01*
X90681934Y-122321634D01*
X90671100Y-122327585D01*
X90651892Y-122330000D01*
X90517315Y-122330000D01*
X90517315Y-122215511D01*
X90473501Y-122266922D01*
X90426865Y-122305172D01*
X90376983Y-122331893D01*
X90323046Y-122347965D01*
X90263913Y-122353447D01*
X90213089Y-122348905D01*
X90163581Y-122335243D01*
X90114680Y-122311987D01*
X90070685Y-122280611D01*
X90033259Y-122241472D01*
X90001962Y-122193712D01*
X89978755Y-122141284D01*
X89965137Y-122088708D01*
X89960624Y-122035321D01*
X89960655Y-122034954D01*
X90017960Y-122034954D01*
X90022709Y-122088007D01*
X90036539Y-122135761D01*
X90059347Y-122179270D01*
X90091721Y-122219296D01*
X90131033Y-122252783D01*
X90173007Y-122276089D01*
X90218334Y-122290067D01*
X90268004Y-122294829D01*
X90317286Y-122290080D01*
X90362370Y-122276123D01*
X90404233Y-122252822D01*
X90443553Y-122219296D01*
X90475928Y-122179270D01*
X90498735Y-122135761D01*
X90512566Y-122088007D01*
X90517315Y-122034954D01*
X90512549Y-121981540D01*
X90498694Y-121933632D01*
X90475883Y-121890147D01*
X90443553Y-121850307D01*
X90404251Y-121816929D01*
X90362394Y-121793719D01*
X90317302Y-121779812D01*
X90268004Y-121775080D01*
X90218318Y-121779826D01*
X90172984Y-121793754D01*
X90131014Y-121816968D01*
X90091721Y-121850307D01*
X90059391Y-121890147D01*
X90036581Y-121933632D01*
X90022725Y-121981540D01*
X90017960Y-122034954D01*
X89960655Y-122034954D01*
X89965156Y-121981457D01*
X89978793Y-121928761D01*
X90001962Y-121876563D01*
X90033229Y-121828977D01*
X90070653Y-121789827D01*
X90114680Y-121758288D01*
X90163608Y-121734845D01*
X90213335Y-121721053D01*
X90264584Y-121716461D01*
X90322226Y-121721844D01*
X90375418Y-121737705D01*
X90425217Y-121764214D01*
X90472380Y-121802328D01*
X90517315Y-121853726D01*
X90517315Y-121528883D01*
X90440806Y-121528883D01*
X90421622Y-121526519D01*
X90410764Y-121520701D01*
X90404165Y-121511426D01*
X90401910Y-121499574D01*
X90404142Y-121488005D01*
X90410764Y-121478630D01*
X90421642Y-121472675D01*
X90440806Y-121470265D01*
X90575383Y-121470265D01*
X90575383Y-122271381D01*
G37*
G36*
X91934839Y-121794619D02*
G01*
X91934839Y-122271381D01*
X92186898Y-122271381D01*
X92205546Y-122273698D01*
X92216268Y-122279441D01*
X92222895Y-122288613D01*
X92225183Y-122300690D01*
X92222937Y-122312254D01*
X92216268Y-122321634D01*
X92205513Y-122327605D01*
X92186898Y-122330000D01*
X91738101Y-122330000D01*
X91719476Y-122327607D01*
X91708670Y-122321634D01*
X91702048Y-122312259D01*
X91699816Y-122300690D01*
X91702091Y-122288608D01*
X91708670Y-122279441D01*
X91719443Y-122273696D01*
X91738101Y-122271381D01*
X91876770Y-122271381D01*
X91876770Y-121794619D01*
X91752451Y-121794619D01*
X91733812Y-121792258D01*
X91723019Y-121786376D01*
X91716424Y-121776975D01*
X91714166Y-121764944D01*
X91716393Y-121753554D01*
X91723019Y-121744305D01*
X91733819Y-121738378D01*
X91752451Y-121736001D01*
X91876770Y-121736001D01*
X91876770Y-121649234D01*
X91883178Y-121603489D01*
X91902299Y-121562084D01*
X91935511Y-121523571D01*
X91977522Y-121494660D01*
X92028620Y-121476668D01*
X92091277Y-121470265D01*
X92173728Y-121473812D01*
X92264811Y-121484980D01*
X92295881Y-121491892D01*
X92306760Y-121497742D01*
X92312089Y-121506048D01*
X92313965Y-121517098D01*
X92311869Y-121528126D01*
X92305722Y-121536821D01*
X92296444Y-121542492D01*
X92283862Y-121544515D01*
X92265422Y-121542683D01*
X92166095Y-121532005D01*
X92091277Y-121528883D01*
X92042461Y-121533481D01*
X92004671Y-121546070D01*
X91975444Y-121565703D01*
X91952292Y-121592238D01*
X91939172Y-121619855D01*
X91934839Y-121649478D01*
X91934839Y-121736001D01*
X92203323Y-121736001D01*
X92221891Y-121738378D01*
X92232632Y-121744305D01*
X92239273Y-121753661D01*
X92241547Y-121765676D01*
X92239308Y-121777072D01*
X92232632Y-121786376D01*
X92221898Y-121792257D01*
X92203323Y-121794619D01*
X91934839Y-121794619D01*
G37*
G36*
X92876723Y-121722404D02*
G01*
X92935154Y-121739779D01*
X92988843Y-121768583D01*
X93038695Y-121809701D01*
X93080151Y-121859271D01*
X93109174Y-121912726D01*
X93126678Y-121970978D01*
X93132667Y-122035321D01*
X93126691Y-122099274D01*
X93109208Y-122157285D01*
X93080189Y-122210629D01*
X93038695Y-122260207D01*
X92988843Y-122301325D01*
X92935154Y-122330129D01*
X92876723Y-122347504D01*
X92812281Y-122353447D01*
X92747112Y-122347457D01*
X92688282Y-122329976D01*
X92634478Y-122301055D01*
X92584769Y-122259841D01*
X92543432Y-122210102D01*
X92514545Y-122156751D01*
X92497160Y-122098907D01*
X92491224Y-122035321D01*
X92491258Y-122034954D01*
X92548621Y-122034954D01*
X92553484Y-122086732D01*
X92567741Y-122133916D01*
X92591457Y-122177519D01*
X92625436Y-122218258D01*
X92666249Y-122251993D01*
X92710329Y-122275650D01*
X92758430Y-122289937D01*
X92811610Y-122294829D01*
X92864807Y-122289952D01*
X92912904Y-122275715D01*
X92956958Y-122252150D01*
X92997723Y-122218564D01*
X93031685Y-122178007D01*
X93055423Y-122134425D01*
X93069715Y-122087087D01*
X93074598Y-122034954D01*
X93069698Y-121982431D01*
X93055377Y-121934916D01*
X93031636Y-121891348D01*
X92997723Y-121850978D01*
X92956980Y-121817568D01*
X92912932Y-121794113D01*
X92864827Y-121779936D01*
X92811610Y-121775080D01*
X92758413Y-121779955D01*
X92710305Y-121794192D01*
X92666231Y-121817756D01*
X92625436Y-121851345D01*
X92591503Y-121891897D01*
X92567784Y-121935478D01*
X92553501Y-121982818D01*
X92548621Y-122034954D01*
X92491258Y-122034954D01*
X92497172Y-121971346D01*
X92514579Y-121913260D01*
X92543470Y-121859798D01*
X92584769Y-121810068D01*
X92634478Y-121768853D01*
X92688282Y-121739932D01*
X92747112Y-121722452D01*
X92812281Y-121716461D01*
X92876723Y-121722404D01*
G37*
G36*
X93582501Y-121736001D02*
G01*
X93582501Y-121881448D01*
X93689432Y-121792622D01*
X93750235Y-121752976D01*
X93805664Y-121730936D01*
X93853061Y-121724277D01*
X93886069Y-121728023D01*
X93917586Y-121739298D01*
X93948316Y-121758715D01*
X93984557Y-121792945D01*
X93992402Y-121810861D01*
X93990229Y-121822812D01*
X93983853Y-121832416D01*
X93974301Y-121838789D01*
X93962360Y-121840964D01*
X93950697Y-121838583D01*
X93932990Y-121823562D01*
X93909172Y-121802946D01*
X93891285Y-121791688D01*
X93873363Y-121785013D01*
X93856420Y-121782896D01*
X93817883Y-121789387D01*
X93765928Y-121812510D01*
X93705021Y-121854509D01*
X93582501Y-121956980D01*
X93582501Y-122271381D01*
X93836636Y-122271381D01*
X93855877Y-122273718D01*
X93866678Y-122279441D01*
X93873305Y-122288613D01*
X93875593Y-122300690D01*
X93873347Y-122312254D01*
X93866678Y-122321634D01*
X93855844Y-122327585D01*
X93836636Y-122330000D01*
X93386496Y-122330000D01*
X93367851Y-122327654D01*
X93357065Y-122321817D01*
X93350461Y-122312501D01*
X93348211Y-122300690D01*
X93350369Y-122289192D01*
X93356760Y-122279808D01*
X93367345Y-122273824D01*
X93386496Y-122271381D01*
X93525165Y-122271381D01*
X93525165Y-121794619D01*
X93419286Y-121794619D01*
X93400641Y-121792273D01*
X93389855Y-121786437D01*
X93383256Y-121777162D01*
X93381001Y-121765310D01*
X93383166Y-121753717D01*
X93389549Y-121744366D01*
X93400128Y-121738428D01*
X93419286Y-121736001D01*
X93582501Y-121736001D01*
G37*
G36*
X95372313Y-122330000D02*
G01*
X95292384Y-122330000D01*
X95003445Y-121587501D01*
X94959054Y-121587501D01*
X94936461Y-121584387D01*
X94925226Y-121573885D01*
X94920769Y-121558192D01*
X94925226Y-121542500D01*
X94936461Y-121532058D01*
X94959054Y-121528883D01*
X95172827Y-121528883D01*
X95195725Y-121532058D01*
X95206655Y-121542500D01*
X95211113Y-121558192D01*
X95206289Y-121573885D01*
X95195054Y-121584387D01*
X95172827Y-121587501D01*
X95062857Y-121587501D01*
X95329265Y-122271381D01*
X95333356Y-122271381D01*
X95596345Y-121587501D01*
X95487046Y-121587501D01*
X95463843Y-121584387D01*
X95452547Y-121573885D01*
X95448150Y-121558192D01*
X95452913Y-121542500D01*
X95464148Y-121532058D01*
X95487046Y-121528883D01*
X95700209Y-121528883D01*
X95723412Y-121532058D01*
X95734708Y-121542500D01*
X95739166Y-121558192D01*
X95734342Y-121573885D01*
X95723107Y-121584387D01*
X95700209Y-121587501D01*
X95656489Y-121587501D01*
X95372313Y-122330000D01*
G37*
G36*
X95982676Y-122018407D02*
G01*
X95982676Y-122271381D01*
X96088555Y-122271381D01*
X96107796Y-122273718D01*
X96118597Y-122279441D01*
X96125224Y-122288613D01*
X96127512Y-122300690D01*
X96125266Y-122312254D01*
X96118597Y-122321634D01*
X96107763Y-122327585D01*
X96088555Y-122330000D01*
X95848098Y-122330000D01*
X95829526Y-122327609D01*
X95818728Y-122321634D01*
X95812106Y-122312259D01*
X95809874Y-122300690D01*
X95812148Y-122288608D01*
X95818728Y-122279441D01*
X95829494Y-122273694D01*
X95848098Y-122271381D01*
X95925279Y-122271381D01*
X95925279Y-121587501D01*
X95848098Y-121587501D01*
X95829487Y-121585204D01*
X95818728Y-121579502D01*
X95812146Y-121570286D01*
X95809874Y-121558192D01*
X95812148Y-121546109D01*
X95818728Y-121536943D01*
X95829494Y-121531196D01*
X95848098Y-121528883D01*
X96088555Y-121528883D01*
X96107796Y-121531220D01*
X96118597Y-121536943D01*
X96125224Y-121546115D01*
X96127512Y-121558192D01*
X96125226Y-121570280D01*
X96118597Y-121579502D01*
X96107803Y-121585180D01*
X96088555Y-121587501D01*
X95982676Y-121587501D01*
X95982676Y-121941287D01*
X96378899Y-121587501D01*
X96316067Y-121587501D01*
X96296810Y-121585183D01*
X96285964Y-121579502D01*
X96279383Y-121570286D01*
X96277110Y-121558192D01*
X96279385Y-121546109D01*
X96285964Y-121536943D01*
X96296816Y-121531217D01*
X96316067Y-121528883D01*
X96484778Y-121528883D01*
X96503372Y-121531198D01*
X96514087Y-121536943D01*
X96520714Y-121546115D01*
X96523002Y-121558192D01*
X96520716Y-121570280D01*
X96514087Y-121579502D01*
X96503379Y-121585201D01*
X96484778Y-121587501D01*
X96461575Y-121587501D01*
X96145952Y-121869480D01*
X96211664Y-121902467D01*
X96262761Y-121940982D01*
X96306245Y-121990138D01*
X96352215Y-122063347D01*
X96380636Y-122122944D01*
X96442402Y-122271381D01*
X96514148Y-122271381D01*
X96533389Y-122273718D01*
X96544190Y-122279441D01*
X96550817Y-122288613D01*
X96553105Y-122300690D01*
X96550860Y-122312254D01*
X96544190Y-122321634D01*
X96533356Y-122327585D01*
X96514148Y-122330000D01*
X96403506Y-122330000D01*
X96337292Y-122163298D01*
X96287939Y-122064178D01*
X96251831Y-122011629D01*
X96207477Y-121969211D01*
X96156573Y-121936595D01*
X96098142Y-121913321D01*
X95982676Y-122018407D01*
G37*
G36*
X96761078Y-122271381D02*
G01*
X97201692Y-122271381D01*
X97201692Y-122247934D01*
X97204046Y-122228892D01*
X97209874Y-122217953D01*
X97219178Y-122211166D01*
X97231062Y-122208855D01*
X97242316Y-122211131D01*
X97251517Y-122217953D01*
X97257391Y-122228899D01*
X97259760Y-122247934D01*
X97259760Y-122330000D01*
X96705085Y-122330000D01*
X96705085Y-122244026D01*
X96877854Y-122085349D01*
X97045254Y-121924495D01*
X97151133Y-121813243D01*
X97176465Y-121777966D01*
X97190396Y-121750717D01*
X97198403Y-121723451D01*
X97201020Y-121696434D01*
X97194575Y-121649724D01*
X97175238Y-121606714D01*
X97141547Y-121566008D01*
X97099140Y-121534491D01*
X97051865Y-121515758D01*
X96998115Y-121509344D01*
X96949447Y-121514180D01*
X96905407Y-121528349D01*
X96864942Y-121551964D01*
X96830161Y-121583323D01*
X96805467Y-121618276D01*
X96789776Y-121657477D01*
X96779518Y-121678421D01*
X96760406Y-121685198D01*
X96749680Y-121683222D01*
X96740928Y-121677383D01*
X96735057Y-121668783D01*
X96733112Y-121658698D01*
X96740453Y-121624445D01*
X96768954Y-121570343D01*
X96795673Y-121536083D01*
X96828454Y-121506948D01*
X96867995Y-121482660D01*
X96911016Y-121464737D01*
X96954002Y-121454211D01*
X96997444Y-121450725D01*
X97049665Y-121455468D01*
X97097203Y-121469350D01*
X97141047Y-121492372D01*
X97181908Y-121525219D01*
X97216688Y-121565103D01*
X97240436Y-121606077D01*
X97254407Y-121648749D01*
X97259089Y-121693991D01*
X97255752Y-121732478D01*
X97246083Y-121766775D01*
X97229596Y-121799784D01*
X97202058Y-121839193D01*
X97163988Y-121882704D01*
X97090378Y-121957712D01*
X96896503Y-122144669D01*
X96761078Y-122267290D01*
X96761078Y-122271381D01*
G37*
G36*
X98071685Y-121587501D02*
G01*
X98071685Y-122095404D01*
X98066800Y-122146090D01*
X98052423Y-122192612D01*
X98028388Y-122235957D01*
X97993771Y-122276816D01*
X97952463Y-122310678D01*
X97908252Y-122334347D01*
X97860421Y-122348588D01*
X97807964Y-122353447D01*
X97744223Y-122346060D01*
X97680591Y-122323405D01*
X97618604Y-122286176D01*
X97544303Y-122224975D01*
X97544303Y-122012728D01*
X97546649Y-121994083D01*
X97552486Y-121983297D01*
X97561722Y-121976617D01*
X97573002Y-121974382D01*
X97584849Y-121976650D01*
X97594129Y-121983297D01*
X97600011Y-121994090D01*
X97602372Y-122012728D01*
X97601700Y-122197620D01*
X97655556Y-122241212D01*
X97705870Y-122270526D01*
X97757967Y-122288933D01*
X97808025Y-122294829D01*
X97862387Y-122288017D01*
X97913904Y-122267473D01*
X97948514Y-122241314D01*
X97982536Y-122198475D01*
X97999937Y-122165030D01*
X98010189Y-122130602D01*
X98013616Y-122094610D01*
X98013616Y-121587501D01*
X97788852Y-121587501D01*
X97769648Y-121585184D01*
X97758810Y-121579502D01*
X97752228Y-121570286D01*
X97749956Y-121558192D01*
X97752230Y-121546109D01*
X97758810Y-121536943D01*
X97769655Y-121531216D01*
X97788852Y-121528883D01*
X98208278Y-121528883D01*
X98226926Y-121531200D01*
X98237648Y-121536943D01*
X98244275Y-121546115D01*
X98246563Y-121558192D01*
X98244277Y-121570280D01*
X98237648Y-121579502D01*
X98226932Y-121585200D01*
X98208278Y-121587501D01*
X98071685Y-121587501D01*
G37*
G36*
X98724424Y-122087711D02*
G01*
X98658845Y-122087711D01*
X98438171Y-121587501D01*
X98427241Y-121587501D01*
X98427241Y-122271381D01*
X98533121Y-122271381D01*
X98551769Y-122273698D01*
X98562491Y-122279441D01*
X98569118Y-122288613D01*
X98571406Y-122300690D01*
X98569160Y-122312254D01*
X98562491Y-122321634D01*
X98551736Y-122327605D01*
X98533121Y-122330000D01*
X98321362Y-122330000D01*
X98302790Y-122327609D01*
X98291992Y-122321634D01*
X98285370Y-122312259D01*
X98283138Y-122300690D01*
X98285413Y-122288608D01*
X98291992Y-122279441D01*
X98302758Y-122273694D01*
X98321362Y-122271381D01*
X98369844Y-122271381D01*
X98369844Y-121587501D01*
X98333635Y-121587501D01*
X98315025Y-121585204D01*
X98304265Y-121579502D01*
X98297684Y-121570286D01*
X98295411Y-121558192D01*
X98297686Y-121546109D01*
X98304265Y-121536943D01*
X98315031Y-121531196D01*
X98333635Y-121528883D01*
X98474380Y-121528883D01*
X98691634Y-122019445D01*
X98905408Y-121528883D01*
X99046153Y-121528883D01*
X99065394Y-121531220D01*
X99076195Y-121536943D01*
X99082821Y-121546115D01*
X99085109Y-121558192D01*
X99082823Y-121570280D01*
X99076195Y-121579502D01*
X99065400Y-121585180D01*
X99046153Y-121587501D01*
X99010615Y-121587501D01*
X99010615Y-122271381D01*
X99058426Y-122271381D01*
X99077667Y-122273718D01*
X99088468Y-122279441D01*
X99095095Y-122288613D01*
X99097383Y-122300690D01*
X99095137Y-122312254D01*
X99088468Y-122321634D01*
X99077634Y-122327585D01*
X99058426Y-122330000D01*
X98847339Y-122330000D01*
X98828718Y-122327621D01*
X98817663Y-122321634D01*
X98810755Y-122312230D01*
X98808443Y-122300690D01*
X98810718Y-122288608D01*
X98817297Y-122279441D01*
X98828142Y-122273714D01*
X98847339Y-122271381D01*
X98953218Y-122271381D01*
X98953218Y-121587501D01*
X98940945Y-121587501D01*
X98724424Y-122087711D01*
G37*
G36*
X99853253Y-122271381D02*
G01*
X99897644Y-122271381D01*
X99916293Y-122273698D01*
X99927015Y-122279441D01*
X99933641Y-122288613D01*
X99935929Y-122300690D01*
X99933684Y-122312254D01*
X99927015Y-122321634D01*
X99916260Y-122327605D01*
X99897644Y-122330000D01*
X99683871Y-122330000D01*
X99664653Y-122327587D01*
X99653768Y-122321634D01*
X99647146Y-122312259D01*
X99644914Y-122300690D01*
X99647189Y-122288608D01*
X99653768Y-122279441D01*
X99664620Y-122273716D01*
X99683871Y-122271381D01*
X99793169Y-122271381D01*
X99714584Y-122064263D01*
X99337534Y-122064263D01*
X99260293Y-122271381D01*
X99370324Y-122271381D01*
X99388918Y-122273697D01*
X99399633Y-122279441D01*
X99406260Y-122288613D01*
X99408548Y-122300690D01*
X99406303Y-122312254D01*
X99399633Y-122321634D01*
X99388886Y-122327607D01*
X99370324Y-122330000D01*
X99155818Y-122330000D01*
X99137192Y-122327607D01*
X99126386Y-122321634D01*
X99119765Y-122312259D01*
X99117533Y-122300690D01*
X99119807Y-122288608D01*
X99126386Y-122279441D01*
X99137160Y-122273696D01*
X99155818Y-122271381D01*
X99200209Y-122271381D01*
X99298674Y-122005645D01*
X99359394Y-122005645D01*
X99692725Y-122005645D01*
X99534272Y-121587501D01*
X99513084Y-121587501D01*
X99359394Y-122005645D01*
X99298674Y-122005645D01*
X99453611Y-121587501D01*
X99284228Y-121587501D01*
X99265564Y-121585202D01*
X99254797Y-121579502D01*
X99248216Y-121570286D01*
X99245943Y-121558192D01*
X99248218Y-121546109D01*
X99254797Y-121536943D01*
X99265570Y-121531198D01*
X99284228Y-121528883D01*
X99573168Y-121528883D01*
X99853253Y-122271381D01*
G37*
G36*
X100251186Y-122122882D02*
G01*
X100437665Y-122122882D01*
X100234822Y-122499138D01*
X100220486Y-122519341D01*
X100205907Y-122529886D01*
X100190430Y-122533210D01*
X100174597Y-122530210D01*
X100161366Y-122521242D01*
X100152397Y-122508069D01*
X100149398Y-122492299D01*
X100151474Y-122477339D01*
X100251186Y-122122882D01*
G37*
G36*
X102237735Y-121943119D02*
G01*
X101857205Y-121943119D01*
X101857205Y-122271381D01*
X101934385Y-122271381D01*
X101953034Y-122273698D01*
X101963756Y-122279441D01*
X101970382Y-122288613D01*
X101972670Y-122300690D01*
X101970425Y-122312254D01*
X101963756Y-122321634D01*
X101953001Y-122327605D01*
X101934385Y-122330000D01*
X101734961Y-122330000D01*
X101716336Y-122327607D01*
X101705530Y-122321634D01*
X101698908Y-122312259D01*
X101696676Y-122300690D01*
X101698951Y-122288608D01*
X101705530Y-122279441D01*
X101716303Y-122273696D01*
X101734961Y-122271381D01*
X101799808Y-122271381D01*
X101799808Y-121587501D01*
X101764331Y-121587501D01*
X101745074Y-121585183D01*
X101734228Y-121579502D01*
X101727647Y-121570286D01*
X101725375Y-121558192D01*
X101727649Y-121546109D01*
X101734228Y-121536943D01*
X101745081Y-121531217D01*
X101764331Y-121528883D01*
X101934385Y-121528883D01*
X101953034Y-121531200D01*
X101963756Y-121536943D01*
X101970382Y-121546115D01*
X101972670Y-121558192D01*
X101970385Y-121570280D01*
X101963756Y-121579502D01*
X101953040Y-121585200D01*
X101934385Y-121587501D01*
X101857205Y-121587501D01*
X101857205Y-121884501D01*
X102237735Y-121884501D01*
X102237735Y-121587501D01*
X102161226Y-121587501D01*
X102142561Y-121585202D01*
X102131795Y-121579502D01*
X102125213Y-121570286D01*
X102122941Y-121558192D01*
X102125148Y-121546084D01*
X102131489Y-121536943D01*
X102142034Y-121531232D01*
X102161226Y-121528883D01*
X102331280Y-121528883D01*
X102350521Y-121531220D01*
X102361322Y-121536943D01*
X102367949Y-121546115D01*
X102370237Y-121558192D01*
X102367951Y-121570280D01*
X102361322Y-121579502D01*
X102350528Y-121585180D01*
X102331280Y-121587501D01*
X102295804Y-121587501D01*
X102295804Y-122271381D01*
X102360650Y-122271381D01*
X102379299Y-122273698D01*
X102390020Y-122279441D01*
X102396647Y-122288613D01*
X102398935Y-122300690D01*
X102396690Y-122312254D01*
X102390020Y-122321634D01*
X102379266Y-122327605D01*
X102360650Y-122330000D01*
X102161226Y-122330000D01*
X102142601Y-122327607D01*
X102131795Y-122321634D01*
X102125173Y-122312259D01*
X102122941Y-122300690D01*
X102125148Y-122288582D01*
X102131489Y-122279441D01*
X102142034Y-122273730D01*
X102161226Y-122271381D01*
X102237735Y-122271381D01*
X102237735Y-121943119D01*
G37*
G36*
X102945923Y-121723109D02*
G01*
X103001281Y-121741420D01*
X103044774Y-121770134D01*
X103079592Y-121808934D01*
X103099165Y-121848900D01*
X103105591Y-121891400D01*
X103105591Y-122271381D01*
X103182100Y-122271381D01*
X103201341Y-122273718D01*
X103212142Y-122279441D01*
X103218769Y-122288613D01*
X103221057Y-122300690D01*
X103218811Y-122312254D01*
X103212142Y-122321634D01*
X103201308Y-122327585D01*
X103182100Y-122330000D01*
X103047583Y-122330000D01*
X103047583Y-122246957D01*
X102981730Y-122294949D01*
X102915838Y-122327797D01*
X102849088Y-122347051D01*
X102780443Y-122353447D01*
X102713608Y-122346965D01*
X102660904Y-122329051D01*
X102619242Y-122300812D01*
X102586699Y-122262640D01*
X102567653Y-122220172D01*
X102561174Y-122171791D01*
X102561181Y-122171730D01*
X102618571Y-122171730D01*
X102623084Y-122204558D01*
X102636375Y-122233371D01*
X102659176Y-122259291D01*
X102688346Y-122278086D01*
X102726949Y-122290314D01*
X102777756Y-122294829D01*
X102850012Y-122287294D01*
X102916058Y-122265092D01*
X102978420Y-122228304D01*
X103047583Y-122170387D01*
X103047583Y-122043869D01*
X102962159Y-122026772D01*
X102867210Y-122021277D01*
X102785440Y-122028071D01*
X102721591Y-122046643D01*
X102671877Y-122075315D01*
X102641336Y-122105170D01*
X102624222Y-122136890D01*
X102618571Y-122171730D01*
X102561181Y-122171730D01*
X102565768Y-122131951D01*
X102579478Y-122094817D01*
X102602931Y-122059459D01*
X102637683Y-122025307D01*
X102677063Y-121999563D01*
X102726008Y-121979998D01*
X102786542Y-121967273D01*
X102861104Y-121962658D01*
X102947138Y-121967909D01*
X103047583Y-121984274D01*
X103047583Y-121891584D01*
X103042943Y-121862252D01*
X103028886Y-121835339D01*
X103003864Y-121809823D01*
X102972732Y-121791695D01*
X102930165Y-121779612D01*
X102872705Y-121775080D01*
X102800023Y-121783447D01*
X102684822Y-121814952D01*
X102656795Y-121821974D01*
X102646684Y-121819923D01*
X102637988Y-121813670D01*
X102632169Y-121804395D01*
X102630172Y-121792848D01*
X102631971Y-121781998D01*
X102637011Y-121774103D01*
X102654003Y-121764499D01*
X102714192Y-121745587D01*
X102814913Y-121722492D01*
X102875392Y-121716461D01*
X102945923Y-121723109D01*
G37*
G36*
X103809671Y-121720932D02*
G01*
X103861563Y-121734128D01*
X103910676Y-121756090D01*
X103955098Y-121786133D01*
X103991876Y-121822738D01*
X104021685Y-121866488D01*
X104043646Y-121914837D01*
X104056619Y-121964138D01*
X104060947Y-122015048D01*
X104055325Y-122075135D01*
X104038871Y-122129678D01*
X104011550Y-122179872D01*
X103972470Y-122226563D01*
X103925582Y-122265067D01*
X103874373Y-122292214D01*
X103817915Y-122308698D01*
X103754911Y-122314368D01*
X103695084Y-122309232D01*
X103641225Y-122294292D01*
X103592193Y-122269726D01*
X103547146Y-122235008D01*
X103505600Y-122188949D01*
X103505600Y-122533210D01*
X103644940Y-122533210D01*
X103663595Y-122535511D01*
X103674310Y-122541209D01*
X103680939Y-122550430D01*
X103683225Y-122562519D01*
X103680980Y-122574083D01*
X103674310Y-122583463D01*
X103663556Y-122589433D01*
X103644940Y-122591828D01*
X103371022Y-122591828D01*
X103352364Y-122589513D01*
X103341591Y-122583768D01*
X103335011Y-122574601D01*
X103332737Y-122562519D01*
X103335009Y-122550425D01*
X103341591Y-122541209D01*
X103352357Y-122535509D01*
X103371022Y-122533210D01*
X103448203Y-122533210D01*
X103448203Y-122015048D01*
X103505600Y-122015048D01*
X103510172Y-122062966D01*
X103523586Y-122106652D01*
X103545934Y-122147061D01*
X103578018Y-122184858D01*
X103616373Y-122215968D01*
X103658103Y-122237888D01*
X103703942Y-122251183D01*
X103754911Y-122255750D01*
X103805185Y-122251225D01*
X103850590Y-122238027D01*
X103892112Y-122216224D01*
X103930460Y-122185225D01*
X103962494Y-122147614D01*
X103984845Y-122107219D01*
X103998288Y-122063356D01*
X104002878Y-122015048D01*
X103998319Y-121967108D01*
X103984957Y-121923490D01*
X103962719Y-121883233D01*
X103930826Y-121845666D01*
X103892661Y-121814684D01*
X103851153Y-121792860D01*
X103805575Y-121779625D01*
X103754911Y-121775080D01*
X103703945Y-121779650D01*
X103658108Y-121792955D01*
X103616377Y-121814894D01*
X103578018Y-121846032D01*
X103545897Y-121883809D01*
X103523553Y-121924085D01*
X103510160Y-121967517D01*
X103505600Y-122015048D01*
X103448203Y-122015048D01*
X103448203Y-121794619D01*
X103371022Y-121794619D01*
X103352377Y-121792273D01*
X103341591Y-121786437D01*
X103334991Y-121777162D01*
X103332737Y-121765310D01*
X103334969Y-121753741D01*
X103341591Y-121744366D01*
X103352396Y-121738393D01*
X103371022Y-121736001D01*
X103505600Y-121736001D01*
X103505600Y-121841880D01*
X103560032Y-121786121D01*
X103615570Y-121748030D01*
X103655858Y-121730888D01*
X103701728Y-121720201D01*
X103754239Y-121716461D01*
X103809671Y-121720932D01*
G37*
G36*
X104648890Y-121720932D02*
G01*
X104700781Y-121734128D01*
X104749895Y-121756090D01*
X104794316Y-121786133D01*
X104831094Y-121822738D01*
X104860903Y-121866488D01*
X104882864Y-121914837D01*
X104895837Y-121964138D01*
X104900165Y-122015048D01*
X104894543Y-122075135D01*
X104878089Y-122129678D01*
X104850769Y-122179872D01*
X104811688Y-122226563D01*
X104764801Y-122265067D01*
X104713592Y-122292214D01*
X104657133Y-122308698D01*
X104594129Y-122314368D01*
X104534303Y-122309232D01*
X104480444Y-122294292D01*
X104431412Y-122269726D01*
X104386364Y-122235008D01*
X104344818Y-122188949D01*
X104344818Y-122533210D01*
X104484159Y-122533210D01*
X104502813Y-122535511D01*
X104513529Y-122541209D01*
X104520158Y-122550430D01*
X104522444Y-122562519D01*
X104520198Y-122574083D01*
X104513529Y-122583463D01*
X104502774Y-122589433D01*
X104484159Y-122591828D01*
X104210240Y-122591828D01*
X104191582Y-122589513D01*
X104180809Y-122583768D01*
X104174230Y-122574601D01*
X104171955Y-122562519D01*
X104174228Y-122550425D01*
X104180809Y-122541209D01*
X104191576Y-122535509D01*
X104210240Y-122533210D01*
X104287421Y-122533210D01*
X104287421Y-122015048D01*
X104344818Y-122015048D01*
X104349390Y-122062966D01*
X104362805Y-122106652D01*
X104385152Y-122147061D01*
X104417236Y-122184858D01*
X104455592Y-122215968D01*
X104497322Y-122237888D01*
X104543161Y-122251183D01*
X104594129Y-122255750D01*
X104644403Y-122251225D01*
X104689808Y-122238027D01*
X104731330Y-122216224D01*
X104769678Y-122185225D01*
X104801712Y-122147614D01*
X104824064Y-122107219D01*
X104837506Y-122063356D01*
X104842096Y-122015048D01*
X104837538Y-121967108D01*
X104824175Y-121923490D01*
X104801938Y-121883233D01*
X104770045Y-121845666D01*
X104731879Y-121814684D01*
X104690372Y-121792860D01*
X104644793Y-121779625D01*
X104594129Y-121775080D01*
X104543164Y-121779650D01*
X104497326Y-121792955D01*
X104455595Y-121814894D01*
X104417236Y-121846032D01*
X104385115Y-121883809D01*
X104362772Y-121924085D01*
X104349378Y-121967517D01*
X104344818Y-122015048D01*
X104287421Y-122015048D01*
X104287421Y-121794619D01*
X104210240Y-121794619D01*
X104191595Y-121792273D01*
X104180809Y-121786437D01*
X104174210Y-121777162D01*
X104171955Y-121765310D01*
X104174187Y-121753741D01*
X104180809Y-121744366D01*
X104191615Y-121738393D01*
X104210240Y-121736001D01*
X104344818Y-121736001D01*
X104344818Y-121841880D01*
X104399250Y-121786121D01*
X104454788Y-121748030D01*
X104495076Y-121730888D01*
X104540946Y-121720201D01*
X104593457Y-121716461D01*
X104648890Y-121720932D01*
G37*
G36*
X105403977Y-122328717D02*
G01*
X105137569Y-121794619D01*
X105120472Y-121794619D01*
X105101901Y-121792229D01*
X105091102Y-121786254D01*
X105084480Y-121776879D01*
X105082248Y-121765310D01*
X105086645Y-121749312D01*
X105098246Y-121739054D01*
X105120472Y-121736001D01*
X105277643Y-121736001D01*
X105296224Y-121738347D01*
X105306952Y-121744183D01*
X105313598Y-121753463D01*
X105315867Y-121765310D01*
X105313621Y-121776874D01*
X105306952Y-121786254D01*
X105296204Y-121792226D01*
X105277643Y-121794619D01*
X105200401Y-121794619D01*
X105434752Y-122264420D01*
X105665622Y-121794619D01*
X105588442Y-121794619D01*
X105569797Y-121792273D01*
X105559010Y-121786437D01*
X105552411Y-121777162D01*
X105550157Y-121765310D01*
X105552388Y-121753741D01*
X105559010Y-121744366D01*
X105569816Y-121738393D01*
X105588442Y-121736001D01*
X105744879Y-121736001D01*
X105764107Y-121738369D01*
X105774921Y-121744183D01*
X105781568Y-121753463D01*
X105783836Y-121765310D01*
X105778340Y-121782102D01*
X105766067Y-121792177D01*
X105727782Y-121794619D01*
X105364349Y-122533210D01*
X105453864Y-122533210D01*
X105472465Y-122535509D01*
X105483173Y-122541209D01*
X105489802Y-122550430D01*
X105492088Y-122562519D01*
X105489843Y-122574083D01*
X105483173Y-122583463D01*
X105472426Y-122589435D01*
X105453864Y-122591828D01*
X105123220Y-122591828D01*
X105104616Y-122589515D01*
X105093850Y-122583768D01*
X105087271Y-122574601D01*
X105084996Y-122562519D01*
X105087268Y-122550425D01*
X105093850Y-122541209D01*
X105104609Y-122535507D01*
X105123220Y-122533210D01*
X105302922Y-122533210D01*
X105403977Y-122328717D01*
G37*
G36*
X107170304Y-121533063D02*
G01*
X107216305Y-121545004D01*
X107256494Y-121564220D01*
X107291791Y-121590799D01*
X107329835Y-121635496D01*
X107351743Y-121683409D01*
X107359080Y-121736184D01*
X107352383Y-121785160D01*
X107332518Y-121828980D01*
X107298238Y-121869225D01*
X107246362Y-121906543D01*
X107303728Y-121931990D01*
X107346554Y-121960643D01*
X107377520Y-121992212D01*
X107400922Y-122029530D01*
X107414633Y-122068516D01*
X107419225Y-122110059D01*
X107412308Y-122165404D01*
X107391870Y-122215205D01*
X107358242Y-122258411D01*
X107308217Y-122296416D01*
X107269505Y-122315088D01*
X107228852Y-122326237D01*
X107185607Y-122330000D01*
X106756594Y-122330000D01*
X106737969Y-122327607D01*
X106727163Y-122321634D01*
X106720541Y-122312259D01*
X106718309Y-122300690D01*
X106720584Y-122288608D01*
X106727163Y-122279441D01*
X106737936Y-122273696D01*
X106756594Y-122271381D01*
X106833775Y-122271381D01*
X106891172Y-122271381D01*
X107181516Y-122271381D01*
X107234133Y-122265017D01*
X107277808Y-122246835D01*
X107314341Y-122218844D01*
X107339968Y-122186079D01*
X107355954Y-122148891D01*
X107361156Y-122110975D01*
X107353850Y-122068834D01*
X107330748Y-122026406D01*
X107295119Y-121990891D01*
X107246362Y-121964307D01*
X107186974Y-121949132D01*
X107097435Y-121943119D01*
X106891172Y-121943119D01*
X106891172Y-122271381D01*
X106833775Y-122271381D01*
X106833775Y-121884501D01*
X106891172Y-121884501D01*
X107094016Y-121884501D01*
X107156887Y-121878407D01*
X107212901Y-121860687D01*
X107250197Y-121837153D01*
X107277747Y-121805549D01*
X107295393Y-121768434D01*
X107301011Y-121731910D01*
X107295770Y-121698149D01*
X107279597Y-121665485D01*
X107250453Y-121632808D01*
X107214379Y-121608161D01*
X107171085Y-121592903D01*
X107118623Y-121587501D01*
X106891172Y-121587501D01*
X106891172Y-121884501D01*
X106833775Y-121884501D01*
X106833775Y-121587501D01*
X106756594Y-121587501D01*
X106737929Y-121585202D01*
X106727163Y-121579502D01*
X106720581Y-121570286D01*
X106718309Y-121558192D01*
X106720584Y-121546109D01*
X106727163Y-121536943D01*
X106737936Y-121531198D01*
X106756594Y-121528883D01*
X107117280Y-121528883D01*
X107170304Y-121533063D01*
G37*
G36*
X107946240Y-121442909D02*
G01*
X107946240Y-121591409D01*
X107861549Y-121591409D01*
X107861549Y-121442909D01*
X107946240Y-121442909D01*
G37*
G36*
X107948316Y-121736001D02*
G01*
X107948316Y-122271381D01*
X108173691Y-122271381D01*
X108192932Y-122273718D01*
X108203733Y-122279441D01*
X108210360Y-122288613D01*
X108212648Y-122300690D01*
X108210403Y-122312254D01*
X108203733Y-122321634D01*
X108192899Y-122327585D01*
X108173691Y-122330000D01*
X107665483Y-122330000D01*
X107646857Y-122327607D01*
X107636051Y-122321634D01*
X107629430Y-122312259D01*
X107627198Y-122300690D01*
X107629472Y-122288608D01*
X107636051Y-122279441D01*
X107646825Y-122273696D01*
X107665483Y-122271381D01*
X107890919Y-122271381D01*
X107890919Y-121794619D01*
X107723551Y-121794619D01*
X107704864Y-121792270D01*
X107693815Y-121786376D01*
X107686899Y-121777048D01*
X107684595Y-121765676D01*
X107686856Y-121753656D01*
X107693449Y-121744305D01*
X107704327Y-121738398D01*
X107723551Y-121736001D01*
X107948316Y-121736001D01*
G37*
G36*
X108688433Y-121736001D02*
G01*
X108688433Y-121881448D01*
X108795364Y-121792622D01*
X108856167Y-121752976D01*
X108911596Y-121730936D01*
X108958993Y-121724277D01*
X108992001Y-121728023D01*
X109023518Y-121739298D01*
X109054248Y-121758715D01*
X109090488Y-121792945D01*
X109098333Y-121810861D01*
X109096160Y-121822812D01*
X109089785Y-121832416D01*
X109080232Y-121838789D01*
X109068292Y-121840964D01*
X109056629Y-121838583D01*
X109038921Y-121823562D01*
X109015103Y-121802946D01*
X108997217Y-121791688D01*
X108979295Y-121785013D01*
X108962351Y-121782896D01*
X108923815Y-121789387D01*
X108871859Y-121812510D01*
X108810953Y-121854509D01*
X108688433Y-121956980D01*
X108688433Y-122271381D01*
X108942568Y-122271381D01*
X108961809Y-122273718D01*
X108972609Y-122279441D01*
X108979236Y-122288613D01*
X108981524Y-122300690D01*
X108979279Y-122312254D01*
X108972609Y-122321634D01*
X108961775Y-122327585D01*
X108942568Y-122330000D01*
X108492428Y-122330000D01*
X108473783Y-122327654D01*
X108462997Y-122321817D01*
X108456393Y-122312501D01*
X108454143Y-122300690D01*
X108456301Y-122289192D01*
X108462691Y-122279808D01*
X108473277Y-122273824D01*
X108492428Y-122271381D01*
X108631097Y-122271381D01*
X108631097Y-121794619D01*
X108525218Y-121794619D01*
X108506573Y-121792273D01*
X108495786Y-121786437D01*
X108489187Y-121777162D01*
X108486933Y-121765310D01*
X108489098Y-121753717D01*
X108495481Y-121744366D01*
X108506059Y-121738428D01*
X108525218Y-121736001D01*
X108688433Y-121736001D01*
G37*
G36*
X109478497Y-121736001D02*
G01*
X109789968Y-121736001D01*
X109808603Y-121738349D01*
X109819338Y-121744183D01*
X109825985Y-121753463D01*
X109828253Y-121765310D01*
X109826008Y-121776874D01*
X109819338Y-121786254D01*
X109808584Y-121792224D01*
X109789968Y-121794619D01*
X109478497Y-121794619D01*
X109478497Y-122177653D01*
X109482932Y-122209160D01*
X109495988Y-122236651D01*
X109518431Y-122261245D01*
X109547017Y-122278936D01*
X109585141Y-122290530D01*
X109635607Y-122294829D01*
X109694565Y-122290595D01*
X109761270Y-122277060D01*
X109824638Y-122256848D01*
X109866477Y-122236882D01*
X109889009Y-122227845D01*
X109899139Y-122229977D01*
X109908121Y-122236577D01*
X109914310Y-122246105D01*
X109916364Y-122257154D01*
X109914261Y-122267011D01*
X109907510Y-122276693D01*
X109876808Y-122297374D01*
X109801264Y-122326580D01*
X109717298Y-122346958D01*
X109639698Y-122353447D01*
X109574315Y-122347618D01*
X109521923Y-122331462D01*
X109479841Y-122306064D01*
X109446888Y-122270897D01*
X109427261Y-122229058D01*
X109420429Y-122178386D01*
X109420429Y-121794619D01*
X109314549Y-121794619D01*
X109295911Y-121792258D01*
X109285118Y-121786376D01*
X109278523Y-121776975D01*
X109276264Y-121764944D01*
X109278492Y-121753554D01*
X109285118Y-121744305D01*
X109295917Y-121738378D01*
X109314549Y-121736001D01*
X109420429Y-121736001D01*
X109420429Y-121567046D01*
X109422775Y-121548465D01*
X109428611Y-121537737D01*
X109437842Y-121531105D01*
X109449127Y-121528883D01*
X109460979Y-121531138D01*
X109470254Y-121537737D01*
X109476135Y-121548471D01*
X109478497Y-121567046D01*
X109478497Y-121736001D01*
G37*
G36*
X110246641Y-121470265D02*
G01*
X110246641Y-121825638D01*
X110302766Y-121772337D01*
X110351482Y-121741008D01*
X110403980Y-121722759D01*
X110463895Y-121716461D01*
X110527552Y-121722728D01*
X110577590Y-121740031D01*
X110620061Y-121769473D01*
X110655809Y-121812510D01*
X110673490Y-121846157D01*
X110683825Y-121880241D01*
X110687255Y-121915336D01*
X110687255Y-122271381D01*
X110751491Y-122271381D01*
X110770673Y-122273732D01*
X110781167Y-122279441D01*
X110787508Y-122288582D01*
X110789715Y-122300690D01*
X110787550Y-122312284D01*
X110781167Y-122321634D01*
X110770639Y-122327570D01*
X110751491Y-122330000D01*
X110565012Y-122330000D01*
X110545794Y-122327587D01*
X110534909Y-122321634D01*
X110528287Y-122312259D01*
X110526055Y-122300690D01*
X110528329Y-122288608D01*
X110534909Y-122279441D01*
X110545761Y-122273716D01*
X110565012Y-122271381D01*
X110629187Y-122271381D01*
X110629187Y-121920282D01*
X110624124Y-121880866D01*
X110609367Y-121846775D01*
X110584429Y-121816662D01*
X110552232Y-121794329D01*
X110511495Y-121780192D01*
X110459804Y-121775080D01*
X110418838Y-121778700D01*
X110383425Y-121789062D01*
X110352520Y-121805854D01*
X110316548Y-121836269D01*
X110246641Y-121909047D01*
X110246641Y-122271381D01*
X110311549Y-122271381D01*
X110330197Y-122273698D01*
X110340919Y-122279441D01*
X110347546Y-122288613D01*
X110349834Y-122300690D01*
X110347589Y-122312254D01*
X110340919Y-122321634D01*
X110330164Y-122327605D01*
X110311549Y-122330000D01*
X110124398Y-122330000D01*
X110105772Y-122327607D01*
X110094966Y-122321634D01*
X110088345Y-122312259D01*
X110086113Y-122300690D01*
X110088387Y-122288608D01*
X110094966Y-122279441D01*
X110105740Y-122273696D01*
X110124398Y-122271381D01*
X110189305Y-122271381D01*
X110189305Y-121528883D01*
X110112063Y-121528883D01*
X110093472Y-121526539D01*
X110082693Y-121520701D01*
X110076094Y-121511426D01*
X110073839Y-121499574D01*
X110076071Y-121488005D01*
X110082693Y-121478630D01*
X110093492Y-121472655D01*
X110112063Y-121470265D01*
X110246641Y-121470265D01*
G37*
G36*
X111555844Y-122271381D02*
G01*
X111632353Y-122271381D01*
X111651594Y-122273718D01*
X111662395Y-122279441D01*
X111669022Y-122288613D01*
X111671310Y-122300690D01*
X111669064Y-122312254D01*
X111662395Y-122321634D01*
X111651561Y-122327585D01*
X111632353Y-122330000D01*
X111497775Y-122330000D01*
X111497775Y-122215511D01*
X111453962Y-122266922D01*
X111407325Y-122305172D01*
X111357444Y-122331893D01*
X111303507Y-122347965D01*
X111244373Y-122353447D01*
X111193550Y-122348905D01*
X111144042Y-122335243D01*
X111095141Y-122311987D01*
X111051146Y-122280611D01*
X111013720Y-122241472D01*
X110982423Y-122193712D01*
X110959216Y-122141284D01*
X110945597Y-122088708D01*
X110941085Y-122035321D01*
X110941116Y-122034954D01*
X110998421Y-122034954D01*
X111003170Y-122088007D01*
X111017000Y-122135761D01*
X111039808Y-122179270D01*
X111072182Y-122219296D01*
X111111493Y-122252783D01*
X111153468Y-122276089D01*
X111198795Y-122290067D01*
X111248464Y-122294829D01*
X111297746Y-122290080D01*
X111342831Y-122276123D01*
X111384694Y-122252822D01*
X111424014Y-122219296D01*
X111456388Y-122179270D01*
X111479196Y-122135761D01*
X111493026Y-122088007D01*
X111497775Y-122034954D01*
X111493010Y-121981540D01*
X111479155Y-121933632D01*
X111456344Y-121890147D01*
X111424014Y-121850307D01*
X111384712Y-121816929D01*
X111342855Y-121793719D01*
X111297763Y-121779812D01*
X111248464Y-121775080D01*
X111198778Y-121779826D01*
X111153444Y-121793754D01*
X111111475Y-121816968D01*
X111072182Y-121850307D01*
X111039852Y-121890147D01*
X111017041Y-121933632D01*
X111003186Y-121981540D01*
X110998421Y-122034954D01*
X110941116Y-122034954D01*
X110945617Y-121981457D01*
X110959253Y-121928761D01*
X110982423Y-121876563D01*
X111013690Y-121828977D01*
X111051114Y-121789827D01*
X111095141Y-121758288D01*
X111144068Y-121734845D01*
X111193796Y-121721053D01*
X111245045Y-121716461D01*
X111302686Y-121721844D01*
X111355878Y-121737705D01*
X111405677Y-121764214D01*
X111452841Y-121802328D01*
X111497775Y-121853726D01*
X111497775Y-121528883D01*
X111421266Y-121528883D01*
X111402082Y-121526519D01*
X111391224Y-121520701D01*
X111384625Y-121511426D01*
X111382370Y-121499574D01*
X111384602Y-121488005D01*
X111391224Y-121478630D01*
X111402102Y-121472675D01*
X111421266Y-121470265D01*
X111555844Y-121470265D01*
X111555844Y-122271381D01*
G37*
G36*
X112177326Y-121723109D02*
G01*
X112232683Y-121741420D01*
X112276177Y-121770134D01*
X112310995Y-121808934D01*
X112330567Y-121848900D01*
X112336994Y-121891400D01*
X112336994Y-122271381D01*
X112413503Y-122271381D01*
X112432744Y-122273718D01*
X112443545Y-122279441D01*
X112450171Y-122288613D01*
X112452459Y-122300690D01*
X112450214Y-122312254D01*
X112443545Y-122321634D01*
X112432710Y-122327585D01*
X112413503Y-122330000D01*
X112278986Y-122330000D01*
X112278986Y-122246957D01*
X112213133Y-122294949D01*
X112147240Y-122327797D01*
X112080490Y-122347051D01*
X112011845Y-122353447D01*
X111945010Y-122346965D01*
X111892307Y-122329051D01*
X111850645Y-122300812D01*
X111818102Y-122262640D01*
X111799055Y-122220172D01*
X111792576Y-122171791D01*
X111792583Y-122171730D01*
X111849973Y-122171730D01*
X111854486Y-122204558D01*
X111867777Y-122233371D01*
X111890579Y-122259291D01*
X111919749Y-122278086D01*
X111958352Y-122290314D01*
X112009159Y-122294829D01*
X112081415Y-122287294D01*
X112147461Y-122265092D01*
X112209822Y-122228304D01*
X112278986Y-122170387D01*
X112278986Y-122043869D01*
X112193562Y-122026772D01*
X112098613Y-122021277D01*
X112016843Y-122028071D01*
X111952994Y-122046643D01*
X111903279Y-122075315D01*
X111872738Y-122105170D01*
X111855625Y-122136890D01*
X111849973Y-122171730D01*
X111792583Y-122171730D01*
X111797171Y-122131951D01*
X111810881Y-122094817D01*
X111834334Y-122059459D01*
X111869085Y-122025307D01*
X111908465Y-121999563D01*
X111957411Y-121979998D01*
X112017944Y-121967273D01*
X112092506Y-121962658D01*
X112178541Y-121967909D01*
X112278986Y-121984274D01*
X112278986Y-121891584D01*
X112274346Y-121862252D01*
X112260289Y-121835339D01*
X112235266Y-121809823D01*
X112204135Y-121791695D01*
X112161568Y-121779612D01*
X112104108Y-121775080D01*
X112031426Y-121783447D01*
X111916224Y-121814952D01*
X111888197Y-121821974D01*
X111878087Y-121819923D01*
X111869391Y-121813670D01*
X111863571Y-121804395D01*
X111861575Y-121792848D01*
X111863374Y-121781998D01*
X111868414Y-121774103D01*
X111885406Y-121764499D01*
X111945594Y-121745587D01*
X112046315Y-121722492D01*
X112106795Y-121716461D01*
X112177326Y-121723109D01*
G37*
G36*
X112956943Y-122328717D02*
G01*
X112690535Y-121794619D01*
X112673438Y-121794619D01*
X112654866Y-121792229D01*
X112644068Y-121786254D01*
X112637446Y-121776879D01*
X112635214Y-121765310D01*
X112639610Y-121749312D01*
X112651212Y-121739054D01*
X112673438Y-121736001D01*
X112830608Y-121736001D01*
X112849190Y-121738347D01*
X112859918Y-121744183D01*
X112866564Y-121753463D01*
X112868832Y-121765310D01*
X112866587Y-121776874D01*
X112859918Y-121786254D01*
X112849170Y-121792226D01*
X112830608Y-121794619D01*
X112753367Y-121794619D01*
X112987718Y-122264420D01*
X113218588Y-121794619D01*
X113141407Y-121794619D01*
X113122762Y-121792273D01*
X113111976Y-121786437D01*
X113105377Y-121777162D01*
X113103122Y-121765310D01*
X113105354Y-121753741D01*
X113111976Y-121744366D01*
X113122782Y-121738393D01*
X113141407Y-121736001D01*
X113297845Y-121736001D01*
X113317073Y-121738369D01*
X113327887Y-121744183D01*
X113334534Y-121753463D01*
X113336802Y-121765310D01*
X113331306Y-121782102D01*
X113319033Y-121792177D01*
X113280748Y-121794619D01*
X112917315Y-122533210D01*
X113006830Y-122533210D01*
X113025431Y-122535509D01*
X113036139Y-122541209D01*
X113042768Y-122550430D01*
X113045054Y-122562519D01*
X113042808Y-122574083D01*
X113036139Y-122583463D01*
X113025391Y-122589435D01*
X113006830Y-122591828D01*
X112676186Y-122591828D01*
X112657582Y-122589515D01*
X112646816Y-122583768D01*
X112640236Y-122574601D01*
X112637962Y-122562519D01*
X112640234Y-122550425D01*
X112646816Y-122541209D01*
X112657575Y-122535507D01*
X112676186Y-122533210D01*
X112855887Y-122533210D01*
X112956943Y-122328717D01*
G37*
G36*
X114714373Y-121532335D02*
G01*
X114758207Y-121542437D01*
X114798961Y-121559047D01*
X114853418Y-121592543D01*
X114890186Y-121627496D01*
X114938088Y-121695110D01*
X114972191Y-121765127D01*
X114986712Y-121820672D01*
X114991974Y-121889752D01*
X114991974Y-121969131D01*
X114987681Y-122027189D01*
X114974790Y-122084070D01*
X114953018Y-122140345D01*
X114922350Y-122191819D01*
X114879681Y-122239859D01*
X114823264Y-122284815D01*
X114776377Y-122309689D01*
X114724630Y-122324800D01*
X114666826Y-122330000D01*
X114358042Y-122330000D01*
X114339470Y-122327609D01*
X114328672Y-122321634D01*
X114322050Y-122312259D01*
X114319818Y-122300690D01*
X114322093Y-122288608D01*
X114328672Y-122279441D01*
X114339438Y-122273694D01*
X114358042Y-122271381D01*
X114406524Y-122271381D01*
X114463921Y-122271381D01*
X114672260Y-122271381D01*
X114719034Y-122266258D01*
X114763928Y-122250831D01*
X114807876Y-122224303D01*
X114847024Y-122190284D01*
X114878455Y-122152736D01*
X114902826Y-122111341D01*
X114926896Y-122044839D01*
X114934577Y-121981343D01*
X114934577Y-121877601D01*
X114930122Y-121826261D01*
X114917480Y-121782712D01*
X114888119Y-121724044D01*
X114847810Y-121667369D01*
X114818942Y-121639788D01*
X114775392Y-121612414D01*
X114725867Y-121593769D01*
X114672260Y-121587501D01*
X114463921Y-121587501D01*
X114463921Y-122271381D01*
X114406524Y-122271381D01*
X114406524Y-121587501D01*
X114358042Y-121587501D01*
X114339431Y-121585204D01*
X114328672Y-121579502D01*
X114322091Y-121570286D01*
X114319818Y-121558192D01*
X114322093Y-121546109D01*
X114328672Y-121536943D01*
X114339438Y-121531196D01*
X114358042Y-121528883D01*
X114666826Y-121528883D01*
X114714373Y-121532335D01*
G37*
G36*
X115534199Y-121723109D02*
G01*
X115589557Y-121741420D01*
X115633051Y-121770134D01*
X115667868Y-121808934D01*
X115687441Y-121848900D01*
X115693867Y-121891400D01*
X115693867Y-122271381D01*
X115770376Y-122271381D01*
X115789617Y-122273718D01*
X115800418Y-122279441D01*
X115807045Y-122288613D01*
X115809333Y-122300690D01*
X115807088Y-122312254D01*
X115800418Y-122321634D01*
X115789584Y-122327585D01*
X115770376Y-122330000D01*
X115635860Y-122330000D01*
X115635860Y-122246957D01*
X115570006Y-122294949D01*
X115504114Y-122327797D01*
X115437364Y-122347051D01*
X115368719Y-122353447D01*
X115301884Y-122346965D01*
X115249181Y-122329051D01*
X115207519Y-122300812D01*
X115174976Y-122262640D01*
X115155929Y-122220172D01*
X115149450Y-122171791D01*
X115149457Y-122171730D01*
X115206847Y-122171730D01*
X115211360Y-122204558D01*
X115224651Y-122233371D01*
X115247452Y-122259291D01*
X115276623Y-122278086D01*
X115315226Y-122290314D01*
X115366032Y-122294829D01*
X115438288Y-122287294D01*
X115504335Y-122265092D01*
X115566696Y-122228304D01*
X115635860Y-122170387D01*
X115635860Y-122043869D01*
X115550436Y-122026772D01*
X115455486Y-122021277D01*
X115373716Y-122028071D01*
X115309868Y-122046643D01*
X115260153Y-122075315D01*
X115229612Y-122105170D01*
X115212499Y-122136890D01*
X115206847Y-122171730D01*
X115149457Y-122171730D01*
X115154045Y-122131951D01*
X115167754Y-122094817D01*
X115191208Y-122059459D01*
X115225959Y-122025307D01*
X115265339Y-121999563D01*
X115314285Y-121979998D01*
X115374818Y-121967273D01*
X115449380Y-121962658D01*
X115535415Y-121967909D01*
X115635860Y-121984274D01*
X115635860Y-121891584D01*
X115631220Y-121862252D01*
X115617163Y-121835339D01*
X115592140Y-121809823D01*
X115561009Y-121791695D01*
X115518442Y-121779612D01*
X115460982Y-121775080D01*
X115388300Y-121783447D01*
X115273098Y-121814952D01*
X115245071Y-121821974D01*
X115234961Y-121819923D01*
X115226264Y-121813670D01*
X115220445Y-121804395D01*
X115218449Y-121792848D01*
X115220248Y-121781998D01*
X115225287Y-121774103D01*
X115242280Y-121764499D01*
X115302468Y-121745587D01*
X115403189Y-121722492D01*
X115463668Y-121716461D01*
X115534199Y-121723109D01*
G37*
G36*
X116591154Y-122271381D02*
G01*
X116667663Y-122271381D01*
X116686905Y-122273718D01*
X116697705Y-122279441D01*
X116704332Y-122288613D01*
X116706620Y-122300690D01*
X116704375Y-122312254D01*
X116697705Y-122321634D01*
X116686871Y-122327585D01*
X116667663Y-122330000D01*
X116533086Y-122330000D01*
X116533086Y-122215511D01*
X116489273Y-122266922D01*
X116442636Y-122305172D01*
X116392755Y-122331893D01*
X116338817Y-122347965D01*
X116279684Y-122353447D01*
X116228861Y-122348905D01*
X116179352Y-122335243D01*
X116130451Y-122311987D01*
X116086456Y-122280611D01*
X116049030Y-122241472D01*
X116017733Y-122193712D01*
X115994526Y-122141284D01*
X115980908Y-122088708D01*
X115976395Y-122035321D01*
X115976426Y-122034954D01*
X116033731Y-122034954D01*
X116038480Y-122088007D01*
X116052310Y-122135761D01*
X116075118Y-122179270D01*
X116107493Y-122219296D01*
X116146804Y-122252783D01*
X116188778Y-122276089D01*
X116234105Y-122290067D01*
X116283775Y-122294829D01*
X116333057Y-122290080D01*
X116378142Y-122276123D01*
X116420004Y-122252822D01*
X116459324Y-122219296D01*
X116491699Y-122179270D01*
X116514506Y-122135761D01*
X116528337Y-122088007D01*
X116533086Y-122034954D01*
X116528320Y-121981540D01*
X116514465Y-121933632D01*
X116491655Y-121890147D01*
X116459324Y-121850307D01*
X116420023Y-121816929D01*
X116378165Y-121793719D01*
X116333073Y-121779812D01*
X116283775Y-121775080D01*
X116234089Y-121779826D01*
X116188755Y-121793754D01*
X116146786Y-121816968D01*
X116107493Y-121850307D01*
X116075162Y-121890147D01*
X116052352Y-121933632D01*
X116038496Y-121981540D01*
X116033731Y-122034954D01*
X115976426Y-122034954D01*
X115980927Y-121981457D01*
X115994564Y-121928761D01*
X116017733Y-121876563D01*
X116049000Y-121828977D01*
X116086425Y-121789827D01*
X116130451Y-121758288D01*
X116179379Y-121734845D01*
X116229106Y-121721053D01*
X116280355Y-121716461D01*
X116337997Y-121721844D01*
X116391189Y-121737705D01*
X116440988Y-121764214D01*
X116488152Y-121802328D01*
X116533086Y-121853726D01*
X116533086Y-121528883D01*
X116456577Y-121528883D01*
X116437393Y-121526519D01*
X116426535Y-121520701D01*
X116419936Y-121511426D01*
X116417681Y-121499574D01*
X116419913Y-121488005D01*
X116426535Y-121478630D01*
X116437413Y-121472675D01*
X116456577Y-121470265D01*
X116591154Y-121470265D01*
X116591154Y-122271381D01*
G37*
D12*
X121500000Y-100000000D02*
X124500000Y-100000000D01*
D13*
X124949722Y-98415191D02*
X122953669Y-98540772D01*
X124887630Y-97632283D02*
X122896506Y-97820500D01*
X124800978Y-96851712D02*
X122816749Y-97102378D01*
X124689850Y-96074248D02*
X122714473Y-96387117D01*
X124554356Y-95300658D02*
X122589781Y-95675421D01*
X124394630Y-94531706D02*
X122442796Y-94967992D01*
X124210830Y-93768150D02*
X122273664Y-94265530D01*
X124003136Y-93010745D02*
X122082549Y-93568727D01*
X123771754Y-92260237D02*
X121869641Y-92878271D01*
X123516912Y-91517367D02*
X121635150Y-92194843D01*
X123238862Y-90782869D02*
X121379309Y-91519118D01*
X122937878Y-90057467D02*
X121102369Y-90851763D01*
X122614257Y-89341877D02*
X120804603Y-90193436D01*
X122268319Y-88636805D02*
X120486306Y-89544786D01*
X121900404Y-87942947D02*
X120147791Y-88906454D01*
X121510876Y-87260988D02*
X119789392Y-88279071D01*
X121100120Y-86591601D02*
X119411464Y-87663255D01*
X120668540Y-85935446D02*
X119014379Y-87059613D01*
X120216563Y-85293172D02*
X118598529Y-86468743D01*
X119744635Y-84665411D02*
X118164325Y-85891225D01*
X119253221Y-84052784D02*
X117712195Y-85327632D01*
X118742807Y-83455895D02*
X117242585Y-84778519D01*
X118213895Y-82875332D02*
X116755958Y-84244426D01*
X117667009Y-82311670D02*
X116252795Y-83725884D01*
X117102688Y-81765464D02*
X115733594Y-83223401D01*
X116521488Y-81237253D02*
X115198864Y-82737475D01*
X115923983Y-80727559D02*
X114649135Y-82268585D01*
X115310764Y-80236885D02*
X114084950Y-81817195D01*
X114682435Y-79765714D02*
X113506864Y-81383748D01*
X114039615Y-79314512D02*
X112915448Y-80968673D01*
X113382941Y-78883724D02*
X112311287Y-80572380D01*
X112713059Y-78473775D02*
X111694976Y-80195259D01*
X112030631Y-78085070D02*
X111067124Y-79837683D01*
X111336330Y-77717993D02*
X110428349Y-79500006D01*
X110630841Y-77372905D02*
X109779282Y-79182559D01*
X109914861Y-77050147D02*
X109120565Y-78885656D01*
X109189097Y-76750038D02*
X108452848Y-78609591D01*
X108454263Y-76472874D02*
X107776787Y-78354636D01*
X107711087Y-76218928D02*
X107093053Y-78121041D01*
X106960300Y-75988452D02*
X106402318Y-77909039D01*
X106202645Y-75781672D02*
X105705265Y-77718838D01*
X105438868Y-75598792D02*
X105002582Y-77550626D01*
X104669724Y-75439994D02*
X104294961Y-77404569D01*
X103895971Y-75305433D02*
X103583102Y-77280810D01*
X103118374Y-75195243D02*
X102867708Y-77179472D01*
X102337699Y-75109532D02*
X102149482Y-77100656D01*
X101554717Y-75048385D02*
X101429136Y-77044438D01*
X100770200Y-75011862D02*
X100707378Y-77010875D01*
X99984924Y-75000000D02*
X99984924Y-77000000D01*
X99199662Y-75012810D02*
X99262484Y-77011823D01*
X98415191Y-75050278D02*
X98540772Y-77046331D01*
X97632283Y-75112370D02*
X97820500Y-77103494D01*
X96851712Y-75199022D02*
X97102378Y-77183251D01*
X96074248Y-75310150D02*
X96387117Y-77285527D01*
X95300658Y-75445644D02*
X95675421Y-77410219D01*
X94531706Y-75605370D02*
X94967992Y-77557204D01*
X93768150Y-75789170D02*
X94265530Y-77726336D01*
X93010745Y-75996864D02*
X93568727Y-77917451D01*
X92260237Y-76228246D02*
X92878271Y-78130359D01*
X91517367Y-76483088D02*
X92194843Y-78364850D01*
X90782869Y-76761138D02*
X91519118Y-78620691D01*
X90057467Y-77062122D02*
X90851763Y-78897631D01*
X89341877Y-77385743D02*
X90193436Y-79195397D01*
X88636805Y-77731681D02*
X89544786Y-79513694D01*
X87942947Y-78099596D02*
X88906454Y-79852209D01*
X87260988Y-78489124D02*
X88279071Y-80210608D01*
X86591601Y-78899880D02*
X87663255Y-80588536D01*
X85935446Y-79331460D02*
X87059613Y-80985621D01*
X85293172Y-79783437D02*
X86468743Y-81401471D01*
X84665411Y-80255365D02*
X85891225Y-81835675D01*
X84052784Y-80746779D02*
X85327632Y-82287805D01*
X83455895Y-81257193D02*
X84778519Y-82757415D01*
X82875332Y-81786105D02*
X84244426Y-83244042D01*
X82311670Y-82332991D02*
X83725884Y-83747205D01*
X81765464Y-82897312D02*
X83223401Y-84266406D01*
X81237253Y-83478512D02*
X82737475Y-84801136D01*
X80727559Y-84076017D02*
X82268585Y-85350865D01*
X80236885Y-84689236D02*
X81817195Y-85915050D01*
X79765714Y-85317565D02*
X81383748Y-86493136D01*
X79314512Y-85960385D02*
X80968673Y-87084552D01*
X78883724Y-86617059D02*
X80572380Y-87688713D01*
X78473775Y-87286941D02*
X80195259Y-88305024D01*
X78085070Y-87969369D02*
X79837683Y-88932876D01*
X77717993Y-88663670D02*
X79500006Y-89571651D01*
X77372905Y-89369159D02*
X79182559Y-90220718D01*
X77050147Y-90085139D02*
X78885656Y-90879435D01*
X76750038Y-90810903D02*
X78609591Y-91547152D01*
X76472874Y-91545737D02*
X78354636Y-92223213D01*
X76218928Y-92288913D02*
X78121041Y-92906947D01*
X75988452Y-93039700D02*
X77909039Y-93597682D01*
X75781672Y-93797355D02*
X77718838Y-94294735D01*
X75598792Y-94561132D02*
X77550626Y-94997418D01*
X75439994Y-95330276D02*
X77404569Y-95705039D01*
X75305433Y-96104029D02*
X77280810Y-96416898D01*
X75195243Y-96881626D02*
X77179472Y-97132292D01*
X75109532Y-97662301D02*
X77100656Y-97850518D01*
X75048385Y-98445283D02*
X77044438Y-98570864D01*
X75011862Y-99229800D02*
X77010875Y-99292622D01*
X75000000Y-100015076D02*
X77000000Y-100015076D01*
X124987190Y-99199662D02*
X122988177Y-99262484D01*
D12*
X119812055Y-85587065D02*
X117385004Y-87350421D01*
X114388542Y-80170222D02*
X112625186Y-82597273D01*
X107556578Y-76694457D02*
X106629527Y-79547627D01*
X99984924Y-75500000D02*
X99984924Y-78500000D01*
X92414746Y-76703774D02*
X93341797Y-79556944D01*
X85587065Y-80187945D02*
X87350421Y-82614996D01*
X80170222Y-85611458D02*
X82597273Y-87374814D01*
X76694457Y-92443422D02*
X79547627Y-93370473D01*
X75500000Y-100000000D02*
X78500000Y-100000000D01*
X123296226Y-92414746D02*
X120443056Y-93341797D01*
D14*
G36*
X82693710Y-119745000D02*
G01*
X82573818Y-119745000D01*
X82140409Y-118631252D01*
X82073822Y-118631252D01*
X82039933Y-118626581D01*
X82023080Y-118610827D01*
X82016394Y-118587288D01*
X82023080Y-118563750D01*
X82039933Y-118548087D01*
X82073822Y-118543325D01*
X82394482Y-118543325D01*
X82428829Y-118548087D01*
X82445224Y-118563750D01*
X82451910Y-118587288D01*
X82444674Y-118610827D01*
X82427821Y-118626581D01*
X82394482Y-118631252D01*
X82229527Y-118631252D01*
X82629139Y-119657072D01*
X82635275Y-119657072D01*
X83029758Y-118631252D01*
X82865810Y-118631252D01*
X82831005Y-118626581D01*
X82814061Y-118610827D01*
X82807466Y-118587288D01*
X82814610Y-118563750D01*
X82831463Y-118548087D01*
X82865810Y-118543325D01*
X83185554Y-118543325D01*
X83220359Y-118548087D01*
X83237303Y-118563750D01*
X83243989Y-118587288D01*
X83236754Y-118610827D01*
X83219901Y-118626581D01*
X83185554Y-118631252D01*
X83119975Y-118631252D01*
X82693710Y-119745000D01*
G37*
G36*
X83609255Y-119277610D02*
G01*
X83609255Y-119657072D01*
X83768073Y-119657072D01*
X83796935Y-119660577D01*
X83813136Y-119669162D01*
X83823077Y-119682920D01*
X83826509Y-119701036D01*
X83823141Y-119718382D01*
X83813136Y-119732452D01*
X83796885Y-119741377D01*
X83768073Y-119745000D01*
X83407388Y-119745000D01*
X83379530Y-119741414D01*
X83363333Y-119732452D01*
X83353400Y-119718389D01*
X83350052Y-119701036D01*
X83353464Y-119682912D01*
X83363333Y-119669162D01*
X83379482Y-119660542D01*
X83407388Y-119657072D01*
X83523159Y-119657072D01*
X83523159Y-118631252D01*
X83407388Y-118631252D01*
X83379472Y-118627806D01*
X83363333Y-118619254D01*
X83353461Y-118605429D01*
X83350052Y-118587288D01*
X83353464Y-118569164D01*
X83363333Y-118555415D01*
X83379482Y-118546794D01*
X83407388Y-118543325D01*
X83768073Y-118543325D01*
X83796935Y-118546830D01*
X83813136Y-118555415D01*
X83823077Y-118569172D01*
X83826509Y-118587288D01*
X83823080Y-118605421D01*
X83813136Y-118619254D01*
X83796945Y-118627771D01*
X83768073Y-118631252D01*
X83609255Y-118631252D01*
X83609255Y-119161931D01*
X84203589Y-118631252D01*
X84109342Y-118631252D01*
X84080456Y-118627774D01*
X84064187Y-118619254D01*
X84054315Y-118605429D01*
X84050907Y-118587288D01*
X84054318Y-118569164D01*
X84064187Y-118555415D01*
X84080466Y-118546826D01*
X84109342Y-118543325D01*
X84362408Y-118543325D01*
X84390300Y-118546798D01*
X84406372Y-118555415D01*
X84416312Y-118569172D01*
X84419744Y-118587288D01*
X84416315Y-118605421D01*
X84406372Y-118619254D01*
X84390309Y-118627802D01*
X84362408Y-118631252D01*
X84327603Y-118631252D01*
X83854169Y-119054220D01*
X83952737Y-119103700D01*
X84029383Y-119161473D01*
X84094608Y-119235207D01*
X84163564Y-119345021D01*
X84206195Y-119434417D01*
X84298844Y-119657072D01*
X84406463Y-119657072D01*
X84435325Y-119660577D01*
X84451526Y-119669162D01*
X84461466Y-119682920D01*
X84464898Y-119701036D01*
X84461530Y-119718382D01*
X84451526Y-119732452D01*
X84435275Y-119741377D01*
X84406463Y-119745000D01*
X84240500Y-119745000D01*
X84141179Y-119494947D01*
X84067149Y-119346267D01*
X84012988Y-119267444D01*
X83946456Y-119203816D01*
X83870101Y-119154893D01*
X83782453Y-119119982D01*
X83609255Y-119277610D01*
G37*
G36*
X84776857Y-119657072D02*
G01*
X85437779Y-119657072D01*
X85437779Y-119621901D01*
X85441309Y-119593339D01*
X85450052Y-119576930D01*
X85464007Y-119566749D01*
X85481834Y-119563283D01*
X85498716Y-119566697D01*
X85512517Y-119576930D01*
X85521328Y-119593349D01*
X85524882Y-119621901D01*
X85524882Y-119745000D01*
X84692868Y-119745000D01*
X84692868Y-119616039D01*
X84952022Y-119378024D01*
X85203122Y-119136743D01*
X85361941Y-118969864D01*
X85399939Y-118916949D01*
X85420834Y-118876075D01*
X85432846Y-118835177D01*
X85436771Y-118794651D01*
X85427104Y-118724587D01*
X85398098Y-118660072D01*
X85347561Y-118599012D01*
X85283951Y-118551737D01*
X85213039Y-118523637D01*
X85132414Y-118514016D01*
X85059411Y-118521271D01*
X84993351Y-118542523D01*
X84932654Y-118577946D01*
X84880483Y-118624985D01*
X84843442Y-118677414D01*
X84819905Y-118736215D01*
X84804518Y-118767631D01*
X84775850Y-118777798D01*
X84759761Y-118774833D01*
X84746632Y-118766074D01*
X84737827Y-118753175D01*
X84734909Y-118738047D01*
X84745920Y-118686668D01*
X84788673Y-118605515D01*
X84828750Y-118554124D01*
X84877921Y-118510422D01*
X84937233Y-118473990D01*
X85001765Y-118447105D01*
X85066245Y-118431316D01*
X85131407Y-118426088D01*
X85209738Y-118433202D01*
X85281046Y-118454025D01*
X85346812Y-118488558D01*
X85408103Y-118537829D01*
X85460272Y-118597654D01*
X85495895Y-118659116D01*
X85516851Y-118723124D01*
X85523874Y-118790987D01*
X85518868Y-118848718D01*
X85504365Y-118900163D01*
X85479635Y-118949676D01*
X85438328Y-119008790D01*
X85381223Y-119074056D01*
X85270808Y-119186569D01*
X84979996Y-119467004D01*
X84776857Y-119650935D01*
X84776857Y-119657072D01*
G37*
G36*
X86543592Y-118549595D02*
G01*
X86612595Y-118567506D01*
X86672878Y-118596330D01*
X86725824Y-118636198D01*
X86782890Y-118703244D01*
X86815752Y-118775114D01*
X86826757Y-118854276D01*
X86816712Y-118927740D01*
X86786914Y-118993471D01*
X86735494Y-119053838D01*
X86657680Y-119109815D01*
X86743729Y-119147986D01*
X86807967Y-119190965D01*
X86854418Y-119238318D01*
X86889519Y-119294295D01*
X86910086Y-119352774D01*
X86916974Y-119415088D01*
X86906599Y-119498106D01*
X86875942Y-119572808D01*
X86825501Y-119637616D01*
X86750462Y-119694624D01*
X86692394Y-119722633D01*
X86631414Y-119739355D01*
X86566547Y-119745000D01*
X85923028Y-119745000D01*
X85895090Y-119741411D01*
X85878881Y-119732452D01*
X85868948Y-119718389D01*
X85865601Y-119701036D01*
X85869012Y-119682912D01*
X85878881Y-119669162D01*
X85895041Y-119660544D01*
X85923028Y-119657072D01*
X86038799Y-119657072D01*
X86124895Y-119657072D01*
X86560410Y-119657072D01*
X86639337Y-119647526D01*
X86704849Y-119620252D01*
X86759649Y-119578267D01*
X86798089Y-119529119D01*
X86822068Y-119473337D01*
X86829871Y-119416462D01*
X86818912Y-119353251D01*
X86784259Y-119289609D01*
X86730815Y-119236337D01*
X86657680Y-119196461D01*
X86568598Y-119173699D01*
X86434289Y-119164678D01*
X86124895Y-119164678D01*
X86124895Y-119657072D01*
X86038799Y-119657072D01*
X86038799Y-119076751D01*
X86124895Y-119076751D01*
X86429160Y-119076751D01*
X86523467Y-119067610D01*
X86607488Y-119041031D01*
X86663432Y-119005730D01*
X86704758Y-118958324D01*
X86731227Y-118902651D01*
X86739654Y-118847865D01*
X86731792Y-118797223D01*
X86707533Y-118748228D01*
X86663817Y-118699213D01*
X86609705Y-118662241D01*
X86544765Y-118639354D01*
X86466072Y-118631252D01*
X86124895Y-118631252D01*
X86124895Y-119076751D01*
X86038799Y-119076751D01*
X86038799Y-118631252D01*
X85923028Y-118631252D01*
X85895031Y-118627803D01*
X85878881Y-118619254D01*
X85869009Y-118605429D01*
X85865601Y-118587288D01*
X85869012Y-118569164D01*
X85878881Y-118555415D01*
X85895041Y-118546797D01*
X85923028Y-118543325D01*
X86464057Y-118543325D01*
X86543592Y-118549595D01*
G37*
G36*
X87956533Y-119164678D02*
G01*
X87385737Y-119164678D01*
X87385737Y-119657072D01*
X87501509Y-119657072D01*
X87529481Y-119660548D01*
X87545564Y-119669162D01*
X87555504Y-119682920D01*
X87558936Y-119701036D01*
X87555568Y-119718382D01*
X87545564Y-119732452D01*
X87529432Y-119741407D01*
X87501509Y-119745000D01*
X87202372Y-119745000D01*
X87174434Y-119741411D01*
X87158225Y-119732452D01*
X87148292Y-119718389D01*
X87144945Y-119701036D01*
X87148356Y-119682912D01*
X87158225Y-119669162D01*
X87174385Y-119660544D01*
X87202372Y-119657072D01*
X87299642Y-119657072D01*
X87299642Y-118631252D01*
X87246427Y-118631252D01*
X87217541Y-118627774D01*
X87201273Y-118619254D01*
X87191401Y-118605429D01*
X87187992Y-118587288D01*
X87191404Y-118569164D01*
X87201273Y-118555415D01*
X87217551Y-118546826D01*
X87246427Y-118543325D01*
X87501509Y-118543325D01*
X87529481Y-118546801D01*
X87545564Y-118555415D01*
X87555504Y-118569172D01*
X87558936Y-118587288D01*
X87555507Y-118605421D01*
X87545564Y-118619254D01*
X87529491Y-118627800D01*
X87501509Y-118631252D01*
X87385737Y-118631252D01*
X87385737Y-119076751D01*
X87956533Y-119076751D01*
X87956533Y-118631252D01*
X87841769Y-118631252D01*
X87813773Y-118627803D01*
X87797622Y-118619254D01*
X87787750Y-118605429D01*
X87784342Y-118587288D01*
X87787652Y-118569126D01*
X87797165Y-118555415D01*
X87812981Y-118546848D01*
X87841769Y-118543325D01*
X88096851Y-118543325D01*
X88125712Y-118546830D01*
X88141913Y-118555415D01*
X88151854Y-118569172D01*
X88155286Y-118587288D01*
X88151857Y-118605421D01*
X88141913Y-118619254D01*
X88125722Y-118627771D01*
X88096851Y-118631252D01*
X88043636Y-118631252D01*
X88043636Y-119657072D01*
X88140906Y-119657072D01*
X88168878Y-119660548D01*
X88184961Y-119669162D01*
X88194901Y-119682920D01*
X88198333Y-119701036D01*
X88194966Y-119718382D01*
X88184961Y-119732452D01*
X88168829Y-119741407D01*
X88140906Y-119745000D01*
X87841769Y-119745000D01*
X87813831Y-119741411D01*
X87797622Y-119732452D01*
X87787690Y-119718389D01*
X87784342Y-119701036D01*
X87787652Y-119682873D01*
X87797165Y-119669162D01*
X87812981Y-119660595D01*
X87841769Y-119657072D01*
X87956533Y-119657072D01*
X87956533Y-119164678D01*
G37*
G36*
X89415121Y-119657072D02*
G01*
X89481707Y-119657072D01*
X89509680Y-119660548D01*
X89525763Y-119669162D01*
X89535703Y-119682920D01*
X89539135Y-119701036D01*
X89535767Y-119718382D01*
X89525763Y-119732452D01*
X89509631Y-119741407D01*
X89481707Y-119745000D01*
X89161047Y-119745000D01*
X89132221Y-119741381D01*
X89115893Y-119732452D01*
X89105960Y-119718389D01*
X89102612Y-119701036D01*
X89106024Y-119682912D01*
X89115893Y-119669162D01*
X89132171Y-119660574D01*
X89161047Y-119657072D01*
X89324995Y-119657072D01*
X89207117Y-119346395D01*
X88641543Y-119346395D01*
X88525680Y-119657072D01*
X88690727Y-119657072D01*
X88718619Y-119660545D01*
X88734691Y-119669162D01*
X88744631Y-119682920D01*
X88748063Y-119701036D01*
X88744695Y-119718382D01*
X88734691Y-119732452D01*
X88718570Y-119741410D01*
X88690727Y-119745000D01*
X88368968Y-119745000D01*
X88341029Y-119741411D01*
X88324821Y-119732452D01*
X88314888Y-119718389D01*
X88311540Y-119701036D01*
X88314952Y-119682912D01*
X88324821Y-119669162D01*
X88340980Y-119660544D01*
X88368968Y-119657072D01*
X88435554Y-119657072D01*
X88583251Y-119258468D01*
X88674332Y-119258468D01*
X89174328Y-119258468D01*
X88936649Y-118631252D01*
X88904867Y-118631252D01*
X88674332Y-119258468D01*
X88583251Y-119258468D01*
X88815657Y-118631252D01*
X88561584Y-118631252D01*
X88533587Y-118627803D01*
X88517437Y-118619254D01*
X88507565Y-118605429D01*
X88504156Y-118587288D01*
X88507568Y-118569164D01*
X88517437Y-118555415D01*
X88533597Y-118546797D01*
X88561584Y-118543325D01*
X88994993Y-118543325D01*
X89415121Y-119657072D01*
G37*
G36*
X91640149Y-118550365D02*
G01*
X91716310Y-118570519D01*
X91783130Y-118603049D01*
X91842101Y-118648196D01*
X91892339Y-118704442D01*
X91926882Y-118763437D01*
X91947375Y-118826113D01*
X91954300Y-118893844D01*
X91945007Y-118973833D01*
X91917938Y-119043961D01*
X91876884Y-119104684D01*
X91830286Y-119148742D01*
X91751106Y-119199193D01*
X91671467Y-119233097D01*
X91608177Y-119247278D01*
X91523913Y-119252606D01*
X91254453Y-119252606D01*
X91254453Y-119657072D01*
X91549559Y-119657072D01*
X91577531Y-119660548D01*
X91593614Y-119669162D01*
X91603555Y-119682920D01*
X91606987Y-119701036D01*
X91603619Y-119718382D01*
X91593614Y-119732452D01*
X91577482Y-119741407D01*
X91549559Y-119745000D01*
X91052586Y-119745000D01*
X91024728Y-119741414D01*
X91008531Y-119732452D01*
X90998598Y-119718389D01*
X90995250Y-119701036D01*
X90998662Y-119682912D01*
X91008531Y-119669162D01*
X91024680Y-119660542D01*
X91052586Y-119657072D01*
X91168357Y-119657072D01*
X91168357Y-119164678D01*
X91254453Y-119164678D01*
X91529043Y-119164678D01*
X91621614Y-119154029D01*
X91707828Y-119122272D01*
X91782079Y-119073425D01*
X91829736Y-119018591D01*
X91858906Y-118955680D01*
X91868204Y-118893844D01*
X91858938Y-118830056D01*
X91830810Y-118770106D01*
X91781101Y-118712035D01*
X91718890Y-118667671D01*
X91646427Y-118640678D01*
X91560825Y-118631252D01*
X91254453Y-118631252D01*
X91254453Y-119164678D01*
X91168357Y-119164678D01*
X91168357Y-118631252D01*
X91052586Y-118631252D01*
X91024670Y-118627806D01*
X91008531Y-118619254D01*
X90998659Y-118605429D01*
X90995250Y-118587288D01*
X90998662Y-118569164D01*
X91008531Y-118555415D01*
X91024680Y-118546794D01*
X91052586Y-118543325D01*
X91552673Y-118543325D01*
X91640149Y-118550365D01*
G37*
G36*
X93078947Y-118665416D02*
G01*
X93078947Y-118602767D01*
X93082342Y-118573713D01*
X93090670Y-118557155D01*
X93104265Y-118546846D01*
X93121994Y-118543325D01*
X93139675Y-118546725D01*
X93153135Y-118556605D01*
X93161550Y-118572549D01*
X93164951Y-118600294D01*
X93164951Y-118837057D01*
X93161524Y-118865706D01*
X93153135Y-118881845D01*
X93139683Y-118891654D01*
X93121994Y-118895034D01*
X93105841Y-118892025D01*
X93092685Y-118883128D01*
X93083835Y-118868704D01*
X93078947Y-118844385D01*
X93067162Y-118792855D01*
X93037401Y-118744023D01*
X92985707Y-118696282D01*
X92902819Y-118647133D01*
X92813334Y-118617786D01*
X92715147Y-118607805D01*
X92618444Y-118618645D01*
X92527660Y-118651036D01*
X92467459Y-118686647D01*
X92423155Y-118727423D01*
X92362486Y-118811495D01*
X92315535Y-118904377D01*
X92294313Y-118979050D01*
X92286867Y-119066035D01*
X92286867Y-119216427D01*
X92295632Y-119309769D01*
X92321407Y-119395485D01*
X92364416Y-119475329D01*
X92426177Y-119550552D01*
X92500527Y-119613828D01*
X92578410Y-119657502D01*
X92661016Y-119683467D01*
X92750043Y-119692243D01*
X92822597Y-119686792D01*
X92888280Y-119670956D01*
X92948246Y-119645074D01*
X93031935Y-119587876D01*
X93117873Y-119502283D01*
X93136925Y-119486154D01*
X93156799Y-119481217D01*
X93173708Y-119484119D01*
X93186475Y-119492391D01*
X93194860Y-119504939D01*
X93197740Y-119520876D01*
X93189543Y-119545576D01*
X93153685Y-119592042D01*
X93094386Y-119650124D01*
X93031504Y-119696785D01*
X92964641Y-119732909D01*
X92858073Y-119768553D01*
X92752058Y-119780170D01*
X92659176Y-119771408D01*
X92562465Y-119744267D01*
X92493051Y-119713215D01*
X92440557Y-119679787D01*
X92391501Y-119635047D01*
X92322130Y-119555314D01*
X92260869Y-119467201D01*
X92226325Y-119393381D01*
X92207361Y-119316665D01*
X92200771Y-119229983D01*
X92200771Y-119054769D01*
X92207978Y-118971505D01*
X92230197Y-118885317D01*
X92268915Y-118795017D01*
X92320804Y-118712215D01*
X92382757Y-118644809D01*
X92455395Y-118591135D01*
X92536709Y-118551473D01*
X92621830Y-118527842D01*
X92712124Y-118519877D01*
X92815996Y-118529162D01*
X92910559Y-118556326D01*
X92997741Y-118601325D01*
X93078947Y-118665416D01*
G37*
G36*
X94096558Y-118549595D02*
G01*
X94165561Y-118567506D01*
X94225844Y-118596330D01*
X94278790Y-118636198D01*
X94335856Y-118703244D01*
X94368717Y-118775114D01*
X94379723Y-118854276D01*
X94369678Y-118927740D01*
X94339880Y-118993471D01*
X94288459Y-119053838D01*
X94210646Y-119109815D01*
X94296694Y-119147986D01*
X94360933Y-119190965D01*
X94407383Y-119238318D01*
X94442485Y-119294295D01*
X94463052Y-119352774D01*
X94469940Y-119415088D01*
X94459565Y-119498106D01*
X94428907Y-119572808D01*
X94378466Y-119637616D01*
X94303428Y-119694624D01*
X94245360Y-119722633D01*
X94184380Y-119739355D01*
X94119513Y-119745000D01*
X93475994Y-119745000D01*
X93448056Y-119741411D01*
X93431847Y-119732452D01*
X93421914Y-119718389D01*
X93418566Y-119701036D01*
X93421978Y-119682912D01*
X93431847Y-119669162D01*
X93448007Y-119660544D01*
X93475994Y-119657072D01*
X93591765Y-119657072D01*
X93677861Y-119657072D01*
X94113376Y-119657072D01*
X94192302Y-119647526D01*
X94257815Y-119620252D01*
X94312615Y-119578267D01*
X94351055Y-119529119D01*
X94375034Y-119473337D01*
X94382837Y-119416462D01*
X94371877Y-119353251D01*
X94337225Y-119289609D01*
X94283781Y-119236337D01*
X94210646Y-119196461D01*
X94121564Y-119173699D01*
X93987255Y-119164678D01*
X93677861Y-119164678D01*
X93677861Y-119657072D01*
X93591765Y-119657072D01*
X93591765Y-119076751D01*
X93677861Y-119076751D01*
X93982126Y-119076751D01*
X94076433Y-119067610D01*
X94160454Y-119041031D01*
X94216398Y-119005730D01*
X94257724Y-118958324D01*
X94284192Y-118902651D01*
X94292620Y-118847865D01*
X94284758Y-118797223D01*
X94260499Y-118748228D01*
X94216782Y-118699213D01*
X94162671Y-118662241D01*
X94097730Y-118639354D01*
X94019037Y-118631252D01*
X93677861Y-118631252D01*
X93677861Y-119076751D01*
X93591765Y-119076751D01*
X93591765Y-118631252D01*
X93475994Y-118631252D01*
X93447997Y-118627803D01*
X93431847Y-118619254D01*
X93421975Y-118605429D01*
X93418566Y-118587288D01*
X93421978Y-118569164D01*
X93431847Y-118555415D01*
X93448007Y-118546797D01*
X93475994Y-118543325D01*
X94017022Y-118543325D01*
X94096558Y-118549595D01*
G37*
G36*
X96540814Y-119745000D02*
G01*
X96420922Y-119745000D01*
X95987513Y-118631252D01*
X95920926Y-118631252D01*
X95887037Y-118626581D01*
X95870184Y-118610827D01*
X95863498Y-118587288D01*
X95870184Y-118563750D01*
X95887037Y-118548087D01*
X95920926Y-118543325D01*
X96241586Y-118543325D01*
X96275933Y-118548087D01*
X96292328Y-118563750D01*
X96299014Y-118587288D01*
X96291778Y-118610827D01*
X96274925Y-118626581D01*
X96241586Y-118631252D01*
X96076631Y-118631252D01*
X96476243Y-119657072D01*
X96482379Y-119657072D01*
X96876862Y-118631252D01*
X96712914Y-118631252D01*
X96678109Y-118626581D01*
X96661165Y-118610827D01*
X96654570Y-118587288D01*
X96661714Y-118563750D01*
X96678567Y-118548087D01*
X96712914Y-118543325D01*
X97032658Y-118543325D01*
X97067463Y-118548087D01*
X97084407Y-118563750D01*
X97091093Y-118587288D01*
X97083858Y-118610827D01*
X97067005Y-118626581D01*
X97032658Y-118631252D01*
X96967079Y-118631252D01*
X96540814Y-119745000D01*
G37*
G36*
X98226914Y-119657072D02*
G01*
X98293501Y-119657072D01*
X98321473Y-119660548D01*
X98337556Y-119669162D01*
X98347496Y-119682920D01*
X98350928Y-119701036D01*
X98347561Y-119718382D01*
X98337556Y-119732452D01*
X98321424Y-119741407D01*
X98293501Y-119745000D01*
X97972841Y-119745000D01*
X97944014Y-119741381D01*
X97927686Y-119732452D01*
X97917753Y-119718389D01*
X97914405Y-119701036D01*
X97917817Y-119682912D01*
X97927686Y-119669162D01*
X97943964Y-119660574D01*
X97972841Y-119657072D01*
X98136789Y-119657072D01*
X98018911Y-119346395D01*
X97453336Y-119346395D01*
X97337473Y-119657072D01*
X97502520Y-119657072D01*
X97530412Y-119660545D01*
X97546484Y-119669162D01*
X97556424Y-119682920D01*
X97559856Y-119701036D01*
X97556489Y-119718382D01*
X97546484Y-119732452D01*
X97530363Y-119741410D01*
X97502520Y-119745000D01*
X97180761Y-119745000D01*
X97152823Y-119741411D01*
X97136614Y-119732452D01*
X97126681Y-119718389D01*
X97123333Y-119701036D01*
X97126745Y-119682912D01*
X97136614Y-119669162D01*
X97152774Y-119660544D01*
X97180761Y-119657072D01*
X97247348Y-119657072D01*
X97395045Y-119258468D01*
X97486126Y-119258468D01*
X97986121Y-119258468D01*
X97748442Y-118631252D01*
X97716660Y-118631252D01*
X97486126Y-119258468D01*
X97395045Y-119258468D01*
X97627451Y-118631252D01*
X97373377Y-118631252D01*
X97345380Y-118627803D01*
X97329230Y-118619254D01*
X97319358Y-118605429D01*
X97315949Y-118587288D01*
X97319361Y-118569164D01*
X97329230Y-118555415D01*
X97345390Y-118546797D01*
X97373377Y-118543325D01*
X97806786Y-118543325D01*
X98226914Y-119657072D01*
G37*
G36*
X99111711Y-118550016D02*
G01*
X99182207Y-118569414D01*
X99245866Y-118601182D01*
X99303842Y-118645907D01*
X99353735Y-118701082D01*
X99387594Y-118757402D01*
X99407408Y-118815717D01*
X99414026Y-118877266D01*
X99406741Y-118936785D01*
X99384583Y-118994571D01*
X99345882Y-119052021D01*
X99295339Y-119099819D01*
X99221452Y-119145555D01*
X99117912Y-119188584D01*
X99204259Y-119256493D01*
X99275724Y-119331191D01*
X99348401Y-119432959D01*
X99485742Y-119657072D01*
X99551321Y-119657072D01*
X99579294Y-119660548D01*
X99595376Y-119669162D01*
X99605317Y-119682920D01*
X99608749Y-119701036D01*
X99605381Y-119718382D01*
X99595376Y-119732452D01*
X99579244Y-119741407D01*
X99551321Y-119745000D01*
X99436557Y-119745000D01*
X99281040Y-119485844D01*
X99189078Y-119362698D01*
X99127307Y-119302299D01*
X99060353Y-119252123D01*
X98987761Y-119211573D01*
X98714179Y-119211573D01*
X98714179Y-119657072D01*
X98872998Y-119657072D01*
X98901859Y-119660577D01*
X98918060Y-119669162D01*
X98928001Y-119682920D01*
X98931433Y-119701036D01*
X98928065Y-119718382D01*
X98918060Y-119732452D01*
X98901809Y-119741377D01*
X98872998Y-119745000D01*
X98512312Y-119745000D01*
X98484455Y-119741414D01*
X98468257Y-119732452D01*
X98458324Y-119718389D01*
X98454976Y-119701036D01*
X98458388Y-119682912D01*
X98468257Y-119669162D01*
X98484406Y-119660542D01*
X98512312Y-119657072D01*
X98628083Y-119657072D01*
X98628083Y-119123646D01*
X98714179Y-119123646D01*
X98948835Y-119123646D01*
X99057692Y-119113095D01*
X99153175Y-119082613D01*
X99235601Y-119035623D01*
X99286440Y-118986168D01*
X99318045Y-118928909D01*
X99327930Y-118873327D01*
X99319177Y-118819373D01*
X99291699Y-118765308D01*
X99241285Y-118709196D01*
X99179797Y-118666086D01*
X99110423Y-118640183D01*
X99030809Y-118631252D01*
X98714179Y-118631252D01*
X98714179Y-119123646D01*
X98628083Y-119123646D01*
X98628083Y-118631252D01*
X98512312Y-118631252D01*
X98484396Y-118627806D01*
X98468257Y-118619254D01*
X98458385Y-118605429D01*
X98454976Y-118587288D01*
X98458388Y-118569164D01*
X98468257Y-118555415D01*
X98484406Y-118546794D01*
X98512312Y-118543325D01*
X99032824Y-118543325D01*
X99111711Y-118550016D01*
G37*
G36*
X100296781Y-118631252D02*
G01*
X100296781Y-119657072D01*
X100591887Y-119657072D01*
X100619860Y-119660548D01*
X100635942Y-119669162D01*
X100645883Y-119682920D01*
X100649315Y-119701036D01*
X100645947Y-119718382D01*
X100635942Y-119732452D01*
X100619810Y-119741407D01*
X100591887Y-119745000D01*
X99915579Y-119745000D01*
X99887721Y-119741414D01*
X99871523Y-119732452D01*
X99861591Y-119718389D01*
X99858243Y-119701036D01*
X99861654Y-119682912D01*
X99871523Y-119669162D01*
X99887672Y-119660542D01*
X99915579Y-119657072D01*
X100210685Y-119657072D01*
X100210685Y-118631252D01*
X99915579Y-118631252D01*
X99887663Y-118627806D01*
X99871523Y-118619254D01*
X99861651Y-118605429D01*
X99858243Y-118587288D01*
X99861654Y-118569164D01*
X99871523Y-118555415D01*
X99887672Y-118546794D01*
X99915579Y-118543325D01*
X100591887Y-118543325D01*
X100619860Y-118546801D01*
X100635942Y-118555415D01*
X100645883Y-118569172D01*
X100649315Y-118587288D01*
X100645886Y-118605421D01*
X100635942Y-118619254D01*
X100619869Y-118627800D01*
X100591887Y-118631252D01*
X100296781Y-118631252D01*
G37*
G36*
X102003397Y-119657072D02*
G01*
X102069984Y-119657072D01*
X102097956Y-119660548D01*
X102114039Y-119669162D01*
X102123979Y-119682920D01*
X102127411Y-119701036D01*
X102124044Y-119718382D01*
X102114039Y-119732452D01*
X102097907Y-119741407D01*
X102069984Y-119745000D01*
X101749323Y-119745000D01*
X101720497Y-119741381D01*
X101704169Y-119732452D01*
X101694236Y-119718389D01*
X101690888Y-119701036D01*
X101694300Y-119682912D01*
X101704169Y-119669162D01*
X101720447Y-119660574D01*
X101749323Y-119657072D01*
X101913271Y-119657072D01*
X101795394Y-119346395D01*
X101229819Y-119346395D01*
X101113956Y-119657072D01*
X101279003Y-119657072D01*
X101306895Y-119660545D01*
X101322967Y-119669162D01*
X101332907Y-119682920D01*
X101336339Y-119701036D01*
X101332971Y-119718382D01*
X101322967Y-119732452D01*
X101306846Y-119741410D01*
X101279003Y-119745000D01*
X100957244Y-119745000D01*
X100929306Y-119741411D01*
X100913097Y-119732452D01*
X100903164Y-119718389D01*
X100899816Y-119701036D01*
X100903228Y-119682912D01*
X100913097Y-119669162D01*
X100929257Y-119660544D01*
X100957244Y-119657072D01*
X101023831Y-119657072D01*
X101171528Y-119258468D01*
X101262609Y-119258468D01*
X101762604Y-119258468D01*
X101524925Y-118631252D01*
X101493143Y-118631252D01*
X101262609Y-119258468D01*
X101171528Y-119258468D01*
X101403934Y-118631252D01*
X101149860Y-118631252D01*
X101121863Y-118627803D01*
X101105713Y-118619254D01*
X101095841Y-118605429D01*
X101092432Y-118587288D01*
X101095844Y-118569164D01*
X101105713Y-118555415D01*
X101121873Y-118546797D01*
X101149860Y-118543325D01*
X101583269Y-118543325D01*
X102003397Y-119657072D01*
G37*
G36*
X102908352Y-118549595D02*
G01*
X102977354Y-118567506D01*
X103037637Y-118596330D01*
X103090583Y-118636198D01*
X103147649Y-118703244D01*
X103180511Y-118775114D01*
X103191516Y-118854276D01*
X103181471Y-118927740D01*
X103151673Y-118993471D01*
X103100253Y-119053838D01*
X103022439Y-119109815D01*
X103108488Y-119147986D01*
X103172727Y-119190965D01*
X103219177Y-119238318D01*
X103254279Y-119294295D01*
X103274845Y-119352774D01*
X103281734Y-119415088D01*
X103271358Y-119498106D01*
X103240701Y-119572808D01*
X103190260Y-119637616D01*
X103115221Y-119694624D01*
X103057154Y-119722633D01*
X102996174Y-119739355D01*
X102931306Y-119745000D01*
X102287787Y-119745000D01*
X102259849Y-119741411D01*
X102243640Y-119732452D01*
X102233708Y-119718389D01*
X102230360Y-119701036D01*
X102233772Y-119682912D01*
X102243640Y-119669162D01*
X102259800Y-119660544D01*
X102287787Y-119657072D01*
X102403558Y-119657072D01*
X102489654Y-119657072D01*
X102925170Y-119657072D01*
X103004096Y-119647526D01*
X103069609Y-119620252D01*
X103124408Y-119578267D01*
X103162848Y-119529119D01*
X103186828Y-119473337D01*
X103194631Y-119416462D01*
X103183671Y-119353251D01*
X103149018Y-119289609D01*
X103095574Y-119236337D01*
X103022439Y-119196461D01*
X102933357Y-119173699D01*
X102799049Y-119164678D01*
X102489654Y-119164678D01*
X102489654Y-119657072D01*
X102403558Y-119657072D01*
X102403558Y-119076751D01*
X102489654Y-119076751D01*
X102793920Y-119076751D01*
X102888226Y-119067610D01*
X102972247Y-119041031D01*
X103028191Y-119005730D01*
X103069517Y-118958324D01*
X103095986Y-118902651D01*
X103104413Y-118847865D01*
X103096551Y-118797223D01*
X103072292Y-118748228D01*
X103028576Y-118699213D01*
X102974465Y-118662241D01*
X102909524Y-118639354D01*
X102830831Y-118631252D01*
X102489654Y-118631252D01*
X102489654Y-119076751D01*
X102403558Y-119076751D01*
X102403558Y-118631252D01*
X102287787Y-118631252D01*
X102259791Y-118627803D01*
X102243640Y-118619254D01*
X102233768Y-118605429D01*
X102230360Y-118587288D01*
X102233772Y-118569164D01*
X102243640Y-118555415D01*
X102259800Y-118546797D01*
X102287787Y-118543325D01*
X102828816Y-118543325D01*
X102908352Y-118549595D01*
G37*
G36*
X103880648Y-118631252D02*
G01*
X103880648Y-119657072D01*
X104452451Y-119657072D01*
X104452451Y-119317086D01*
X104455981Y-119288524D01*
X104464724Y-119272115D01*
X104478742Y-119261927D01*
X104496506Y-119258468D01*
X104513432Y-119261764D01*
X104527189Y-119271565D01*
X104535952Y-119287718D01*
X104539554Y-119317086D01*
X104539554Y-119745000D01*
X103588655Y-119745000D01*
X103560717Y-119741411D01*
X103544508Y-119732452D01*
X103534576Y-119718389D01*
X103531228Y-119701036D01*
X103534639Y-119682912D01*
X103544508Y-119669162D01*
X103560668Y-119660544D01*
X103588655Y-119657072D01*
X103793545Y-119657072D01*
X103793545Y-118631252D01*
X103588655Y-118631252D01*
X103560658Y-118627803D01*
X103544508Y-118619254D01*
X103534636Y-118605429D01*
X103531228Y-118587288D01*
X103534639Y-118569164D01*
X103544508Y-118555415D01*
X103560668Y-118546797D01*
X103588655Y-118543325D01*
X104085537Y-118543325D01*
X104113509Y-118546801D01*
X104129592Y-118555415D01*
X104139532Y-118569172D01*
X104142964Y-118587288D01*
X104139536Y-118605421D01*
X104129592Y-118619254D01*
X104113519Y-118627800D01*
X104085537Y-118631252D01*
X103880648Y-118631252D01*
G37*
G36*
X105008317Y-119164678D02*
G01*
X105008317Y-119657072D01*
X105670245Y-119657072D01*
X105670245Y-119405013D01*
X105673635Y-119376393D01*
X105681969Y-119360042D01*
X105695548Y-119349877D01*
X105713293Y-119346395D01*
X105731022Y-119349880D01*
X105744526Y-119360042D01*
X105752928Y-119376402D01*
X105756341Y-119405013D01*
X105756341Y-119745000D01*
X104806450Y-119745000D01*
X104778593Y-119741414D01*
X104762395Y-119732452D01*
X104752462Y-119718389D01*
X104749114Y-119701036D01*
X104752526Y-119682912D01*
X104762395Y-119669162D01*
X104778544Y-119660542D01*
X104806450Y-119657072D01*
X104922221Y-119657072D01*
X104922221Y-118631252D01*
X104806450Y-118631252D01*
X104778534Y-118627806D01*
X104762395Y-118619254D01*
X104752523Y-118605429D01*
X104749114Y-118587288D01*
X104752526Y-118569164D01*
X104762395Y-118555415D01*
X104778544Y-118546794D01*
X104806450Y-118543325D01*
X105711278Y-118543325D01*
X105711278Y-118836416D01*
X105707869Y-118865042D01*
X105699463Y-118881479D01*
X105685967Y-118891570D01*
X105668230Y-118895034D01*
X105650478Y-118891573D01*
X105636906Y-118881479D01*
X105628569Y-118865051D01*
X105625183Y-118836416D01*
X105625183Y-118631252D01*
X105008317Y-118631252D01*
X105008317Y-119076751D01*
X105316704Y-119076751D01*
X105316704Y-118982962D01*
X105320235Y-118954400D01*
X105328977Y-118937991D01*
X105342995Y-118927803D01*
X105360759Y-118924344D01*
X105377641Y-118927758D01*
X105391442Y-118937991D01*
X105400253Y-118954409D01*
X105403807Y-118982962D01*
X105403807Y-119258468D01*
X105400256Y-119287035D01*
X105391442Y-119303531D01*
X105377648Y-119313691D01*
X105360759Y-119317086D01*
X105342988Y-119313647D01*
X105328977Y-119303531D01*
X105320231Y-119287045D01*
X105316704Y-119258468D01*
X105316704Y-119164678D01*
X105008317Y-119164678D01*
G37*
G36*
X108184878Y-118665416D02*
G01*
X108184878Y-118602767D01*
X108188274Y-118573713D01*
X108196602Y-118557155D01*
X108210197Y-118546846D01*
X108227926Y-118543325D01*
X108245607Y-118546725D01*
X108259067Y-118556605D01*
X108267481Y-118572549D01*
X108270882Y-118600294D01*
X108270882Y-118837057D01*
X108267456Y-118865706D01*
X108259067Y-118881845D01*
X108245615Y-118891654D01*
X108227926Y-118895034D01*
X108211772Y-118892025D01*
X108198617Y-118883128D01*
X108189767Y-118868704D01*
X108184878Y-118844385D01*
X108173094Y-118792855D01*
X108143332Y-118744023D01*
X108091639Y-118696282D01*
X108008750Y-118647133D01*
X107919266Y-118617786D01*
X107821079Y-118607805D01*
X107724376Y-118618645D01*
X107633592Y-118651036D01*
X107573390Y-118686647D01*
X107529086Y-118727423D01*
X107468417Y-118811495D01*
X107421467Y-118904377D01*
X107400244Y-118979050D01*
X107392799Y-119066035D01*
X107392799Y-119216427D01*
X107401563Y-119309769D01*
X107427339Y-119395485D01*
X107470347Y-119475329D01*
X107532109Y-119550552D01*
X107606458Y-119613828D01*
X107684342Y-119657502D01*
X107766948Y-119683467D01*
X107855975Y-119692243D01*
X107928529Y-119686792D01*
X107994212Y-119670956D01*
X108054178Y-119645074D01*
X108137866Y-119587876D01*
X108223804Y-119502283D01*
X108242857Y-119486154D01*
X108262731Y-119481217D01*
X108279640Y-119484119D01*
X108292406Y-119492391D01*
X108300792Y-119504939D01*
X108303672Y-119520876D01*
X108295474Y-119545576D01*
X108259617Y-119592042D01*
X108200318Y-119650124D01*
X108137435Y-119696785D01*
X108070573Y-119732909D01*
X107964005Y-119768553D01*
X107857990Y-119780170D01*
X107765108Y-119771408D01*
X107668396Y-119744267D01*
X107598983Y-119713215D01*
X107546489Y-119679787D01*
X107497433Y-119635047D01*
X107428061Y-119555314D01*
X107366801Y-119467201D01*
X107332257Y-119393381D01*
X107313292Y-119316665D01*
X107306703Y-119229983D01*
X107306703Y-119054769D01*
X107313909Y-118971505D01*
X107336129Y-118885317D01*
X107374847Y-118795017D01*
X107426736Y-118712215D01*
X107488689Y-118644809D01*
X107561326Y-118591135D01*
X107642641Y-118551473D01*
X107727762Y-118527842D01*
X107818056Y-118519877D01*
X107921927Y-118529162D01*
X108016490Y-118556326D01*
X108103673Y-118601325D01*
X108184878Y-118665416D01*
G37*
G36*
X109556363Y-119657072D02*
G01*
X109622950Y-119657072D01*
X109650922Y-119660548D01*
X109667005Y-119669162D01*
X109676945Y-119682920D01*
X109680377Y-119701036D01*
X109677009Y-119718382D01*
X109667005Y-119732452D01*
X109650873Y-119741407D01*
X109622950Y-119745000D01*
X109302289Y-119745000D01*
X109273463Y-119741381D01*
X109257135Y-119732452D01*
X109247202Y-119718389D01*
X109243854Y-119701036D01*
X109247266Y-119682912D01*
X109257135Y-119669162D01*
X109273413Y-119660574D01*
X109302289Y-119657072D01*
X109466237Y-119657072D01*
X109348360Y-119346395D01*
X108782785Y-119346395D01*
X108666922Y-119657072D01*
X108831969Y-119657072D01*
X108859861Y-119660545D01*
X108875933Y-119669162D01*
X108885873Y-119682920D01*
X108889305Y-119701036D01*
X108885937Y-119718382D01*
X108875933Y-119732452D01*
X108859812Y-119741410D01*
X108831969Y-119745000D01*
X108510210Y-119745000D01*
X108482272Y-119741411D01*
X108466063Y-119732452D01*
X108456130Y-119718389D01*
X108452782Y-119701036D01*
X108456194Y-119682912D01*
X108466063Y-119669162D01*
X108482223Y-119660544D01*
X108510210Y-119657072D01*
X108576796Y-119657072D01*
X108724493Y-119258468D01*
X108815574Y-119258468D01*
X109315570Y-119258468D01*
X109077891Y-118631252D01*
X109046109Y-118631252D01*
X108815574Y-119258468D01*
X108724493Y-119258468D01*
X108956899Y-118631252D01*
X108702826Y-118631252D01*
X108674829Y-118627803D01*
X108658679Y-118619254D01*
X108648807Y-118605429D01*
X108645398Y-118587288D01*
X108648810Y-118569164D01*
X108658679Y-118555415D01*
X108674839Y-118546797D01*
X108702826Y-118543325D01*
X109136235Y-118543325D01*
X109556363Y-119657072D01*
G37*
G36*
X110522564Y-118550365D02*
G01*
X110598725Y-118570519D01*
X110665545Y-118603049D01*
X110724515Y-118648196D01*
X110774753Y-118704442D01*
X110809297Y-118763437D01*
X110829790Y-118826113D01*
X110836714Y-118893844D01*
X110827421Y-118973833D01*
X110800353Y-119043961D01*
X110759298Y-119104684D01*
X110712700Y-119148742D01*
X110633521Y-119199193D01*
X110553881Y-119233097D01*
X110490592Y-119247278D01*
X110406328Y-119252606D01*
X110136867Y-119252606D01*
X110136867Y-119657072D01*
X110431974Y-119657072D01*
X110459946Y-119660548D01*
X110476029Y-119669162D01*
X110485969Y-119682920D01*
X110489401Y-119701036D01*
X110486033Y-119718382D01*
X110476029Y-119732452D01*
X110459897Y-119741407D01*
X110431974Y-119745000D01*
X109935000Y-119745000D01*
X109907143Y-119741414D01*
X109890945Y-119732452D01*
X109881012Y-119718389D01*
X109877664Y-119701036D01*
X109881076Y-119682912D01*
X109890945Y-119669162D01*
X109907094Y-119660542D01*
X109935000Y-119657072D01*
X110050771Y-119657072D01*
X110050771Y-119164678D01*
X110136867Y-119164678D01*
X110411457Y-119164678D01*
X110504029Y-119154029D01*
X110590243Y-119122272D01*
X110664493Y-119073425D01*
X110712151Y-119018591D01*
X110741320Y-118955680D01*
X110750619Y-118893844D01*
X110741353Y-118830056D01*
X110713225Y-118770106D01*
X110663516Y-118712035D01*
X110601304Y-118667671D01*
X110528842Y-118640678D01*
X110443239Y-118631252D01*
X110136867Y-118631252D01*
X110136867Y-119164678D01*
X110050771Y-119164678D01*
X110050771Y-118631252D01*
X109935000Y-118631252D01*
X109907084Y-118627806D01*
X109890945Y-118619254D01*
X109881073Y-118605429D01*
X109877664Y-118587288D01*
X109881076Y-118569164D01*
X109890945Y-118555415D01*
X109907094Y-118546794D01*
X109935000Y-118543325D01*
X110435088Y-118543325D01*
X110522564Y-118550365D01*
G37*
G36*
X112074018Y-119657072D02*
G01*
X112140605Y-119657072D01*
X112168577Y-119660548D01*
X112184660Y-119669162D01*
X112194600Y-119682920D01*
X112198032Y-119701036D01*
X112194665Y-119718382D01*
X112184660Y-119732452D01*
X112168528Y-119741407D01*
X112140605Y-119745000D01*
X111819945Y-119745000D01*
X111791118Y-119741381D01*
X111774790Y-119732452D01*
X111764857Y-119718389D01*
X111761509Y-119701036D01*
X111764921Y-119682912D01*
X111774790Y-119669162D01*
X111791068Y-119660574D01*
X111819945Y-119657072D01*
X111983893Y-119657072D01*
X111866015Y-119346395D01*
X111300440Y-119346395D01*
X111184577Y-119657072D01*
X111349624Y-119657072D01*
X111377516Y-119660545D01*
X111393588Y-119669162D01*
X111403528Y-119682920D01*
X111406960Y-119701036D01*
X111403593Y-119718382D01*
X111393588Y-119732452D01*
X111377467Y-119741410D01*
X111349624Y-119745000D01*
X111027865Y-119745000D01*
X110999927Y-119741411D01*
X110983718Y-119732452D01*
X110973785Y-119718389D01*
X110970437Y-119701036D01*
X110973849Y-119682912D01*
X110983718Y-119669162D01*
X110999878Y-119660544D01*
X111027865Y-119657072D01*
X111094452Y-119657072D01*
X111242149Y-119258468D01*
X111333230Y-119258468D01*
X111833225Y-119258468D01*
X111595546Y-118631252D01*
X111563764Y-118631252D01*
X111333230Y-119258468D01*
X111242149Y-119258468D01*
X111474555Y-118631252D01*
X111220481Y-118631252D01*
X111192484Y-118627803D01*
X111176334Y-118619254D01*
X111166462Y-118605429D01*
X111163053Y-118587288D01*
X111166465Y-118569164D01*
X111176334Y-118555415D01*
X111192494Y-118546797D01*
X111220481Y-118543325D01*
X111653890Y-118543325D01*
X112074018Y-119657072D01*
G37*
G36*
X113220189Y-118665416D02*
G01*
X113220189Y-118602767D01*
X113223584Y-118573713D01*
X113231912Y-118557155D01*
X113245507Y-118546846D01*
X113263237Y-118543325D01*
X113280917Y-118546725D01*
X113294378Y-118556605D01*
X113302792Y-118572549D01*
X113306193Y-118600294D01*
X113306193Y-118837057D01*
X113302766Y-118865706D01*
X113294378Y-118881845D01*
X113280925Y-118891654D01*
X113263237Y-118895034D01*
X113247083Y-118892025D01*
X113233927Y-118883128D01*
X113225077Y-118868704D01*
X113220189Y-118844385D01*
X113208404Y-118792855D01*
X113178643Y-118744023D01*
X113126949Y-118696282D01*
X113044061Y-118647133D01*
X112954576Y-118617786D01*
X112856389Y-118607805D01*
X112759687Y-118618645D01*
X112668902Y-118651036D01*
X112608701Y-118686647D01*
X112564397Y-118727423D01*
X112503728Y-118811495D01*
X112456777Y-118904377D01*
X112435555Y-118979050D01*
X112428109Y-119066035D01*
X112428109Y-119216427D01*
X112436874Y-119309769D01*
X112462650Y-119395485D01*
X112505658Y-119475329D01*
X112567419Y-119550552D01*
X112641769Y-119613828D01*
X112719653Y-119657502D01*
X112802258Y-119683467D01*
X112891285Y-119692243D01*
X112963839Y-119686792D01*
X113029522Y-119670956D01*
X113089488Y-119645074D01*
X113173177Y-119587876D01*
X113259115Y-119502283D01*
X113278167Y-119486154D01*
X113298041Y-119481217D01*
X113314950Y-119484119D01*
X113327717Y-119492391D01*
X113336102Y-119504939D01*
X113338982Y-119520876D01*
X113330785Y-119545576D01*
X113294927Y-119592042D01*
X113235628Y-119650124D01*
X113172746Y-119696785D01*
X113105883Y-119732909D01*
X112999315Y-119768553D01*
X112893300Y-119780170D01*
X112800418Y-119771408D01*
X112703707Y-119744267D01*
X112634293Y-119713215D01*
X112581799Y-119679787D01*
X112532744Y-119635047D01*
X112463372Y-119555314D01*
X112402111Y-119467201D01*
X112367568Y-119393381D01*
X112348603Y-119316665D01*
X112342014Y-119229983D01*
X112342014Y-119054769D01*
X112349220Y-118971505D01*
X112371439Y-118885317D01*
X112410157Y-118795017D01*
X112462047Y-118712215D01*
X112524000Y-118644809D01*
X112596637Y-118591135D01*
X112677951Y-118551473D01*
X112763073Y-118527842D01*
X112853367Y-118519877D01*
X112957238Y-118529162D01*
X113051801Y-118556326D01*
X113138983Y-118601325D01*
X113220189Y-118665416D01*
G37*
G36*
X114143885Y-118631252D02*
G01*
X114143885Y-119657072D01*
X114438991Y-119657072D01*
X114466964Y-119660548D01*
X114483046Y-119669162D01*
X114492987Y-119682920D01*
X114496419Y-119701036D01*
X114493051Y-119718382D01*
X114483046Y-119732452D01*
X114466914Y-119741407D01*
X114438991Y-119745000D01*
X113762683Y-119745000D01*
X113734825Y-119741414D01*
X113718627Y-119732452D01*
X113708695Y-119718389D01*
X113705347Y-119701036D01*
X113708758Y-119682912D01*
X113718627Y-119669162D01*
X113734776Y-119660542D01*
X113762683Y-119657072D01*
X114057789Y-119657072D01*
X114057789Y-118631252D01*
X113762683Y-118631252D01*
X113734767Y-118627806D01*
X113718627Y-118619254D01*
X113708755Y-118605429D01*
X113705347Y-118587288D01*
X113708758Y-118569164D01*
X113718627Y-118555415D01*
X113734776Y-118546794D01*
X113762683Y-118543325D01*
X114438991Y-118543325D01*
X114466964Y-118546801D01*
X114483046Y-118555415D01*
X114492987Y-118569172D01*
X114496419Y-118587288D01*
X114492990Y-118605421D01*
X114483046Y-118619254D01*
X114466973Y-118627800D01*
X114438991Y-118631252D01*
X114143885Y-118631252D01*
G37*
G36*
X115401705Y-118631252D02*
G01*
X115401705Y-119657072D01*
X115625095Y-119657072D01*
X115652987Y-119660545D01*
X115669059Y-119669162D01*
X115678999Y-119682920D01*
X115682431Y-119701036D01*
X115679064Y-119718382D01*
X115669059Y-119732452D01*
X115652938Y-119741410D01*
X115625095Y-119745000D01*
X115091211Y-119745000D01*
X115063354Y-119741414D01*
X115047156Y-119732452D01*
X115037223Y-119718389D01*
X115033875Y-119701036D01*
X115037287Y-119682912D01*
X115047156Y-119669162D01*
X115063305Y-119660542D01*
X115091211Y-119657072D01*
X115314602Y-119657072D01*
X115314602Y-118631252D01*
X114962159Y-118631252D01*
X114962159Y-118924344D01*
X114958726Y-118953330D01*
X114950344Y-118969590D01*
X114936863Y-118979537D01*
X114919112Y-118982962D01*
X114902191Y-118979609D01*
X114888337Y-118969590D01*
X114879615Y-118953281D01*
X114876064Y-118924344D01*
X114876064Y-118543325D01*
X115840243Y-118543325D01*
X115840243Y-118924344D01*
X115836810Y-118953330D01*
X115828428Y-118969590D01*
X115814960Y-118979541D01*
X115797287Y-118982962D01*
X115779518Y-118979540D01*
X115765963Y-118969590D01*
X115757648Y-118953340D01*
X115754239Y-118924344D01*
X115754239Y-118631252D01*
X115401705Y-118631252D01*
G37*
G36*
X116710756Y-118528907D02*
G01*
X116797668Y-118555922D01*
X116881908Y-118601851D01*
X116956448Y-118662707D01*
X117020329Y-118738248D01*
X117073975Y-118830371D01*
X117112732Y-118930082D01*
X117136227Y-119036187D01*
X117144225Y-119150024D01*
X117136312Y-119263161D01*
X117113020Y-119369134D01*
X117074524Y-119469219D01*
X117021140Y-119561578D01*
X116957267Y-119637265D01*
X116882458Y-119698196D01*
X116797868Y-119744144D01*
X116710768Y-119771150D01*
X116619591Y-119780170D01*
X116520110Y-119769440D01*
X116427169Y-119737493D01*
X116338670Y-119683172D01*
X116253227Y-119603400D01*
X116185234Y-119510889D01*
X116136100Y-119406129D01*
X116105611Y-119286834D01*
X116094958Y-119150024D01*
X116180962Y-119150024D01*
X116190064Y-119268352D01*
X116216077Y-119371265D01*
X116257917Y-119461364D01*
X116315692Y-119540660D01*
X116388624Y-119609632D01*
X116462726Y-119656143D01*
X116539144Y-119683224D01*
X116619591Y-119692243D01*
X116712092Y-119681836D01*
X116793993Y-119651451D01*
X116867847Y-119600567D01*
X116935122Y-119526372D01*
X116988599Y-119440417D01*
X117026460Y-119349802D01*
X117049341Y-119253450D01*
X117057122Y-119150024D01*
X117049362Y-119047187D01*
X117026514Y-118951122D01*
X116988658Y-118860517D01*
X116935122Y-118774317D01*
X116867807Y-118699800D01*
X116793939Y-118648726D01*
X116712053Y-118618243D01*
X116619591Y-118607805D01*
X116533076Y-118617519D01*
X116453806Y-118646269D01*
X116379718Y-118695004D01*
X116309556Y-118766624D01*
X116253817Y-118849164D01*
X116213890Y-118939527D01*
X116189409Y-119039187D01*
X116180962Y-119150024D01*
X116094958Y-119150024D01*
X116105635Y-119012609D01*
X116136161Y-118893057D01*
X116185298Y-118788332D01*
X116253227Y-118696099D01*
X116338636Y-118616600D01*
X116427126Y-118562443D01*
X116520081Y-118530581D01*
X116619591Y-118519877D01*
X116710756Y-118528907D01*
G37*
G36*
X117994126Y-118550016D02*
G01*
X118064621Y-118569414D01*
X118128281Y-118601182D01*
X118186256Y-118645907D01*
X118236150Y-118701082D01*
X118270008Y-118757402D01*
X118289822Y-118815717D01*
X118296441Y-118877266D01*
X118289155Y-118936785D01*
X118266997Y-118994571D01*
X118228297Y-119052021D01*
X118177754Y-119099819D01*
X118103866Y-119145555D01*
X118000327Y-119188584D01*
X118086674Y-119256493D01*
X118158138Y-119331191D01*
X118230816Y-119432959D01*
X118368156Y-119657072D01*
X118433736Y-119657072D01*
X118461708Y-119660548D01*
X118477791Y-119669162D01*
X118487731Y-119682920D01*
X118491163Y-119701036D01*
X118487795Y-119718382D01*
X118477791Y-119732452D01*
X118461659Y-119741407D01*
X118433736Y-119745000D01*
X118318972Y-119745000D01*
X118163454Y-119485844D01*
X118071493Y-119362698D01*
X118009722Y-119302299D01*
X117942767Y-119252123D01*
X117870176Y-119211573D01*
X117596593Y-119211573D01*
X117596593Y-119657072D01*
X117755412Y-119657072D01*
X117784274Y-119660577D01*
X117800475Y-119669162D01*
X117810415Y-119682920D01*
X117813847Y-119701036D01*
X117810479Y-119718382D01*
X117800475Y-119732452D01*
X117784224Y-119741377D01*
X117755412Y-119745000D01*
X117394726Y-119745000D01*
X117366869Y-119741414D01*
X117350671Y-119732452D01*
X117340738Y-119718389D01*
X117337390Y-119701036D01*
X117340802Y-119682912D01*
X117350671Y-119669162D01*
X117366820Y-119660542D01*
X117394726Y-119657072D01*
X117510498Y-119657072D01*
X117510498Y-119123646D01*
X117596593Y-119123646D01*
X117831250Y-119123646D01*
X117940107Y-119113095D01*
X118035589Y-119082613D01*
X118118015Y-119035623D01*
X118168854Y-118986168D01*
X118200460Y-118928909D01*
X118210345Y-118873327D01*
X118201592Y-118819373D01*
X118174114Y-118765308D01*
X118123700Y-118709196D01*
X118062212Y-118666086D01*
X117992838Y-118640183D01*
X117913224Y-118631252D01*
X117596593Y-118631252D01*
X117596593Y-119123646D01*
X117510498Y-119123646D01*
X117510498Y-118631252D01*
X117394726Y-118631252D01*
X117366810Y-118627806D01*
X117350671Y-118619254D01*
X117340799Y-118605429D01*
X117337390Y-118587288D01*
X117340802Y-118569164D01*
X117350671Y-118555415D01*
X117366820Y-118546794D01*
X117394726Y-118543325D01*
X117915239Y-118543325D01*
X117994126Y-118550016D01*
G37*
M02*
