M48
; DRILL file KiCad 10.0.0 date 2026-04-06T00:19:52
; FORMAT={-:-/ absolute / metric / decimal}
; #@! TF.CreationDate,2026-04-06T00:19:52+10:00
; #@! TF.GenerationSoftware,Kicad,Pcbnew,10.0.0
; #@! TF.FileFunction,NonPlated,1,2,NPTH
FMAT,2
METRIC
; #@! TA.AperFunction,NonPlated,NPTH,ComponentDrill
T1C0.500
; #@! TA.AperFunction,NonPlated,NPTH,ComponentDrill
T2C3.500
%
G90
G05
T1
X78.3Y-99.75
X78.3Y-102.25
X79.15Y-99.75
X79.15Y-102.25
X80.0Y-99.75
X80.0Y-102.25
X80.85Y-99.75
X80.85Y-102.25
X81.15Y-74.0
X81.15Y-75.0
X81.7Y-99.75
X81.7Y-102.25
X82.0Y-74.0
X82.0Y-75.0
X82.85Y-74.0
X82.85Y-75.0
X88.3Y-99.75
X88.3Y-102.25
X89.15Y-99.75
X89.15Y-102.25
X90.0Y-99.75
X90.0Y-102.25
X90.15Y-74.0
X90.15Y-75.0
X90.85Y-99.75
X90.85Y-102.25
X91.0Y-74.0
X91.0Y-75.0
X91.7Y-99.75
X91.7Y-102.25
X91.85Y-74.0
X91.85Y-75.0
X99.15Y-74.0
X99.15Y-75.0
X100.0Y-74.0
X100.0Y-75.0
X100.85Y-74.0
X100.85Y-75.0
X108.15Y-74.0
X108.15Y-75.0
X108.3Y-99.75
X108.3Y-102.25
X109.0Y-74.0
X109.0Y-75.0
X109.15Y-99.75
X109.15Y-102.25
X109.85Y-74.0
X109.85Y-75.0
X110.0Y-99.75
X110.0Y-102.25
X110.85Y-99.75
X110.85Y-102.25
X111.7Y-99.75
X111.7Y-102.25
X117.15Y-74.0
X117.15Y-75.0
X118.0Y-74.0
X118.0Y-75.0
X118.3Y-99.75
X118.3Y-102.25
X118.85Y-74.0
X118.85Y-75.0
X119.15Y-99.75
X119.15Y-102.25
X120.0Y-99.75
X120.0Y-102.25
X120.85Y-99.75
X120.85Y-102.25
X121.7Y-99.75
X121.7Y-102.25
T2
X109.0Y-71.0
X118.0Y-71.0
M30
