M48
; DRILL file KiCad 10.0.0 date 2026-04-06T00:19:52
; FORMAT={-:-/ absolute / metric / decimal}
; #@! TF.CreationDate,2026-04-06T00:19:52+10:00
; #@! TF.GenerationSoftware,Kicad,Pcbnew,10.0.0
; #@! TF.FileFunction,Plated,1,2,PTH
FMAT,2
METRIC
; #@! TA.AperFunction,Plated,PTH,ViaDrill
T1C0.300
; #@! TA.AperFunction,Plated,PTH,ComponentDrill
T2C3.200
%
G90
G05
T1
X76.091Y-97.908
X76.091Y-104.092
X76.365Y-95.832
X76.365Y-106.168
X76.818Y-93.788
X76.818Y-108.212
X77.447Y-91.792
X77.447Y-110.208
X78.249Y-89.857
X78.249Y-112.143
X79.215Y-88.0
X79.215Y-114.0
X80.34Y-86.234
X80.34Y-115.766
X81.615Y-84.573
X81.615Y-117.427
X83.029Y-83.029
X83.029Y-118.971
X84.573Y-81.615
X84.573Y-120.385
X85.057Y-98.693
X85.228Y-97.395
X85.231Y-103.3
X85.511Y-96.118
X85.575Y-104.574
X85.905Y-94.87
X86.029Y-105.814
X86.234Y-80.34
X86.234Y-121.66
X86.405Y-93.661
X86.589Y-107.01
X87.01Y-92.5
X87.251Y-108.152
X87.713Y-91.396
X88.0Y-79.215
X88.0Y-122.785
X88.01Y-109.232
X88.509Y-90.358
X88.86Y-110.242
X89.393Y-89.393
X89.795Y-111.174
X89.857Y-78.249
X89.857Y-123.751
X90.358Y-88.509
X90.808Y-112.021
X91.396Y-87.713
X91.792Y-77.447
X91.792Y-124.553
X91.89Y-112.776
X92.5Y-87.01
X93.035Y-113.434
X93.525Y-99.433
X93.599Y-98.871
X93.661Y-86.405
X93.721Y-98.318
X93.788Y-76.818
X93.788Y-125.182
X93.892Y-97.777
X94.109Y-97.253
X94.232Y-113.99
X94.371Y-96.75
X94.676Y-96.272
X94.87Y-85.905
X95.021Y-95.822
X95.404Y-95.404
X95.473Y-114.44
X95.822Y-95.021
X95.832Y-76.365
X95.832Y-125.635
X96.118Y-85.511
X96.272Y-94.676
X96.749Y-114.779
X96.75Y-94.371
X97.253Y-94.109
X97.395Y-85.228
X97.777Y-93.892
X97.908Y-76.091
X97.908Y-125.909
X98.05Y-115.007
X98.318Y-93.721
X98.693Y-85.057
X98.871Y-93.599
X99.365Y-115.119
X99.433Y-93.525
X100.0Y-76.0
X100.0Y-85.0
X100.0Y-93.5
X100.0Y-126.0
X100.567Y-93.525
X100.685Y-115.117
X101.129Y-93.599
X101.307Y-85.057
X101.682Y-93.721
X102.0Y-115.0
X102.092Y-76.091
X102.092Y-125.909
X102.223Y-93.892
X102.605Y-85.228
X102.747Y-94.109
X103.25Y-94.371
X103.3Y-114.769
X103.728Y-94.676
X103.882Y-85.511
X104.168Y-76.365
X104.168Y-125.635
X104.178Y-95.021
X104.574Y-114.425
X104.596Y-95.404
X104.979Y-95.822
X105.13Y-85.905
X105.324Y-96.272
X105.629Y-96.75
X105.814Y-113.971
X105.891Y-97.253
X106.108Y-97.777
X106.212Y-76.818
X106.212Y-125.182
X106.279Y-98.318
X106.339Y-86.405
X106.401Y-98.871
X106.475Y-99.433
X107.01Y-113.411
X107.5Y-87.01
X108.152Y-112.749
X108.208Y-77.447
X108.208Y-124.553
X108.604Y-87.713
X109.232Y-111.99
X109.642Y-88.509
X110.143Y-78.249
X110.143Y-123.751
X110.242Y-111.14
X110.607Y-89.393
X111.174Y-110.205
X111.491Y-90.358
X112.0Y-79.215
X112.0Y-122.785
X112.021Y-109.192
X112.287Y-91.396
X112.776Y-108.11
X112.99Y-92.5
X113.434Y-106.965
X113.595Y-93.661
X113.766Y-80.34
X113.766Y-121.66
X113.99Y-105.768
X114.095Y-94.87
X114.44Y-104.527
X114.489Y-96.118
X114.772Y-97.395
X114.779Y-103.251
X114.943Y-98.693
X115.427Y-81.615
X115.427Y-120.385
X116.971Y-83.029
X116.971Y-118.971
X118.385Y-84.573
X118.385Y-117.427
X119.66Y-86.234
X119.66Y-115.766
X120.785Y-88.0
X120.785Y-114.0
X121.751Y-89.857
X121.751Y-112.143
X122.553Y-91.792
X122.553Y-110.208
X123.182Y-93.788
X123.182Y-108.212
X123.635Y-95.832
X123.635Y-106.168
X123.909Y-97.908
X123.909Y-104.092
T2
X78.5Y-78.5
X82.0Y-71.0
X91.0Y-71.0
X100.0Y-71.0
X100.0Y-102.0
X121.5Y-78.5
M30
