%TF.GenerationSoftware,KiCad,Pcbnew,10.0.0*%
%TF.CreationDate,2026-04-06T00:33:49+10:00*%
%TF.ProjectId,rotor,726f746f-722e-46b6-9963-61645f706362,rev?*%
%TF.SameCoordinates,Original*%
%TF.FileFunction,Copper,L2,Bot*%
%TF.FilePolarity,Positive*%
%FSLAX46Y46*%
G04 Gerber Fmt 4.6, Leading zero omitted, Abs format (unit mm)*
G04 Created by KiCad (PCBNEW 10.0.0) date 2026-04-06 00:33:49*
%MOMM*%
%LPD*%
G01*
G04 APERTURE LIST*
%TA.AperFunction,ComponentPad*%
%ADD10C,3.600000*%
%TD*%
%TA.AperFunction,ConnectorPad*%
%ADD11C,5.500000*%
%TD*%
%TA.AperFunction,ViaPad*%
%ADD12C,0.600000*%
%TD*%
G04 APERTURE END LIST*
D10*
%TO.P,ROTOR,1*%
%TO.N,ROTOR*%
X100000000Y-102000000D03*
D11*
X100000000Y-102000000D03*
%TD*%
D12*
%TO.N,ROTOR*%
X113990381Y-105767949D03*
X100000000Y-126000000D03*
X88000000Y-122784610D03*
X103299726Y-114768609D03*
X114779430Y-103250917D03*
X108208483Y-124552623D03*
X123908673Y-104091738D03*
X89857162Y-123751387D03*
X79215390Y-114000000D03*
X76091327Y-104091738D03*
X109232051Y-111990381D03*
X114439853Y-104526658D03*
X90807612Y-112020815D03*
X88009619Y-109232051D03*
X108151890Y-112749380D03*
X104574338Y-114424820D03*
X123635386Y-106167556D03*
X99364893Y-115119413D03*
X97908262Y-125908673D03*
X105814137Y-113971249D03*
X121751387Y-112142838D03*
X113434434Y-106965342D03*
X102000000Y-115000000D03*
X106211657Y-125182220D03*
X76364614Y-106167556D03*
X123182220Y-108211657D03*
X85575180Y-104574338D03*
X110142838Y-123751387D03*
X81614933Y-117426903D03*
X96749083Y-114779430D03*
X89794909Y-111173903D03*
X85231391Y-103299726D03*
X86028751Y-105814137D03*
X77447377Y-110208483D03*
X116970563Y-118970563D03*
X98049566Y-115006525D03*
X93034658Y-113434434D03*
X119659649Y-115765834D03*
X118385067Y-117426903D03*
X87250620Y-108151890D03*
X86234166Y-121659649D03*
X112000000Y-122784610D03*
X91791517Y-124552623D03*
X86588651Y-107009687D03*
X95832444Y-125635386D03*
X104167556Y-125635386D03*
X122552623Y-110208483D03*
X80340351Y-115765834D03*
X115426903Y-120385067D03*
X94232051Y-113990381D03*
X91890275Y-112776242D03*
X84573097Y-120385067D03*
X112776242Y-108109725D03*
X93788343Y-125182220D03*
X111173903Y-110205091D03*
X110241951Y-111140128D03*
X88859872Y-110241951D03*
X76817780Y-108211657D03*
X95473342Y-114439853D03*
X112020815Y-109192388D03*
X83029437Y-118970563D03*
X78248613Y-112142838D03*
X100685053Y-115117232D03*
X113765834Y-121659649D03*
X120784610Y-114000000D03*
X102091738Y-125908673D03*
X107009687Y-113411349D03*
%TD*%
%TA.AperFunction,Conductor*%
%TO.N,ROTOR*%
G36*
X102953735Y-102019685D02*
G01*
X102999490Y-102072489D01*
X103006471Y-102091907D01*
X103033608Y-102193187D01*
X103066554Y-102250250D01*
X103099500Y-102307314D01*
X103192686Y-102400500D01*
X103306814Y-102466392D01*
X103434108Y-102500500D01*
X124363057Y-102500500D01*
X124430096Y-102520185D01*
X124475851Y-102572989D01*
X124487032Y-102626965D01*
X124480180Y-102971548D01*
X124479984Y-102976475D01*
X124422201Y-103944009D01*
X124421810Y-103948925D01*
X124325603Y-104913436D01*
X124325016Y-104918331D01*
X124190544Y-105878227D01*
X124189763Y-105883096D01*
X124017233Y-106836899D01*
X124016259Y-106841732D01*
X123805945Y-107787923D01*
X123804780Y-107792714D01*
X123557024Y-108729763D01*
X123555669Y-108734504D01*
X123270839Y-109661013D01*
X123269296Y-109665697D01*
X122947871Y-110580110D01*
X122946144Y-110584728D01*
X122588607Y-111485667D01*
X122586697Y-111490213D01*
X122193646Y-112376181D01*
X122191558Y-112380648D01*
X121763566Y-113250346D01*
X121761301Y-113254726D01*
X121299085Y-114106694D01*
X121296648Y-114110980D01*
X120800922Y-114943906D01*
X120798316Y-114948092D01*
X120269876Y-115760640D01*
X120267106Y-115764719D01*
X119706790Y-116555600D01*
X119703861Y-116559566D01*
X119112516Y-117327583D01*
X119109430Y-117331430D01*
X118488038Y-118075308D01*
X118484803Y-118079028D01*
X117834322Y-118797620D01*
X117830941Y-118801209D01*
X117152411Y-119493366D01*
X117148890Y-119496818D01*
X116443364Y-120161467D01*
X116439708Y-120164776D01*
X115708335Y-120800833D01*
X115704551Y-120803994D01*
X114948455Y-121410481D01*
X114944548Y-121413489D01*
X114164961Y-121989420D01*
X114160938Y-121992271D01*
X113359029Y-122536782D01*
X113354895Y-122539470D01*
X112532012Y-123051645D01*
X112527775Y-123054167D01*
X111685152Y-123533237D01*
X111680818Y-123535588D01*
X110819831Y-123980771D01*
X110815407Y-123982948D01*
X109937412Y-124393546D01*
X109932905Y-124395546D01*
X109039260Y-124770921D01*
X109034677Y-124772740D01*
X108126811Y-125112292D01*
X108122159Y-125113927D01*
X107201529Y-125417110D01*
X107196816Y-125418559D01*
X106264841Y-125684908D01*
X106260074Y-125686168D01*
X105318267Y-125915249D01*
X105313453Y-125916319D01*
X104363284Y-126107775D01*
X104358432Y-126108653D01*
X103401384Y-126262186D01*
X103396501Y-126262870D01*
X102434107Y-126378232D01*
X102429201Y-126378721D01*
X101463000Y-126455729D01*
X101458078Y-126456023D01*
X100489567Y-126494559D01*
X100484637Y-126494657D01*
X99515363Y-126494657D01*
X99510433Y-126494559D01*
X98541921Y-126456023D01*
X98536999Y-126455729D01*
X97570798Y-126378721D01*
X97565892Y-126378232D01*
X96603498Y-126262870D01*
X96598615Y-126262186D01*
X95641567Y-126108653D01*
X95636715Y-126107775D01*
X94686546Y-125916319D01*
X94681732Y-125915249D01*
X93739925Y-125686168D01*
X93735158Y-125684908D01*
X92803183Y-125418559D01*
X92798470Y-125417110D01*
X91877840Y-125113927D01*
X91873188Y-125112292D01*
X90965322Y-124772740D01*
X90960739Y-124770921D01*
X90067094Y-124395546D01*
X90062587Y-124393546D01*
X89184592Y-123982948D01*
X89180168Y-123980771D01*
X88319181Y-123535588D01*
X88314847Y-123533237D01*
X87472224Y-123054167D01*
X87467987Y-123051645D01*
X86645104Y-122539470D01*
X86640970Y-122536782D01*
X85839061Y-121992271D01*
X85835038Y-121989420D01*
X85055451Y-121413489D01*
X85051544Y-121410481D01*
X84295438Y-120803986D01*
X84291664Y-120800833D01*
X83560291Y-120164776D01*
X83556635Y-120161467D01*
X82851109Y-119496818D01*
X82847588Y-119493366D01*
X82577647Y-119218004D01*
X82169049Y-118801199D01*
X82165677Y-118797620D01*
X81515196Y-118079028D01*
X81511961Y-118075308D01*
X80890569Y-117331430D01*
X80887483Y-117327583D01*
X80296138Y-116559566D01*
X80293209Y-116555600D01*
X79732893Y-115764719D01*
X79730123Y-115760640D01*
X79201683Y-114948092D01*
X79199077Y-114943906D01*
X78703351Y-114110980D01*
X78700914Y-114106694D01*
X78238698Y-113254726D01*
X78236433Y-113250346D01*
X77808441Y-112380648D01*
X77806353Y-112376181D01*
X77737626Y-112221266D01*
X77413302Y-111490213D01*
X77411392Y-111485667D01*
X77336112Y-111295972D01*
X77053845Y-110584702D01*
X77052138Y-110580138D01*
X76730695Y-109665675D01*
X76729160Y-109661013D01*
X76444321Y-108734472D01*
X76442994Y-108729830D01*
X76195210Y-107792680D01*
X76194054Y-107787923D01*
X76122509Y-107466044D01*
X75983733Y-106841699D01*
X75982772Y-106836933D01*
X75810232Y-105883073D01*
X75809455Y-105878227D01*
X75755707Y-105494557D01*
X75674979Y-104918305D01*
X75674399Y-104913466D01*
X75578185Y-103948876D01*
X75577801Y-103944053D01*
X75520013Y-102976429D01*
X75519820Y-102971595D01*
X75512968Y-102626965D01*
X75531316Y-102559547D01*
X75583200Y-102512752D01*
X75636943Y-102500500D01*
X96565890Y-102500500D01*
X96565892Y-102500500D01*
X96693186Y-102466392D01*
X96807314Y-102400500D01*
X96900500Y-102307314D01*
X96966392Y-102193186D01*
X96993529Y-102091905D01*
X97029894Y-102032246D01*
X97092741Y-102001717D01*
X97113304Y-102000000D01*
X102886696Y-102000000D01*
X102953735Y-102019685D01*
G37*
%TD.AperFunction*%
%TD*%
M02*
