M48
; DRILL file KiCad 10.0.0 date 2026-04-06T00:33:47
; FORMAT={-:-/ absolute / metric / decimal}
; #@! TF.CreationDate,2026-04-06T00:33:47+10:00
; #@! TF.GenerationSoftware,Kicad,Pcbnew,10.0.0
; #@! TF.FileFunction,Plated,1,2,PTH
FMAT,2
METRIC
; #@! TA.AperFunction,Plated,PTH,ViaDrill
T1C0.300
; #@! TA.AperFunction,Plated,PTH,ComponentDrill
T2C3.200
%
G90
G05
T1
X76.091Y-104.092
X76.365Y-106.168
X76.818Y-108.212
X77.447Y-110.208
X78.249Y-112.143
X79.215Y-114.0
X80.34Y-115.766
X81.615Y-117.427
X83.029Y-118.971
X84.573Y-120.385
X85.231Y-103.3
X85.575Y-104.574
X86.029Y-105.814
X86.234Y-121.66
X86.589Y-107.01
X87.251Y-108.152
X88.0Y-122.785
X88.01Y-109.232
X88.86Y-110.242
X89.795Y-111.174
X89.857Y-123.751
X90.808Y-112.021
X91.792Y-124.553
X91.89Y-112.776
X93.035Y-113.434
X93.788Y-125.182
X94.232Y-113.99
X95.473Y-114.44
X95.832Y-125.635
X96.749Y-114.779
X97.908Y-125.909
X98.05Y-115.007
X99.365Y-115.119
X100.0Y-126.0
X100.685Y-115.117
X102.0Y-115.0
X102.092Y-125.909
X103.3Y-114.769
X104.168Y-125.635
X104.574Y-114.425
X105.814Y-113.971
X106.212Y-125.182
X107.01Y-113.411
X108.152Y-112.749
X108.208Y-124.553
X109.232Y-111.99
X110.143Y-123.751
X110.242Y-111.14
X111.174Y-110.205
X112.0Y-122.785
X112.021Y-109.192
X112.776Y-108.11
X113.434Y-106.965
X113.766Y-121.66
X113.99Y-105.768
X114.44Y-104.527
X114.779Y-103.251
X115.427Y-120.385
X116.971Y-118.971
X118.385Y-117.427
X119.66Y-115.766
X120.785Y-114.0
X121.751Y-112.143
X122.553Y-110.208
X123.182Y-108.212
X123.635Y-106.168
X123.909Y-104.092
T2
X100.0Y-102.0
M30
