%TF.GenerationSoftware,KiCad,Pcbnew,10.0.0*%
%TF.CreationDate,2026-04-06T00:33:49+10:00*%
%TF.ProjectId,rotor,726f746f-722e-46b6-9963-61645f706362,rev?*%
%TF.SameCoordinates,Original*%
%TF.FileFunction,Legend,Top*%
%TF.FilePolarity,Positive*%
%FSLAX46Y46*%
G04 Gerber Fmt 4.6, Leading zero omitted, Abs format (unit mm)*
G04 Created by KiCad (PCBNEW 10.0.0) date 2026-04-06 00:33:49*
%MOMM*%
%LPD*%
G01*
G04 APERTURE LIST*
%ADD10C,0.100000*%
%ADD11C,0.150000*%
G04 APERTURE END LIST*
D10*
X124500000Y-102000000D02*
X124499067Y-102213800D01*
X124499067Y-102213800D02*
X124496269Y-102427584D01*
X124496269Y-102427584D02*
X124491604Y-102641335D01*
X124491604Y-102641335D02*
X124485075Y-102855038D01*
X124485075Y-102855038D02*
X124476681Y-103068675D01*
X124476681Y-103068675D02*
X124475310Y-103099630D01*
X124454096Y-103499063D02*
X124440083Y-103712406D01*
X124440083Y-103712406D02*
X124424209Y-103925618D01*
X124424209Y-103925618D02*
X124406475Y-104138683D01*
X124406475Y-104138683D02*
X124386883Y-104351586D01*
X124386883Y-104351586D02*
X124365433Y-104564309D01*
X124365433Y-104564309D02*
X124362170Y-104595123D01*
X124316556Y-104992509D02*
X124289516Y-105204594D01*
X124289516Y-105204594D02*
X124260626Y-105416435D01*
X124260626Y-105416435D02*
X124229888Y-105628017D01*
X124229888Y-105628017D02*
X124197306Y-105839321D01*
X124197306Y-105839321D02*
X124162881Y-106050334D01*
X124162881Y-106050334D02*
X124157739Y-106080890D01*
X124087895Y-106474741D02*
X124047929Y-106684774D01*
X124047929Y-106684774D02*
X124006132Y-106894451D01*
X124006132Y-106894451D02*
X123962506Y-107103755D01*
X123962506Y-107103755D02*
X123917055Y-107312670D01*
X123917055Y-107312670D02*
X123869783Y-107521181D01*
X123869783Y-107521181D02*
X123862782Y-107551365D01*
X123768971Y-107940205D02*
X123716228Y-108147399D01*
X123716228Y-108147399D02*
X123661680Y-108354126D01*
X123661680Y-108354126D02*
X123605329Y-108560368D01*
X123605329Y-108560368D02*
X123547181Y-108766111D01*
X123547181Y-108766111D02*
X123487240Y-108971339D01*
X123487240Y-108971339D02*
X123478404Y-109001038D01*
X123360978Y-109383409D02*
X123295656Y-109586988D01*
X123295656Y-109586988D02*
X123228561Y-109789990D01*
X123228561Y-109789990D02*
X123159697Y-109992398D01*
X123159697Y-109992398D02*
X123089069Y-110194198D01*
X123089069Y-110194198D02*
X123016683Y-110395373D01*
X123016683Y-110395373D02*
X123006047Y-110424476D01*
X122865445Y-110798946D02*
X122787790Y-110998147D01*
X122787790Y-110998147D02*
X122708399Y-111196663D01*
X122708399Y-111196663D02*
X122627280Y-111394478D01*
X122627280Y-111394478D02*
X122544437Y-111591578D01*
X122544437Y-111591578D02*
X122459877Y-111787948D01*
X122459877Y-111787948D02*
X122447480Y-111816346D01*
X122284229Y-112181510D02*
X122194531Y-112375587D01*
X122194531Y-112375587D02*
X122103143Y-112568873D01*
X122103143Y-112568873D02*
X122010071Y-112761355D01*
X122010071Y-112761355D02*
X121915324Y-112953017D01*
X121915324Y-112953017D02*
X121818908Y-113143844D01*
X121818908Y-113143844D02*
X121804796Y-113171430D01*
X121619508Y-113525922D02*
X121518103Y-113714147D01*
X121518103Y-113714147D02*
X121415060Y-113901479D01*
X121415060Y-113901479D02*
X121310386Y-114087905D01*
X121310386Y-114087905D02*
X121204089Y-114273411D01*
X121204089Y-114273411D02*
X121096177Y-114457982D01*
X121096177Y-114457982D02*
X121080404Y-114484653D01*
X120873773Y-114827144D02*
X120761041Y-115008811D01*
X120761041Y-115008811D02*
X120646729Y-115189487D01*
X120646729Y-115189487D02*
X120530844Y-115369160D01*
X120530844Y-115369160D02*
X120413396Y-115547814D01*
X120413396Y-115547814D02*
X120294393Y-115725436D01*
X120294393Y-115725436D02*
X120277018Y-115751092D01*
X120049818Y-116080298D02*
X119926182Y-116254727D01*
X119926182Y-116254727D02*
X119801029Y-116428071D01*
X119801029Y-116428071D02*
X119674368Y-116600316D01*
X119674368Y-116600316D02*
X119546209Y-116771449D01*
X119546209Y-116771449D02*
X119416561Y-116941457D01*
X119416561Y-116941457D02*
X119397649Y-116966002D01*
X119150732Y-117280690D02*
X119016655Y-117447228D01*
X119016655Y-117447228D02*
X118881130Y-117612589D01*
X118881130Y-117612589D02*
X118744167Y-117776761D01*
X118744167Y-117776761D02*
X118605777Y-117939732D01*
X118605777Y-117939732D02*
X118465970Y-118101489D01*
X118465970Y-118101489D02*
X118445591Y-118124831D01*
X118179882Y-118423821D02*
X118035867Y-118581843D01*
X118035867Y-118581843D02*
X117890478Y-118738602D01*
X117890478Y-118738602D02*
X117743727Y-118894087D01*
X117743727Y-118894087D02*
X117595624Y-119048285D01*
X117595624Y-119048285D02*
X117446182Y-119201184D01*
X117446182Y-119201184D02*
X117424413Y-119223235D01*
X117140908Y-119505407D02*
X116987493Y-119654322D01*
X116987493Y-119654322D02*
X116832785Y-119801891D01*
X116832785Y-119801891D02*
X116676796Y-119948105D01*
X116676796Y-119948105D02*
X116519536Y-120092953D01*
X116519536Y-120092953D02*
X116361018Y-120236422D01*
X116361018Y-120236422D02*
X116337941Y-120257100D01*
X116037702Y-120521396D02*
X115875463Y-120660645D01*
X115875463Y-120660645D02*
X115712016Y-120798472D01*
X115712016Y-120798472D02*
X115547372Y-120934868D01*
X115547372Y-120934868D02*
X115381544Y-121069821D01*
X115381544Y-121069821D02*
X115214545Y-121203323D01*
X115214545Y-121203323D02*
X115190246Y-121222550D01*
X114874398Y-121467981D02*
X114703944Y-121597042D01*
X114703944Y-121597042D02*
X114532370Y-121724610D01*
X114532370Y-121724610D02*
X114359689Y-121850676D01*
X114359689Y-121850676D02*
X114185914Y-121975231D01*
X114185914Y-121975231D02*
X114011060Y-122098264D01*
X114011060Y-122098264D02*
X113985630Y-122115968D01*
X113655356Y-122341614D02*
X113477324Y-122460003D01*
X113477324Y-122460003D02*
X113298266Y-122576834D01*
X113298266Y-122576834D02*
X113118196Y-122692099D01*
X113118196Y-122692099D02*
X112937126Y-122805787D01*
X112937126Y-122805787D02*
X112755071Y-122917891D01*
X112755071Y-122917891D02*
X112728605Y-122934006D01*
X112385144Y-123139021D02*
X112200202Y-123246295D01*
X112200202Y-123246295D02*
X112014331Y-123351952D01*
X112014331Y-123351952D02*
X111827545Y-123455982D01*
X111827545Y-123455982D02*
X111639858Y-123558379D01*
X111639858Y-123558379D02*
X111451285Y-123659134D01*
X111451285Y-123659134D02*
X111423883Y-123673599D01*
X111068521Y-123857215D02*
X110877362Y-123952972D01*
X110877362Y-123952972D02*
X110685375Y-124047058D01*
X110685375Y-124047058D02*
X110492573Y-124139465D01*
X110492573Y-124139465D02*
X110298973Y-124230186D01*
X110298973Y-124230186D02*
X110104588Y-124319214D01*
X110104588Y-124319214D02*
X110076353Y-124331975D01*
X109710422Y-124493504D02*
X109513762Y-124577385D01*
X109513762Y-124577385D02*
X109316377Y-124659548D01*
X109316377Y-124659548D02*
X109118283Y-124739985D01*
X109118283Y-124739985D02*
X108919495Y-124818690D01*
X108919495Y-124818690D02*
X108720027Y-124895657D01*
X108720027Y-124895657D02*
X108691063Y-124906668D01*
X108315935Y-125045503D02*
X108114511Y-125117195D01*
X108114511Y-125117195D02*
X107912469Y-125187126D01*
X107912469Y-125187126D02*
X107709825Y-125255292D01*
X107709825Y-125255292D02*
X107506593Y-125321686D01*
X107506593Y-125321686D02*
X107302790Y-125386305D01*
X107302790Y-125386305D02*
X107273207Y-125395522D01*
X106890286Y-125511145D02*
X106684853Y-125570378D01*
X106684853Y-125570378D02*
X106478911Y-125627817D01*
X106478911Y-125627817D02*
X106272475Y-125683455D01*
X106272475Y-125683455D02*
X106065562Y-125737290D01*
X106065562Y-125737290D02*
X105858187Y-125789318D01*
X105858187Y-125789318D02*
X105828095Y-125796708D01*
X105438818Y-125888685D02*
X105230145Y-125935237D01*
X105230145Y-125935237D02*
X105021074Y-125979967D01*
X105021074Y-125979967D02*
X104811621Y-126022870D01*
X104811621Y-126022870D02*
X104601802Y-126063944D01*
X104601802Y-126063944D02*
X104391631Y-126103186D01*
X104391631Y-126103186D02*
X104361144Y-126108721D01*
X103966968Y-126176707D02*
X103755839Y-126210404D01*
X103755839Y-126210404D02*
X103544423Y-126242258D01*
X103544423Y-126242258D02*
X103332737Y-126272265D01*
X103332737Y-126272265D02*
X103120797Y-126300424D01*
X103120797Y-126300424D02*
X102908620Y-126326733D01*
X102908620Y-126326733D02*
X102877851Y-126330392D01*
X102480254Y-126374133D02*
X102267458Y-126394849D01*
X102267458Y-126394849D02*
X102054489Y-126413707D01*
X102054489Y-126413707D02*
X101841364Y-126430706D01*
X101841364Y-126430706D02*
X101628098Y-126445844D01*
X101628098Y-126445844D02*
X101414708Y-126459121D01*
X101414708Y-126459121D02*
X101383773Y-126460891D01*
X100984245Y-126480222D02*
X100770580Y-126487879D01*
X100770580Y-126487879D02*
X100556856Y-126493671D01*
X100556856Y-126493671D02*
X100343090Y-126497598D01*
X100343090Y-126497598D02*
X100129298Y-126499659D01*
X100129298Y-126499659D02*
X99915496Y-126499854D01*
X99915496Y-126499854D02*
X99884510Y-126499728D01*
X99484548Y-126494577D02*
X99270815Y-126489146D01*
X99270815Y-126489146D02*
X99057137Y-126481851D01*
X99057137Y-126481851D02*
X98843531Y-126472691D01*
X98843531Y-126472691D02*
X98630014Y-126461667D01*
X98630014Y-126461667D02*
X98416600Y-126448780D01*
X98416600Y-126448780D02*
X98385680Y-126446758D01*
X97986783Y-126417145D02*
X97773782Y-126398647D01*
X97773782Y-126398647D02*
X97560951Y-126378290D01*
X97560951Y-126378290D02*
X97348306Y-126356078D01*
X97348306Y-126356078D02*
X97135863Y-126332010D01*
X97135863Y-126332010D02*
X96923638Y-126306090D01*
X96923638Y-126306090D02*
X96892900Y-126302179D01*
X96496561Y-126248215D02*
X96285092Y-126216719D01*
X96285092Y-126216719D02*
X96073905Y-126183378D01*
X96073905Y-126183378D02*
X95863017Y-126148196D01*
X95863017Y-126148196D02*
X95652445Y-126111175D01*
X95652445Y-126111175D02*
X95442203Y-126072318D01*
X95442203Y-126072318D02*
X95411762Y-126066534D01*
X95019468Y-125988420D02*
X94810322Y-125944044D01*
X94810322Y-125944044D02*
X94601571Y-125897844D01*
X94601571Y-125897844D02*
X94393231Y-125849825D01*
X94393231Y-125849825D02*
X94185318Y-125799989D01*
X94185318Y-125799989D02*
X93977848Y-125748341D01*
X93977848Y-125748341D02*
X93947818Y-125740705D01*
X93561038Y-125638735D02*
X93354999Y-125581645D01*
X93354999Y-125581645D02*
X93149466Y-125522759D01*
X93149466Y-125522759D02*
X92944455Y-125462082D01*
X92944455Y-125462082D02*
X92739981Y-125399618D01*
X92739981Y-125399618D02*
X92536060Y-125335372D01*
X92536060Y-125335372D02*
X92506553Y-125325914D01*
X92126737Y-125200468D02*
X91924577Y-125130879D01*
X91924577Y-125130879D02*
X91723032Y-125059527D01*
X91723032Y-125059527D02*
X91522118Y-124986420D01*
X91522118Y-124986420D02*
X91321849Y-124911562D01*
X91321849Y-124911562D02*
X91122240Y-124834960D01*
X91122240Y-124834960D02*
X91093368Y-124823714D01*
X90721939Y-124675264D02*
X90524416Y-124593435D01*
X90524416Y-124593435D02*
X90327614Y-124509886D01*
X90327614Y-124509886D02*
X90131549Y-124424622D01*
X90131549Y-124424622D02*
X89936236Y-124337651D01*
X89936236Y-124337651D02*
X89741689Y-124248979D01*
X89741689Y-124248979D02*
X89713558Y-124235987D01*
X89351908Y-124065089D02*
X89159762Y-123971328D01*
X89159762Y-123971328D02*
X88968441Y-123875893D01*
X88968441Y-123875893D02*
X88777961Y-123778793D01*
X88777961Y-123778793D02*
X88588335Y-123680034D01*
X88588335Y-123680034D02*
X88399577Y-123579625D01*
X88399577Y-123579625D02*
X88372294Y-123564936D01*
X88021779Y-123372230D02*
X87835730Y-123266888D01*
X87835730Y-123266888D02*
X87650607Y-123159926D01*
X87650607Y-123159926D02*
X87466424Y-123051353D01*
X87466424Y-123051353D02*
X87283196Y-122941177D01*
X87283196Y-122941177D02*
X87100936Y-122829406D01*
X87100936Y-122829406D02*
X87074603Y-122813075D01*
X86736535Y-122599284D02*
X86557280Y-122482756D01*
X86557280Y-122482756D02*
X86379048Y-122364667D01*
X86379048Y-122364667D02*
X86201854Y-122245028D01*
X86201854Y-122245028D02*
X86025710Y-122123847D01*
X86025710Y-122123847D02*
X85850631Y-122001134D01*
X85850631Y-122001134D02*
X85825346Y-121983223D01*
X85500993Y-121749147D02*
X85329204Y-121621869D01*
X85329204Y-121621869D02*
X85158531Y-121493096D01*
X85158531Y-121493096D02*
X84988989Y-121362840D01*
X84988989Y-121362840D02*
X84820590Y-121231108D01*
X84820590Y-121231108D02*
X84653347Y-121097912D01*
X84653347Y-121097912D02*
X84629206Y-121078488D01*
X84319783Y-120825004D02*
X84156103Y-120687454D01*
X84156103Y-120687454D02*
X83993629Y-120548480D01*
X83993629Y-120548480D02*
X83832375Y-120408093D01*
X83832375Y-120408093D02*
X83672352Y-120266305D01*
X83672352Y-120266305D02*
X83513572Y-120123126D01*
X83513572Y-120123126D02*
X83490664Y-120102260D01*
X83197331Y-119830320D02*
X83042373Y-119683012D01*
X83042373Y-119683012D02*
X82888708Y-119534357D01*
X82888708Y-119534357D02*
X82736345Y-119384367D01*
X82736345Y-119384367D02*
X82585297Y-119233053D01*
X82585297Y-119233053D02*
X82435575Y-119080427D01*
X82435575Y-119080427D02*
X82413987Y-119058199D01*
X82137842Y-118768820D02*
X81992189Y-118612307D01*
X81992189Y-118612307D02*
X81847906Y-118454528D01*
X81847906Y-118454528D02*
X81705007Y-118295497D01*
X81705007Y-118295497D02*
X81563500Y-118135224D01*
X81563500Y-118135224D02*
X81423397Y-117973723D01*
X81423397Y-117973723D02*
X81403210Y-117950216D01*
X81145288Y-117644483D02*
X81009484Y-117479351D01*
X81009484Y-117479351D02*
X80875126Y-117313040D01*
X80875126Y-117313040D02*
X80742224Y-117145563D01*
X80742224Y-117145563D02*
X80610789Y-116976933D01*
X80610789Y-116976933D02*
X80480831Y-116807162D01*
X80480831Y-116807162D02*
X80462120Y-116782464D01*
X80223388Y-116461522D02*
X80097942Y-116288390D01*
X80097942Y-116288390D02*
X79974012Y-116114170D01*
X79974012Y-116114170D02*
X79851606Y-115938875D01*
X79851606Y-115938875D02*
X79730735Y-115762518D01*
X79730735Y-115762518D02*
X79611408Y-115585114D01*
X79611408Y-115585114D02*
X79594243Y-115559317D01*
X79375596Y-115224369D02*
X79260978Y-115043886D01*
X79260978Y-115043886D02*
X79147940Y-114862410D01*
X79147940Y-114862410D02*
X79036490Y-114679954D01*
X79036490Y-114679954D02*
X78926636Y-114496532D01*
X78926636Y-114496532D02*
X78818387Y-114312159D01*
X78818387Y-114312159D02*
X78802832Y-114285360D01*
X78605089Y-113937662D02*
X78501729Y-113750504D01*
X78501729Y-113750504D02*
X78400006Y-113562451D01*
X78400006Y-113562451D02*
X78299929Y-113373518D01*
X78299929Y-113373518D02*
X78201504Y-113183718D01*
X78201504Y-113183718D02*
X78104738Y-112993067D01*
X78104738Y-112993067D02*
X78090853Y-112965367D01*
X77914754Y-112606221D02*
X77823040Y-112413089D01*
X77823040Y-112413089D02*
X77733014Y-112219165D01*
X77733014Y-112219165D02*
X77644684Y-112024462D01*
X77644684Y-112024462D02*
X77558056Y-111828996D01*
X77558056Y-111828996D02*
X77473138Y-111632781D01*
X77473138Y-111632781D02*
X77460973Y-111604283D01*
X77307179Y-111235035D02*
X77227453Y-111036654D01*
X77227453Y-111036654D02*
X77149462Y-110837584D01*
X77149462Y-110837584D02*
X77073210Y-110637842D01*
X77073210Y-110637842D02*
X76998705Y-110437442D01*
X76998705Y-110437442D02*
X76925951Y-110236399D01*
X76925951Y-110236399D02*
X76915553Y-110207210D01*
X76784640Y-109829244D02*
X76717202Y-109626356D01*
X76717202Y-109626356D02*
X76651537Y-109422887D01*
X76651537Y-109422887D02*
X76587650Y-109218854D01*
X76587650Y-109218854D02*
X76525545Y-109014270D01*
X76525545Y-109014270D02*
X76465229Y-108809152D01*
X76465229Y-108809152D02*
X76456636Y-108779382D01*
X76349095Y-108394114D02*
X76294197Y-108187480D01*
X76294197Y-108187480D02*
X76241104Y-107980375D01*
X76241104Y-107980375D02*
X76189821Y-107772814D01*
X76189821Y-107772814D02*
X76140351Y-107564814D01*
X76140351Y-107564814D02*
X76092698Y-107356390D01*
X76092698Y-107356390D02*
X76085943Y-107326149D01*
X76002176Y-106935023D02*
X75960024Y-106725418D01*
X75960024Y-106725418D02*
X75919703Y-106515452D01*
X75919703Y-106515452D02*
X75881216Y-106305143D01*
X75881216Y-106305143D02*
X75844565Y-106094505D01*
X75844565Y-106094505D02*
X75809754Y-105883556D01*
X75809754Y-105883556D02*
X75804862Y-105852959D01*
X75745184Y-105457440D02*
X75715936Y-105245648D01*
X75715936Y-105245648D02*
X75688537Y-105033609D01*
X75688537Y-105033609D02*
X75662990Y-104821338D01*
X75662990Y-104821338D02*
X75639296Y-104608853D01*
X75639296Y-104608853D02*
X75617458Y-104396169D01*
X75617458Y-104396169D02*
X75614447Y-104365330D01*
X75579081Y-103966901D02*
X75562846Y-103753716D01*
X75562846Y-103753716D02*
X75548473Y-103540398D01*
X75548473Y-103540398D02*
X75535962Y-103326962D01*
X75535962Y-103326962D02*
X75525313Y-103113425D01*
X75525313Y-103113425D02*
X75516529Y-102899803D01*
X75516529Y-102899803D02*
X75515411Y-102868838D01*
X75504489Y-102468991D02*
X75501329Y-102255213D01*
X75501329Y-102255213D02*
X75500035Y-102041414D01*
X75500035Y-102041414D02*
X75500000Y-102000000D01*
D11*
X98380952Y-106454819D02*
X98047619Y-105978628D01*
X97809524Y-106454819D02*
X97809524Y-105454819D01*
X97809524Y-105454819D02*
X98190476Y-105454819D01*
X98190476Y-105454819D02*
X98285714Y-105502438D01*
X98285714Y-105502438D02*
X98333333Y-105550057D01*
X98333333Y-105550057D02*
X98380952Y-105645295D01*
X98380952Y-105645295D02*
X98380952Y-105788152D01*
X98380952Y-105788152D02*
X98333333Y-105883390D01*
X98333333Y-105883390D02*
X98285714Y-105931009D01*
X98285714Y-105931009D02*
X98190476Y-105978628D01*
X98190476Y-105978628D02*
X97809524Y-105978628D01*
X99000000Y-105454819D02*
X99190476Y-105454819D01*
X99190476Y-105454819D02*
X99285714Y-105502438D01*
X99285714Y-105502438D02*
X99380952Y-105597676D01*
X99380952Y-105597676D02*
X99428571Y-105788152D01*
X99428571Y-105788152D02*
X99428571Y-106121485D01*
X99428571Y-106121485D02*
X99380952Y-106311961D01*
X99380952Y-106311961D02*
X99285714Y-106407200D01*
X99285714Y-106407200D02*
X99190476Y-106454819D01*
X99190476Y-106454819D02*
X99000000Y-106454819D01*
X99000000Y-106454819D02*
X98904762Y-106407200D01*
X98904762Y-106407200D02*
X98809524Y-106311961D01*
X98809524Y-106311961D02*
X98761905Y-106121485D01*
X98761905Y-106121485D02*
X98761905Y-105788152D01*
X98761905Y-105788152D02*
X98809524Y-105597676D01*
X98809524Y-105597676D02*
X98904762Y-105502438D01*
X98904762Y-105502438D02*
X99000000Y-105454819D01*
X99714286Y-105454819D02*
X100285714Y-105454819D01*
X100000000Y-106454819D02*
X100000000Y-105454819D01*
X100809524Y-105454819D02*
X101000000Y-105454819D01*
X101000000Y-105454819D02*
X101095238Y-105502438D01*
X101095238Y-105502438D02*
X101190476Y-105597676D01*
X101190476Y-105597676D02*
X101238095Y-105788152D01*
X101238095Y-105788152D02*
X101238095Y-106121485D01*
X101238095Y-106121485D02*
X101190476Y-106311961D01*
X101190476Y-106311961D02*
X101095238Y-106407200D01*
X101095238Y-106407200D02*
X101000000Y-106454819D01*
X101000000Y-106454819D02*
X100809524Y-106454819D01*
X100809524Y-106454819D02*
X100714286Y-106407200D01*
X100714286Y-106407200D02*
X100619048Y-106311961D01*
X100619048Y-106311961D02*
X100571429Y-106121485D01*
X100571429Y-106121485D02*
X100571429Y-105788152D01*
X100571429Y-105788152D02*
X100619048Y-105597676D01*
X100619048Y-105597676D02*
X100714286Y-105502438D01*
X100714286Y-105502438D02*
X100809524Y-105454819D01*
X102238095Y-106454819D02*
X101904762Y-105978628D01*
X101666667Y-106454819D02*
X101666667Y-105454819D01*
X101666667Y-105454819D02*
X102047619Y-105454819D01*
X102047619Y-105454819D02*
X102142857Y-105502438D01*
X102142857Y-105502438D02*
X102190476Y-105550057D01*
X102190476Y-105550057D02*
X102238095Y-105645295D01*
X102238095Y-105645295D02*
X102238095Y-105788152D01*
X102238095Y-105788152D02*
X102190476Y-105883390D01*
X102190476Y-105883390D02*
X102142857Y-105931009D01*
X102142857Y-105931009D02*
X102047619Y-105978628D01*
X102047619Y-105978628D02*
X101666667Y-105978628D01*
M02*
