%TF.GenerationSoftware,KiCad,Pcbnew,10.0.0*%
%TF.CreationDate,2026-04-06T00:32:43+10:00*%
%TF.ProjectId,plate,706c6174-652e-46b6-9963-61645f706362,rev?*%
%TF.SameCoordinates,Original*%
%TF.FileFunction,Legend,Top*%
%TF.FilePolarity,Positive*%
%FSLAX46Y46*%
G04 Gerber Fmt 4.6, Leading zero omitted, Abs format (unit mm)*
G04 Created by KiCad (PCBNEW 10.0.0) date 2026-04-06 00:32:43*
%MOMM*%
%LPD*%
G01*
G04 APERTURE LIST*
%ADD10C,0.100000*%
%ADD11C,0.150000*%
G04 APERTURE END LIST*
D10*
X75500000Y-100000000D02*
X75500933Y-99786200D01*
X75500933Y-99786200D02*
X75503731Y-99572416D01*
X75503731Y-99572416D02*
X75508396Y-99358665D01*
X75508396Y-99358665D02*
X75514925Y-99144962D01*
X75514925Y-99144962D02*
X75523319Y-98931325D01*
X75523319Y-98931325D02*
X75524690Y-98900370D01*
X75545904Y-98500937D02*
X75559917Y-98287594D01*
X75559917Y-98287594D02*
X75575791Y-98074382D01*
X75575791Y-98074382D02*
X75593525Y-97861317D01*
X75593525Y-97861317D02*
X75613117Y-97648414D01*
X75613117Y-97648414D02*
X75634567Y-97435691D01*
X75634567Y-97435691D02*
X75637830Y-97404877D01*
X75683444Y-97007491D02*
X75710484Y-96795406D01*
X75710484Y-96795406D02*
X75739374Y-96583565D01*
X75739374Y-96583565D02*
X75770112Y-96371983D01*
X75770112Y-96371983D02*
X75802694Y-96160679D01*
X75802694Y-96160679D02*
X75837119Y-95949666D01*
X75837119Y-95949666D02*
X75842261Y-95919110D01*
X75912105Y-95525259D02*
X75952071Y-95315226D01*
X75952071Y-95315226D02*
X75993868Y-95105549D01*
X75993868Y-95105549D02*
X76037494Y-94896245D01*
X76037494Y-94896245D02*
X76082945Y-94687330D01*
X76082945Y-94687330D02*
X76130217Y-94478819D01*
X76130217Y-94478819D02*
X76137218Y-94448635D01*
X76231029Y-94059795D02*
X76283772Y-93852601D01*
X76283772Y-93852601D02*
X76338320Y-93645874D01*
X76338320Y-93645874D02*
X76394671Y-93439632D01*
X76394671Y-93439632D02*
X76452819Y-93233889D01*
X76452819Y-93233889D02*
X76512760Y-93028661D01*
X76512760Y-93028661D02*
X76521596Y-92998962D01*
X76639022Y-92616591D02*
X76704344Y-92413012D01*
X76704344Y-92413012D02*
X76771439Y-92210010D01*
X76771439Y-92210010D02*
X76840303Y-92007602D01*
X76840303Y-92007602D02*
X76910931Y-91805802D01*
X76910931Y-91805802D02*
X76983317Y-91604627D01*
X76983317Y-91604627D02*
X76993953Y-91575524D01*
X77134555Y-91201054D02*
X77212210Y-91001853D01*
X77212210Y-91001853D02*
X77291601Y-90803337D01*
X77291601Y-90803337D02*
X77372720Y-90605522D01*
X77372720Y-90605522D02*
X77455563Y-90408422D01*
X77455563Y-90408422D02*
X77540123Y-90212052D01*
X77540123Y-90212052D02*
X77552520Y-90183654D01*
X77715771Y-89818490D02*
X77805469Y-89624413D01*
X77805469Y-89624413D02*
X77896857Y-89431127D01*
X77896857Y-89431127D02*
X77989929Y-89238645D01*
X77989929Y-89238645D02*
X78084676Y-89046983D01*
X78084676Y-89046983D02*
X78181092Y-88856156D01*
X78181092Y-88856156D02*
X78195204Y-88828570D01*
X78380492Y-88474078D02*
X78481897Y-88285853D01*
X78481897Y-88285853D02*
X78584940Y-88098521D01*
X78584940Y-88098521D02*
X78689614Y-87912095D01*
X78689614Y-87912095D02*
X78795911Y-87726589D01*
X78795911Y-87726589D02*
X78903823Y-87542018D01*
X78903823Y-87542018D02*
X78919596Y-87515347D01*
X79126227Y-87172856D02*
X79238959Y-86991189D01*
X79238959Y-86991189D02*
X79353271Y-86810513D01*
X79353271Y-86810513D02*
X79469156Y-86630840D01*
X79469156Y-86630840D02*
X79586604Y-86452186D01*
X79586604Y-86452186D02*
X79705607Y-86274564D01*
X79705607Y-86274564D02*
X79722982Y-86248908D01*
X79950182Y-85919702D02*
X80073818Y-85745273D01*
X80073818Y-85745273D02*
X80198971Y-85571929D01*
X80198971Y-85571929D02*
X80325632Y-85399684D01*
X80325632Y-85399684D02*
X80453791Y-85228551D01*
X80453791Y-85228551D02*
X80583439Y-85058543D01*
X80583439Y-85058543D02*
X80602351Y-85033998D01*
X80849268Y-84719310D02*
X80983345Y-84552772D01*
X80983345Y-84552772D02*
X81118870Y-84387411D01*
X81118870Y-84387411D02*
X81255833Y-84223239D01*
X81255833Y-84223239D02*
X81394223Y-84060268D01*
X81394223Y-84060268D02*
X81534030Y-83898511D01*
X81534030Y-83898511D02*
X81554409Y-83875169D01*
X81820118Y-83576179D02*
X81964133Y-83418157D01*
X81964133Y-83418157D02*
X82109522Y-83261398D01*
X82109522Y-83261398D02*
X82256273Y-83105913D01*
X82256273Y-83105913D02*
X82404376Y-82951715D01*
X82404376Y-82951715D02*
X82553818Y-82798816D01*
X82553818Y-82798816D02*
X82575587Y-82776765D01*
X82859092Y-82494593D02*
X83012507Y-82345678D01*
X83012507Y-82345678D02*
X83167215Y-82198109D01*
X83167215Y-82198109D02*
X83323204Y-82051895D01*
X83323204Y-82051895D02*
X83480464Y-81907047D01*
X83480464Y-81907047D02*
X83638982Y-81763578D01*
X83638982Y-81763578D02*
X83662059Y-81742900D01*
X83962298Y-81478604D02*
X84124537Y-81339355D01*
X84124537Y-81339355D02*
X84287984Y-81201528D01*
X84287984Y-81201528D02*
X84452628Y-81065132D01*
X84452628Y-81065132D02*
X84618456Y-80930179D01*
X84618456Y-80930179D02*
X84785455Y-80796677D01*
X84785455Y-80796677D02*
X84809754Y-80777450D01*
X85125602Y-80532019D02*
X85296056Y-80402958D01*
X85296056Y-80402958D02*
X85467630Y-80275390D01*
X85467630Y-80275390D02*
X85640311Y-80149324D01*
X85640311Y-80149324D02*
X85814086Y-80024769D01*
X85814086Y-80024769D02*
X85988940Y-79901736D01*
X85988940Y-79901736D02*
X86014370Y-79884032D01*
X86344644Y-79658386D02*
X86522676Y-79539997D01*
X86522676Y-79539997D02*
X86701734Y-79423166D01*
X86701734Y-79423166D02*
X86881804Y-79307901D01*
X86881804Y-79307901D02*
X87062874Y-79194213D01*
X87062874Y-79194213D02*
X87244929Y-79082109D01*
X87244929Y-79082109D02*
X87271395Y-79065994D01*
X87614856Y-78860979D02*
X87799798Y-78753705D01*
X87799798Y-78753705D02*
X87985669Y-78648048D01*
X87985669Y-78648048D02*
X88172455Y-78544018D01*
X88172455Y-78544018D02*
X88360142Y-78441621D01*
X88360142Y-78441621D02*
X88548715Y-78340866D01*
X88548715Y-78340866D02*
X88576117Y-78326401D01*
X88931479Y-78142785D02*
X89122638Y-78047028D01*
X89122638Y-78047028D02*
X89314625Y-77952942D01*
X89314625Y-77952942D02*
X89507427Y-77860535D01*
X89507427Y-77860535D02*
X89701027Y-77769814D01*
X89701027Y-77769814D02*
X89895412Y-77680786D01*
X89895412Y-77680786D02*
X89923647Y-77668025D01*
X90289578Y-77506496D02*
X90486238Y-77422615D01*
X90486238Y-77422615D02*
X90683623Y-77340452D01*
X90683623Y-77340452D02*
X90881717Y-77260015D01*
X90881717Y-77260015D02*
X91080505Y-77181310D01*
X91080505Y-77181310D02*
X91279973Y-77104343D01*
X91279973Y-77104343D02*
X91308937Y-77093332D01*
X91684065Y-76954497D02*
X91885489Y-76882805D01*
X91885489Y-76882805D02*
X92087531Y-76812874D01*
X92087531Y-76812874D02*
X92290175Y-76744708D01*
X92290175Y-76744708D02*
X92493407Y-76678314D01*
X92493407Y-76678314D02*
X92697210Y-76613695D01*
X92697210Y-76613695D02*
X92726793Y-76604478D01*
X93109714Y-76488855D02*
X93315147Y-76429622D01*
X93315147Y-76429622D02*
X93521089Y-76372183D01*
X93521089Y-76372183D02*
X93727525Y-76316545D01*
X93727525Y-76316545D02*
X93934438Y-76262710D01*
X93934438Y-76262710D02*
X94141813Y-76210682D01*
X94141813Y-76210682D02*
X94171905Y-76203292D01*
X94561182Y-76111315D02*
X94769855Y-76064763D01*
X94769855Y-76064763D02*
X94978926Y-76020033D01*
X94978926Y-76020033D02*
X95188379Y-75977130D01*
X95188379Y-75977130D02*
X95398198Y-75936056D01*
X95398198Y-75936056D02*
X95608369Y-75896814D01*
X95608369Y-75896814D02*
X95638856Y-75891279D01*
X96033032Y-75823293D02*
X96244161Y-75789596D01*
X96244161Y-75789596D02*
X96455577Y-75757742D01*
X96455577Y-75757742D02*
X96667263Y-75727735D01*
X96667263Y-75727735D02*
X96879203Y-75699576D01*
X96879203Y-75699576D02*
X97091380Y-75673267D01*
X97091380Y-75673267D02*
X97122149Y-75669608D01*
X97519746Y-75625867D02*
X97732542Y-75605151D01*
X97732542Y-75605151D02*
X97945511Y-75586293D01*
X97945511Y-75586293D02*
X98158636Y-75569294D01*
X98158636Y-75569294D02*
X98371902Y-75554156D01*
X98371902Y-75554156D02*
X98585292Y-75540879D01*
X98585292Y-75540879D02*
X98616227Y-75539109D01*
X99015755Y-75519778D02*
X99229420Y-75512121D01*
X99229420Y-75512121D02*
X99443144Y-75506329D01*
X99443144Y-75506329D02*
X99656910Y-75502402D01*
X99656910Y-75502402D02*
X99870702Y-75500341D01*
X99870702Y-75500341D02*
X100084504Y-75500146D01*
X100084504Y-75500146D02*
X100115490Y-75500272D01*
X100515452Y-75505423D02*
X100729185Y-75510854D01*
X100729185Y-75510854D02*
X100942863Y-75518149D01*
X100942863Y-75518149D02*
X101156469Y-75527309D01*
X101156469Y-75527309D02*
X101369986Y-75538333D01*
X101369986Y-75538333D02*
X101583400Y-75551220D01*
X101583400Y-75551220D02*
X101614320Y-75553242D01*
X102013217Y-75582855D02*
X102226218Y-75601353D01*
X102226218Y-75601353D02*
X102439049Y-75621710D01*
X102439049Y-75621710D02*
X102651694Y-75643922D01*
X102651694Y-75643922D02*
X102864137Y-75667990D01*
X102864137Y-75667990D02*
X103076362Y-75693910D01*
X103076362Y-75693910D02*
X103107100Y-75697821D01*
X103503439Y-75751785D02*
X103714908Y-75783281D01*
X103714908Y-75783281D02*
X103926095Y-75816622D01*
X103926095Y-75816622D02*
X104136983Y-75851804D01*
X104136983Y-75851804D02*
X104347555Y-75888825D01*
X104347555Y-75888825D02*
X104557797Y-75927682D01*
X104557797Y-75927682D02*
X104588238Y-75933466D01*
X104980532Y-76011580D02*
X105189678Y-76055956D01*
X105189678Y-76055956D02*
X105398429Y-76102156D01*
X105398429Y-76102156D02*
X105606769Y-76150175D01*
X105606769Y-76150175D02*
X105814682Y-76200011D01*
X105814682Y-76200011D02*
X106022152Y-76251659D01*
X106022152Y-76251659D02*
X106052182Y-76259295D01*
X106438962Y-76361265D02*
X106645001Y-76418355D01*
X106645001Y-76418355D02*
X106850534Y-76477241D01*
X106850534Y-76477241D02*
X107055545Y-76537918D01*
X107055545Y-76537918D02*
X107260019Y-76600382D01*
X107260019Y-76600382D02*
X107463940Y-76664628D01*
X107463940Y-76664628D02*
X107493447Y-76674086D01*
X107873263Y-76799532D02*
X108075423Y-76869121D01*
X108075423Y-76869121D02*
X108276968Y-76940473D01*
X108276968Y-76940473D02*
X108477882Y-77013580D01*
X108477882Y-77013580D02*
X108678151Y-77088438D01*
X108678151Y-77088438D02*
X108877760Y-77165040D01*
X108877760Y-77165040D02*
X108906632Y-77176286D01*
X109278061Y-77324736D02*
X109475584Y-77406565D01*
X109475584Y-77406565D02*
X109672386Y-77490114D01*
X109672386Y-77490114D02*
X109868451Y-77575378D01*
X109868451Y-77575378D02*
X110063764Y-77662349D01*
X110063764Y-77662349D02*
X110258311Y-77751021D01*
X110258311Y-77751021D02*
X110286442Y-77764013D01*
X110648092Y-77934911D02*
X110840238Y-78028672D01*
X110840238Y-78028672D02*
X111031559Y-78124107D01*
X111031559Y-78124107D02*
X111222039Y-78221207D01*
X111222039Y-78221207D02*
X111411665Y-78319966D01*
X111411665Y-78319966D02*
X111600423Y-78420375D01*
X111600423Y-78420375D02*
X111627706Y-78435064D01*
X111978221Y-78627770D02*
X112164270Y-78733112D01*
X112164270Y-78733112D02*
X112349393Y-78840074D01*
X112349393Y-78840074D02*
X112533576Y-78948647D01*
X112533576Y-78948647D02*
X112716804Y-79058823D01*
X112716804Y-79058823D02*
X112899064Y-79170594D01*
X112899064Y-79170594D02*
X112925397Y-79186925D01*
X113263465Y-79400716D02*
X113442720Y-79517244D01*
X113442720Y-79517244D02*
X113620952Y-79635333D01*
X113620952Y-79635333D02*
X113798146Y-79754972D01*
X113798146Y-79754972D02*
X113974290Y-79876153D01*
X113974290Y-79876153D02*
X114149369Y-79998866D01*
X114149369Y-79998866D02*
X114174654Y-80016777D01*
X114499007Y-80250853D02*
X114670796Y-80378131D01*
X114670796Y-80378131D02*
X114841469Y-80506904D01*
X114841469Y-80506904D02*
X115011011Y-80637160D01*
X115011011Y-80637160D02*
X115179410Y-80768892D01*
X115179410Y-80768892D02*
X115346653Y-80902088D01*
X115346653Y-80902088D02*
X115370794Y-80921512D01*
X115680217Y-81174996D02*
X115843897Y-81312546D01*
X115843897Y-81312546D02*
X116006371Y-81451520D01*
X116006371Y-81451520D02*
X116167625Y-81591907D01*
X116167625Y-81591907D02*
X116327648Y-81733695D01*
X116327648Y-81733695D02*
X116486428Y-81876874D01*
X116486428Y-81876874D02*
X116509336Y-81897740D01*
X116802669Y-82169680D02*
X116957627Y-82316988D01*
X116957627Y-82316988D02*
X117111292Y-82465643D01*
X117111292Y-82465643D02*
X117263655Y-82615633D01*
X117263655Y-82615633D02*
X117414703Y-82766947D01*
X117414703Y-82766947D02*
X117564425Y-82919573D01*
X117564425Y-82919573D02*
X117586013Y-82941801D01*
X117862158Y-83231180D02*
X118007811Y-83387693D01*
X118007811Y-83387693D02*
X118152094Y-83545472D01*
X118152094Y-83545472D02*
X118294993Y-83704503D01*
X118294993Y-83704503D02*
X118436500Y-83864776D01*
X118436500Y-83864776D02*
X118576603Y-84026277D01*
X118576603Y-84026277D02*
X118596790Y-84049784D01*
X118854712Y-84355517D02*
X118990516Y-84520649D01*
X118990516Y-84520649D02*
X119124874Y-84686960D01*
X119124874Y-84686960D02*
X119257776Y-84854437D01*
X119257776Y-84854437D02*
X119389211Y-85023067D01*
X119389211Y-85023067D02*
X119519169Y-85192838D01*
X119519169Y-85192838D02*
X119537880Y-85217536D01*
X119776612Y-85538478D02*
X119902058Y-85711610D01*
X119902058Y-85711610D02*
X120025988Y-85885830D01*
X120025988Y-85885830D02*
X120148394Y-86061125D01*
X120148394Y-86061125D02*
X120269265Y-86237482D01*
X120269265Y-86237482D02*
X120388592Y-86414886D01*
X120388592Y-86414886D02*
X120405757Y-86440683D01*
X120624404Y-86775631D02*
X120739022Y-86956114D01*
X120739022Y-86956114D02*
X120852060Y-87137590D01*
X120852060Y-87137590D02*
X120963510Y-87320046D01*
X120963510Y-87320046D02*
X121073364Y-87503468D01*
X121073364Y-87503468D02*
X121181613Y-87687841D01*
X121181613Y-87687841D02*
X121197168Y-87714640D01*
X121394911Y-88062338D02*
X121498271Y-88249496D01*
X121498271Y-88249496D02*
X121599994Y-88437549D01*
X121599994Y-88437549D02*
X121700071Y-88626482D01*
X121700071Y-88626482D02*
X121798496Y-88816282D01*
X121798496Y-88816282D02*
X121895262Y-89006933D01*
X121895262Y-89006933D02*
X121909147Y-89034633D01*
X122085246Y-89393779D02*
X122176960Y-89586911D01*
X122176960Y-89586911D02*
X122266986Y-89780835D01*
X122266986Y-89780835D02*
X122355316Y-89975538D01*
X122355316Y-89975538D02*
X122441944Y-90171004D01*
X122441944Y-90171004D02*
X122526862Y-90367219D01*
X122526862Y-90367219D02*
X122539027Y-90395717D01*
X122692821Y-90764965D02*
X122772547Y-90963346D01*
X122772547Y-90963346D02*
X122850538Y-91162416D01*
X122850538Y-91162416D02*
X122926790Y-91362158D01*
X122926790Y-91362158D02*
X123001295Y-91562558D01*
X123001295Y-91562558D02*
X123074049Y-91763601D01*
X123074049Y-91763601D02*
X123084447Y-91792790D01*
X123215360Y-92170756D02*
X123282798Y-92373644D01*
X123282798Y-92373644D02*
X123348463Y-92577113D01*
X123348463Y-92577113D02*
X123412350Y-92781146D01*
X123412350Y-92781146D02*
X123474455Y-92985730D01*
X123474455Y-92985730D02*
X123534771Y-93190848D01*
X123534771Y-93190848D02*
X123543364Y-93220618D01*
X123650905Y-93605886D02*
X123705803Y-93812520D01*
X123705803Y-93812520D02*
X123758896Y-94019625D01*
X123758896Y-94019625D02*
X123810179Y-94227186D01*
X123810179Y-94227186D02*
X123859649Y-94435186D01*
X123859649Y-94435186D02*
X123907302Y-94643610D01*
X123907302Y-94643610D02*
X123914057Y-94673851D01*
X123997824Y-95064977D02*
X124039976Y-95274582D01*
X124039976Y-95274582D02*
X124080297Y-95484548D01*
X124080297Y-95484548D02*
X124118784Y-95694857D01*
X124118784Y-95694857D02*
X124155435Y-95905495D01*
X124155435Y-95905495D02*
X124190246Y-96116444D01*
X124190246Y-96116444D02*
X124195138Y-96147041D01*
X124254816Y-96542560D02*
X124284064Y-96754352D01*
X124284064Y-96754352D02*
X124311463Y-96966391D01*
X124311463Y-96966391D02*
X124337010Y-97178662D01*
X124337010Y-97178662D02*
X124360704Y-97391147D01*
X124360704Y-97391147D02*
X124382542Y-97603831D01*
X124382542Y-97603831D02*
X124385553Y-97634670D01*
X124420919Y-98033099D02*
X124437154Y-98246284D01*
X124437154Y-98246284D02*
X124451527Y-98459602D01*
X124451527Y-98459602D02*
X124464038Y-98673038D01*
X124464038Y-98673038D02*
X124474687Y-98886575D01*
X124474687Y-98886575D02*
X124483471Y-99100197D01*
X124483471Y-99100197D02*
X124484589Y-99131162D01*
X124495511Y-99531009D02*
X124498671Y-99744787D01*
X124498671Y-99744787D02*
X124499965Y-99958586D01*
X124499965Y-99958586D02*
X124500000Y-100000000D01*
D11*
X119571428Y-82954819D02*
X119571428Y-81954819D01*
X119571428Y-81954819D02*
X119952380Y-81954819D01*
X119952380Y-81954819D02*
X120047618Y-82002438D01*
X120047618Y-82002438D02*
X120095237Y-82050057D01*
X120095237Y-82050057D02*
X120142856Y-82145295D01*
X120142856Y-82145295D02*
X120142856Y-82288152D01*
X120142856Y-82288152D02*
X120095237Y-82383390D01*
X120095237Y-82383390D02*
X120047618Y-82431009D01*
X120047618Y-82431009D02*
X119952380Y-82478628D01*
X119952380Y-82478628D02*
X119571428Y-82478628D01*
X121047618Y-82954819D02*
X120571428Y-82954819D01*
X120571428Y-82954819D02*
X120571428Y-81954819D01*
X121333333Y-82669104D02*
X121809523Y-82669104D01*
X121238095Y-82954819D02*
X121571428Y-81954819D01*
X121571428Y-81954819D02*
X121904761Y-82954819D01*
X122095238Y-81954819D02*
X122666666Y-81954819D01*
X122380952Y-82954819D02*
X122380952Y-81954819D01*
X123000000Y-82431009D02*
X123333333Y-82431009D01*
X123476190Y-82954819D02*
X123000000Y-82954819D01*
X123000000Y-82954819D02*
X123000000Y-81954819D01*
X123000000Y-81954819D02*
X123476190Y-81954819D01*
X76571428Y-82954819D02*
X76571428Y-81954819D01*
X76571428Y-81954819D02*
X76952380Y-81954819D01*
X76952380Y-81954819D02*
X77047618Y-82002438D01*
X77047618Y-82002438D02*
X77095237Y-82050057D01*
X77095237Y-82050057D02*
X77142856Y-82145295D01*
X77142856Y-82145295D02*
X77142856Y-82288152D01*
X77142856Y-82288152D02*
X77095237Y-82383390D01*
X77095237Y-82383390D02*
X77047618Y-82431009D01*
X77047618Y-82431009D02*
X76952380Y-82478628D01*
X76952380Y-82478628D02*
X76571428Y-82478628D01*
X78047618Y-82954819D02*
X77571428Y-82954819D01*
X77571428Y-82954819D02*
X77571428Y-81954819D01*
X78333333Y-82669104D02*
X78809523Y-82669104D01*
X78238095Y-82954819D02*
X78571428Y-81954819D01*
X78571428Y-81954819D02*
X78904761Y-82954819D01*
X79095238Y-81954819D02*
X79666666Y-81954819D01*
X79380952Y-82954819D02*
X79380952Y-81954819D01*
X80000000Y-82431009D02*
X80333333Y-82431009D01*
X80476190Y-82954819D02*
X80000000Y-82954819D01*
X80000000Y-82954819D02*
X80000000Y-81954819D01*
X80000000Y-81954819D02*
X80476190Y-81954819D01*
M02*
