M48
; DRILL file KiCad 10.0.0 date 2026-04-06T00:32:36
; FORMAT={-:-/ absolute / metric / decimal}
; #@! TF.CreationDate,2026-04-06T00:32:36+10:00
; #@! TF.GenerationSoftware,Kicad,Pcbnew,10.0.0
; #@! TF.FileFunction,Plated,1,2,PTH
FMAT,2
METRIC
; #@! TA.AperFunction,Plated,PTH,ViaDrill
T1C0.300
; #@! TA.AperFunction,Plated,PTH,ComponentDrill
T2C3.200
%
G90
G05
T1
X76.091Y-97.908
X76.365Y-95.832
X76.818Y-93.788
X77.447Y-91.792
X78.249Y-89.857
X79.215Y-88.0
X80.34Y-86.234
X81.615Y-84.573
X83.029Y-83.029
X84.573Y-81.615
X85.057Y-98.693
X85.228Y-97.395
X85.511Y-96.118
X85.905Y-94.87
X86.234Y-80.34
X86.405Y-93.661
X87.01Y-92.5
X87.713Y-91.396
X88.0Y-79.215
X88.509Y-90.358
X89.393Y-89.393
X89.857Y-78.249
X90.358Y-88.509
X91.396Y-87.713
X91.792Y-77.447
X92.5Y-87.01
X93.525Y-99.433
X93.599Y-98.871
X93.661Y-86.405
X93.721Y-98.318
X93.788Y-76.818
X93.892Y-97.777
X94.109Y-97.253
X94.371Y-96.75
X94.676Y-96.272
X94.87Y-85.905
X95.021Y-95.822
X95.404Y-95.404
X95.822Y-95.021
X95.832Y-76.365
X96.118Y-85.511
X96.272Y-94.676
X96.75Y-94.371
X97.253Y-94.109
X97.395Y-85.228
X97.777Y-93.892
X97.908Y-76.091
X98.318Y-93.721
X98.693Y-85.057
X98.871Y-93.599
X99.433Y-93.525
X100.0Y-76.0
X100.0Y-85.0
X100.0Y-93.5
X100.567Y-93.525
X101.129Y-93.599
X101.307Y-85.057
X101.682Y-93.721
X102.092Y-76.091
X102.223Y-93.892
X102.605Y-85.228
X102.747Y-94.109
X103.25Y-94.371
X103.728Y-94.676
X103.882Y-85.511
X104.168Y-76.365
X104.178Y-95.021
X104.596Y-95.404
X104.979Y-95.822
X105.13Y-85.905
X105.324Y-96.272
X105.629Y-96.75
X105.891Y-97.253
X106.108Y-97.777
X106.212Y-76.818
X106.279Y-98.318
X106.339Y-86.405
X106.401Y-98.871
X106.475Y-99.433
X107.5Y-87.01
X108.208Y-77.447
X108.604Y-87.713
X109.642Y-88.509
X110.143Y-78.249
X110.607Y-89.393
X111.491Y-90.358
X112.0Y-79.215
X112.287Y-91.396
X112.99Y-92.5
X113.595Y-93.661
X113.766Y-80.34
X114.095Y-94.87
X114.489Y-96.118
X114.772Y-97.395
X114.943Y-98.693
X115.427Y-81.615
X116.971Y-83.029
X118.385Y-84.573
X119.66Y-86.234
X120.785Y-88.0
X121.751Y-89.857
X122.553Y-91.792
X123.182Y-93.788
X123.635Y-95.832
X123.909Y-97.908
T2
X78.5Y-78.5
X121.5Y-78.5
M30
