%TF.GenerationSoftware,KiCad,Pcbnew,10.0.0*%
%TF.CreationDate,2026-04-06T00:32:43+10:00*%
%TF.ProjectId,plate,706c6174-652e-46b6-9963-61645f706362,rev?*%
%TF.SameCoordinates,Original*%
%TF.FileFunction,Copper,L1,Top*%
%TF.FilePolarity,Positive*%
%FSLAX46Y46*%
G04 Gerber Fmt 4.6, Leading zero omitted, Abs format (unit mm)*
G04 Created by KiCad (PCBNEW 10.0.0) date 2026-04-06 00:32:43*
%MOMM*%
%LPD*%
G01*
G04 APERTURE LIST*
%TA.AperFunction,Conductor*%
%ADD10C,2.000000*%
%TD*%
%TA.AperFunction,ComponentPad*%
%ADD11C,3.600000*%
%TD*%
%TA.AperFunction,ConnectorPad*%
%ADD12C,5.500000*%
%TD*%
%TA.AperFunction,ViaPad*%
%ADD13C,0.600000*%
%TD*%
G04 APERTURE END LIST*
%TO.N,PLATE*%
D10*
X78500000Y-78500000D02*
X82991133Y-82365576D01*
X121500000Y-78500000D02*
X117634424Y-82991133D01*
%TD*%
D11*
%TO.P,PLATE,1*%
%TO.N,PLATE*%
X121500000Y-78500000D03*
D12*
X121500000Y-78500000D03*
%TD*%
D11*
%TO.P,PLATE,1*%
%TO.N,PLATE*%
X78500000Y-78500000D03*
D12*
X78500000Y-78500000D03*
%TD*%
D13*
%TO.N,PLATE*%
X103728247Y-94675512D03*
X99433488Y-93524734D03*
X113594617Y-93660726D03*
X98871287Y-93598750D03*
X114942920Y-98692664D03*
X103882286Y-85511113D03*
X93721482Y-98317676D03*
X107500000Y-87009619D03*
X98692664Y-85057080D03*
X97908262Y-76091327D03*
X123182220Y-93788343D03*
X104167556Y-76364614D03*
X120784610Y-88000000D03*
X100000000Y-93500000D03*
X123635386Y-95832444D03*
X76364614Y-95832444D03*
X95020711Y-95821881D03*
X88000000Y-79215390D03*
X91791517Y-77447377D03*
X87009619Y-92500000D03*
X94869698Y-85904611D03*
X96750000Y-94370835D03*
X85904611Y-94869698D03*
X91396353Y-87712719D03*
X90358186Y-88509333D03*
X95403806Y-95403806D03*
X108603647Y-87712719D03*
X113765834Y-80340351D03*
X87712719Y-91396353D03*
X86405383Y-93660726D03*
X76091327Y-97908262D03*
X102604723Y-85227884D03*
X105891001Y-97252981D03*
X101128713Y-93598750D03*
X102747019Y-94108999D03*
X78248613Y-89857162D03*
X105130302Y-85904611D03*
X81614933Y-84573097D03*
X85057080Y-98692664D03*
X106339274Y-86405383D03*
X85227884Y-97395277D03*
X92500000Y-87009619D03*
X111490667Y-90358186D03*
X100000000Y-85000000D03*
X86234166Y-80340351D03*
X97252981Y-94108999D03*
X101307336Y-85057080D03*
X93891998Y-97776869D03*
X100566512Y-93524734D03*
X93524734Y-99433488D03*
X119659649Y-86234166D03*
X96271753Y-94675512D03*
X108208483Y-77447377D03*
X101682324Y-93721482D03*
X94108999Y-97252981D03*
X114488887Y-96117714D03*
X93660726Y-86405383D03*
X115426903Y-81614933D03*
X106278518Y-98317676D03*
X89857162Y-78248613D03*
X105629165Y-96750000D03*
X118385067Y-84573097D03*
X105324488Y-96271753D03*
X112287281Y-91396353D03*
X83029437Y-83029437D03*
X109641814Y-88509333D03*
X95832444Y-76364614D03*
X79215390Y-88000000D03*
X88509333Y-90358186D03*
X93788343Y-76817780D03*
X104596194Y-95403806D03*
X106475266Y-99433488D03*
X94370835Y-96750000D03*
X84573097Y-81614933D03*
X77447377Y-91791517D03*
X94675512Y-96271753D03*
X106211657Y-76817780D03*
X102091738Y-76091327D03*
X102223131Y-93891998D03*
X106108002Y-97776869D03*
X112990381Y-92500000D03*
X95821881Y-95020711D03*
X106401250Y-98871287D03*
X104979289Y-95821881D03*
X110142838Y-78248613D03*
X98317676Y-93721482D03*
X93598750Y-98871287D03*
X104178119Y-95020711D03*
X114095389Y-94869698D03*
X112000000Y-79215390D03*
X116970563Y-83029437D03*
X123908673Y-97908262D03*
X89393398Y-89393398D03*
X114772116Y-97395277D03*
X97776869Y-93891998D03*
X121751387Y-89857162D03*
X110606602Y-89393398D03*
X97395277Y-85227884D03*
X80340351Y-86234166D03*
X85511113Y-96117714D03*
X76817780Y-93788343D03*
X100000000Y-76000000D03*
X122552623Y-91791517D03*
X103250000Y-94370835D03*
X96117714Y-85511113D03*
%TD*%
%TA.AperFunction,Conductor*%
%TO.N,PLATE*%
G36*
X100222339Y-75500519D02*
G01*
X100662375Y-75508466D01*
X100664580Y-75508526D01*
X101104468Y-75524417D01*
X101106579Y-75524513D01*
X101546096Y-75548342D01*
X101548313Y-75548482D01*
X101987391Y-75580248D01*
X101989499Y-75580420D01*
X102427885Y-75620103D01*
X102430078Y-75620322D01*
X102867669Y-75667913D01*
X102869803Y-75668164D01*
X103306499Y-75723652D01*
X103308599Y-75723938D01*
X103744255Y-75787306D01*
X103746354Y-75787631D01*
X104180822Y-75858857D01*
X104182946Y-75859226D01*
X104615946Y-75938266D01*
X104618062Y-75938673D01*
X105049566Y-76025517D01*
X105051716Y-76025969D01*
X105481624Y-76120599D01*
X105483720Y-76121081D01*
X105911850Y-76223457D01*
X105913904Y-76223967D01*
X106340178Y-76334072D01*
X106342277Y-76334635D01*
X106766372Y-76452384D01*
X106768428Y-76452974D01*
X107190436Y-76578393D01*
X107192421Y-76579002D01*
X107612109Y-76712024D01*
X107614173Y-76712699D01*
X108031309Y-76853250D01*
X108033375Y-76853967D01*
X108447865Y-77002010D01*
X108449917Y-77002763D01*
X108861729Y-77158289D01*
X108863747Y-77159072D01*
X109272660Y-77321998D01*
X109274604Y-77322792D01*
X109662982Y-77485722D01*
X109680575Y-77493103D01*
X109682631Y-77493988D01*
X110085405Y-77671574D01*
X110087304Y-77672432D01*
X110486760Y-77857240D01*
X110488784Y-77858198D01*
X110884879Y-78050208D01*
X110886884Y-78051203D01*
X111279313Y-78250264D01*
X111281301Y-78251295D01*
X111670228Y-78457491D01*
X111672196Y-78458557D01*
X111802215Y-78530525D01*
X112057294Y-78671717D01*
X112059115Y-78672746D01*
X112440390Y-78892875D01*
X112442185Y-78893934D01*
X112813320Y-79117239D01*
X112819370Y-79120879D01*
X112821277Y-79122050D01*
X113194280Y-79355753D01*
X113196066Y-79356894D01*
X113564783Y-79597289D01*
X113566647Y-79598528D01*
X113930998Y-79845563D01*
X113932776Y-79846793D01*
X114292547Y-80100325D01*
X114294365Y-80101631D01*
X114649480Y-80361602D01*
X114651239Y-80362913D01*
X115001706Y-80629331D01*
X115003416Y-80630657D01*
X115348912Y-80903276D01*
X115350658Y-80904679D01*
X115691214Y-81183524D01*
X115692933Y-81184958D01*
X116028373Y-81469884D01*
X116030066Y-81471349D01*
X116360276Y-81762256D01*
X116361942Y-81763751D01*
X116686871Y-82060595D01*
X116688511Y-82062119D01*
X117008087Y-82364837D01*
X117009698Y-82366392D01*
X117323670Y-82674746D01*
X117325253Y-82676329D01*
X117633607Y-82990301D01*
X117635162Y-82991912D01*
X117937880Y-83311488D01*
X117939404Y-83313128D01*
X118236248Y-83638057D01*
X118237743Y-83639723D01*
X118528650Y-83969933D01*
X118530115Y-83971626D01*
X118815041Y-84307066D01*
X118816475Y-84308785D01*
X119095320Y-84649341D01*
X119096723Y-84651087D01*
X119369342Y-84996583D01*
X119370679Y-84998309D01*
X119637059Y-85348724D01*
X119638397Y-85350519D01*
X119898368Y-85705634D01*
X119899674Y-85707452D01*
X120153183Y-86067190D01*
X120154457Y-86069032D01*
X120401471Y-86433352D01*
X120402710Y-86435216D01*
X120643073Y-86803883D01*
X120644279Y-86805770D01*
X120877949Y-87178722D01*
X120879120Y-87180629D01*
X121106026Y-87557747D01*
X121107163Y-87559676D01*
X121327216Y-87940820D01*
X121328318Y-87942769D01*
X121541442Y-88327803D01*
X121542508Y-88329771D01*
X121748704Y-88718698D01*
X121749735Y-88720686D01*
X121948796Y-89113115D01*
X121949791Y-89115120D01*
X122141801Y-89511215D01*
X122142759Y-89513239D01*
X122327534Y-89912623D01*
X122328456Y-89914663D01*
X122506011Y-90317368D01*
X122506896Y-90319424D01*
X122677181Y-90725333D01*
X122678028Y-90727406D01*
X122840913Y-91136217D01*
X122841723Y-91138304D01*
X122997226Y-91550057D01*
X122997998Y-91552159D01*
X123146023Y-91966599D01*
X123146757Y-91968713D01*
X123287294Y-92385810D01*
X123287990Y-92387938D01*
X123420968Y-92807486D01*
X123421625Y-92809627D01*
X123547011Y-93231525D01*
X123547629Y-93233677D01*
X123665355Y-93657689D01*
X123665935Y-93659851D01*
X123776017Y-94086037D01*
X123776557Y-94088210D01*
X123878908Y-94516236D01*
X123879409Y-94518418D01*
X123974025Y-94948263D01*
X123974486Y-94950453D01*
X124061318Y-95381895D01*
X124061740Y-95384094D01*
X124140765Y-95817011D01*
X124141148Y-95819217D01*
X124212359Y-96253589D01*
X124212701Y-96255801D01*
X124276053Y-96691341D01*
X124276355Y-96693560D01*
X124331829Y-97130152D01*
X124332091Y-97132375D01*
X124379675Y-97569903D01*
X124379897Y-97572131D01*
X124419573Y-98010437D01*
X124419755Y-98012668D01*
X124451516Y-98451677D01*
X124451657Y-98453912D01*
X124475483Y-98893358D01*
X124475584Y-98895594D01*
X124491472Y-99335402D01*
X124491533Y-99337638D01*
X124492177Y-99373259D01*
X124473707Y-99440643D01*
X124421739Y-99487345D01*
X124368197Y-99499500D01*
X105592029Y-99499500D01*
X105524990Y-99479815D01*
X105479235Y-99427011D01*
X105468453Y-99385740D01*
X105462927Y-99319057D01*
X105462926Y-99319051D01*
X105462926Y-99319047D01*
X105388035Y-98870248D01*
X105276338Y-98429166D01*
X105128598Y-97998815D01*
X105043108Y-97803917D01*
X105032671Y-97755357D01*
X105000000Y-94500000D01*
X100238661Y-94500000D01*
X100228422Y-94499576D01*
X100227502Y-94499500D01*
X99772498Y-94499500D01*
X99771577Y-94499576D01*
X99761339Y-94500000D01*
X95000000Y-94500000D01*
X95002136Y-97674684D01*
X94991692Y-97724577D01*
X94871403Y-97998811D01*
X94723666Y-98429152D01*
X94723663Y-98429160D01*
X94723662Y-98429166D01*
X94651920Y-98712468D01*
X94611965Y-98870247D01*
X94611964Y-98870251D01*
X94537073Y-99319051D01*
X94537072Y-99319057D01*
X94531547Y-99385740D01*
X94506394Y-99450925D01*
X94449992Y-99492163D01*
X94407971Y-99499500D01*
X75631803Y-99499500D01*
X75564764Y-99479815D01*
X75519009Y-99427011D01*
X75507823Y-99373262D01*
X75508466Y-99337641D01*
X75508527Y-99335402D01*
X75524418Y-98895526D01*
X75524512Y-98893425D01*
X75548342Y-98453896D01*
X75548483Y-98451677D01*
X75550113Y-98429152D01*
X75580249Y-98012599D01*
X75580420Y-98010509D01*
X75620104Y-97572103D01*
X75620324Y-97569903D01*
X75667914Y-97132318D01*
X75668163Y-97130209D01*
X75723654Y-96693485D01*
X75723935Y-96691415D01*
X75787309Y-96255727D01*
X75787628Y-96253661D01*
X75858860Y-95819159D01*
X75859223Y-95817073D01*
X75938270Y-95384033D01*
X75938668Y-95381957D01*
X76025521Y-94950410D01*
X76025974Y-94948263D01*
X76120605Y-94518351D01*
X76121075Y-94516303D01*
X76223463Y-94088123D01*
X76223961Y-94086121D01*
X76334079Y-93659794D01*
X76334627Y-93657750D01*
X76452392Y-93233597D01*
X76452966Y-93231600D01*
X76578403Y-92809531D01*
X76578993Y-92807608D01*
X76712035Y-92387857D01*
X76712705Y-92385810D01*
X76853261Y-91968656D01*
X76853955Y-91966659D01*
X77002023Y-91552098D01*
X77002750Y-91550118D01*
X77158303Y-91138232D01*
X77159057Y-91136290D01*
X77322014Y-90727299D01*
X77322777Y-90725433D01*
X77493118Y-90319388D01*
X77493988Y-90317368D01*
X77671592Y-89914553D01*
X77672413Y-89912737D01*
X77857266Y-89513182D01*
X77858172Y-89511268D01*
X78050226Y-89115083D01*
X78051203Y-89113115D01*
X78250264Y-88720686D01*
X78251295Y-88718698D01*
X78457491Y-88329771D01*
X78458557Y-88327803D01*
X78671743Y-87942658D01*
X78672719Y-87940932D01*
X78892904Y-87559560D01*
X78893905Y-87557862D01*
X79120908Y-87180581D01*
X79122020Y-87178769D01*
X79355784Y-86805668D01*
X79356861Y-86803983D01*
X79597323Y-86435163D01*
X79598494Y-86433402D01*
X79845598Y-86068950D01*
X79846756Y-86067276D01*
X80100362Y-85707399D01*
X80101593Y-85705686D01*
X80361617Y-85350498D01*
X80362875Y-85348810D01*
X80629371Y-84998241D01*
X80630621Y-84996628D01*
X80903319Y-84651032D01*
X80904637Y-84649393D01*
X81183554Y-84308748D01*
X81184925Y-84307104D01*
X81469902Y-83971604D01*
X81471349Y-83969933D01*
X81762304Y-83639669D01*
X81763751Y-83638057D01*
X82060595Y-83313128D01*
X82062055Y-83311555D01*
X82364895Y-82991851D01*
X82366328Y-82990366D01*
X82674817Y-82676257D01*
X82676257Y-82674817D01*
X82990366Y-82366328D01*
X82991851Y-82364895D01*
X83311555Y-82062055D01*
X83313128Y-82060595D01*
X83638057Y-81763751D01*
X83639669Y-81762304D01*
X83969955Y-81471329D01*
X83971626Y-81469884D01*
X84307104Y-81184925D01*
X84308748Y-81183554D01*
X84649393Y-80904637D01*
X84651032Y-80903319D01*
X84996628Y-80630621D01*
X84998241Y-80629371D01*
X85348810Y-80362875D01*
X85350519Y-80361602D01*
X85705686Y-80101593D01*
X85707399Y-80100362D01*
X86067276Y-79846756D01*
X86068950Y-79845598D01*
X86433402Y-79598494D01*
X86435163Y-79597323D01*
X86803983Y-79356861D01*
X86805668Y-79355784D01*
X87178769Y-79122020D01*
X87180581Y-79120908D01*
X87557862Y-78893905D01*
X87559560Y-78892904D01*
X87940932Y-78672719D01*
X87942658Y-78671743D01*
X88327816Y-78458549D01*
X88329771Y-78457491D01*
X88718698Y-78251295D01*
X88720649Y-78250282D01*
X89113155Y-78051183D01*
X89115083Y-78050226D01*
X89511268Y-77858172D01*
X89513182Y-77857266D01*
X89912737Y-77672413D01*
X89914553Y-77671592D01*
X90317405Y-77493971D01*
X90319388Y-77493118D01*
X90725433Y-77322777D01*
X90727299Y-77322014D01*
X91136290Y-77159057D01*
X91138232Y-77158303D01*
X91550118Y-77002750D01*
X91552098Y-77002023D01*
X91966659Y-76853955D01*
X91968656Y-76853261D01*
X92385860Y-76712688D01*
X92387857Y-76712035D01*
X92807608Y-76578993D01*
X92809531Y-76578403D01*
X93231600Y-76452966D01*
X93233597Y-76452392D01*
X93657750Y-76334627D01*
X93659794Y-76334079D01*
X94086121Y-76223961D01*
X94088123Y-76223463D01*
X94516303Y-76121075D01*
X94518351Y-76120605D01*
X94948305Y-76025965D01*
X94950410Y-76025521D01*
X95381957Y-75938668D01*
X95384033Y-75938270D01*
X95817073Y-75859223D01*
X95819159Y-75858860D01*
X96253661Y-75787628D01*
X96255727Y-75787309D01*
X96691415Y-75723935D01*
X96693485Y-75723654D01*
X97130209Y-75668163D01*
X97132318Y-75667914D01*
X97569931Y-75620321D01*
X97572103Y-75620104D01*
X98010509Y-75580420D01*
X98012599Y-75580249D01*
X98451693Y-75548481D01*
X98453896Y-75548342D01*
X98893425Y-75524512D01*
X98895526Y-75524418D01*
X99335422Y-75508526D01*
X99337621Y-75508466D01*
X99777660Y-75500519D01*
X99779899Y-75500500D01*
X100220101Y-75500500D01*
X100222339Y-75500519D01*
G37*
%TD.AperFunction*%
%TD*%
M02*
